<mxfile host="app.diagrams.net" modified="2024-05-24T17:14:37.749Z" agent="Mozilla/5.0 (Windows NT 10.0; Win64; x64) AppleWebKit/537.36 (KHTML, like Gecko) Chrome/125.0.0.0 Safari/537.36" etag="t-6WYnkmNcwmxRs6V8un" version="24.4.0" type="device">
  <diagram name="Page-1" id="mxwd9T0EQuzYrb1VPLvA">
    <mxGraphModel dx="3164" dy="1201" grid="1" gridSize="10" guides="1" tooltips="1" connect="1" arrows="1" fold="1" page="1" pageScale="1" pageWidth="850" pageHeight="1100" math="0" shadow="0">
      <root>
        <mxCell id="0" />
        <mxCell id="1" parent="0" />
        <mxCell id="03a_yUvJn4LSFQJn4kzA-2" value="Прокат автомобилей" style="whiteSpace=wrap;html=1;aspect=fixed;" vertex="1" parent="1">
          <mxGeometry x="220" y="330" width="240" height="240" as="geometry" />
        </mxCell>
        <mxCell id="03a_yUvJn4LSFQJn4kzA-3" value="" style="endArrow=classic;html=1;rounded=0;entryX=0.219;entryY=0.011;entryDx=0;entryDy=0;entryPerimeter=0;" edge="1" parent="1" target="03a_yUvJn4LSFQJn4kzA-2">
          <mxGeometry width="50" height="50" relative="1" as="geometry">
            <mxPoint x="280" y="250" as="sourcePoint" />
            <mxPoint x="260" y="200" as="targetPoint" />
            <Array as="points" />
          </mxGeometry>
        </mxCell>
        <mxCell id="03a_yUvJn4LSFQJn4kzA-4" value="&lt;div&gt;Иные нормативные акты&lt;/div&gt;&lt;div&gt;&lt;br&gt;&lt;/div&gt;" style="edgeLabel;html=1;align=center;verticalAlign=middle;resizable=0;points=[];" vertex="1" connectable="0" parent="03a_yUvJn4LSFQJn4kzA-3">
          <mxGeometry x="-0.2173" y="-1" relative="1" as="geometry">
            <mxPoint x="-19" as="offset" />
          </mxGeometry>
        </mxCell>
        <mxCell id="03a_yUvJn4LSFQJn4kzA-5" value="" style="endArrow=classic;html=1;rounded=0;entryX=0.5;entryY=0;entryDx=0;entryDy=0;" edge="1" parent="1" target="03a_yUvJn4LSFQJn4kzA-2">
          <mxGeometry width="50" height="50" relative="1" as="geometry">
            <mxPoint x="350" y="200" as="sourcePoint" />
            <mxPoint x="450" y="590" as="targetPoint" />
          </mxGeometry>
        </mxCell>
        <mxCell id="03a_yUvJn4LSFQJn4kzA-6" value="&lt;div&gt;&lt;span data-metadata=&quot;&lt;!--(figmeta)eyJmaWxlS2V5IjoiVm5wMlJRWm15dUtmN0JWOXY3TnROaSIsInBhc3RlSUQiOjY5NjAyNDE3LCJkYXRhVHlwZSI6InNjZW5lIn0K(/figmeta)--&gt;&quot;&gt;&lt;/span&gt;&lt;span data-buffer=&quot;&lt;!--(figma)ZmlnLWtpd2k8AAAAbEkAALW9C5hkSVXgH/fezHp09WPeLxje4lthZhjAd1bmrarsztfkzayeGXWSrMpbXUlnZZZ5s3qmWddFRERERERURET/iIguIqIiIiIiIiIiIqIiKiLLsqzLsq7ruqz7/50TcW/erO5h3W+/5WM6Ik6cOHHixIkTJ05E3vqQX4+TpH8h7lw+jI25+Wyz2uhFnVK7Y/hfo1kJe+WtUmMzjCh63Shs58q+YoeNCvkgqm42SjVyhahzXy0kU9RMLwqF1pLiKuVedK7a6rXDWrMkLZcbzU51475etNXs1iq9bmuzXapI+xWX7VWaDSmvpuV2uNEOoy1AJ6Jy2Ah7gFtbvXu6Yfs+gGt5YDts1QR4slLd2CA9Va5Vw0ant96m93IpEt5O53g72+y2GUconJ2JOu2wVLc1lK9xZTvia6uNTtgulTvVbQZZq8KYFQ1117XDcrPRCMsMNsdMyuH1V69Oeb1B+aGXXrVRbod1+C3VqHVtwLhRZwa+Ot1o3utNpYeGCdNyL3kjhLzS7i7TCwi+K71mQ8kbLZxvVzvSyGtMBnFrv5/EoNFbqaNjB6ne3Nasd344HgzHF9pHI8FpNBv3h+0mFaZZ0XqhYPXnC6kMAZlKs9wVvsl65VJjuxSR8zfbzW6LTLDRLtUFr7DebNbCUqPXbCHKTrXZAFjcZpDNNrklRijpcq2qZFfCWq3aiiS7ijg6jFs17UQ73OzWSu1eq1m7b1OJrNFVoxJWRGwZ3slOeK+wdIrpKgvgdHRffb0pWnum2qCzhkKZ52r5nIjq2mir1Ap756udrZ5re52bBWXw+rLMw3qtWT5H6Ybz1cqmavuN0KrLSG+qh5VqiczNW9XNrRr/SfUtEQTsYG912R7CbtdK0ult50vRVrXXoWdKj9gutauldeX/kR2XuV0zvTLyoPSoFMWttUczPF1BjylFUTViQntQbnal7rFXam1YUxWj8nEZIeGmTSXAx9ebla72+gSLv0kFpS+wpXbzPIUnRvv9w/j8cLbfiR+aWWV4VHRPt9QOqTXw6ebNQxz1pi4gv0NnMjOseYpBVqw0z4toClebwmKr1C7VahgP1ky913YSXVoE18INgS6Hjc1epYSwStr5ipRZhF0prEpho6pUT2i+WauEMqtrHZZjeH9Th3my1Q4r4QYKWOm12s1yGIkqn2KGwprUn05VvRdVHY9nMlC9W+tUWwq8pl5qdFnG1UZLJ+LarfDektXV68pb4XZbs9e3aObANzQZts2KPglnN7VqXen+5lIbuafDvMWWUlncGnXrdXjpne02mGclcJuq6yOiVhiWt3rr3XUmGcAjVRuwd9iSZrukVuT29VE8HtRZ08IOGtTrbDETm2Jv2RHadbXyXqXUPhcKad8NUlQ3kIXKOlzHiFIslJu1ZlYqqvprm6UIS6M5Xdq0qDRZOpRXbJO0uCqKiPKSPRE1Nzo9pUFpbavURq1dSa172A7t+j0V3ltGTnbkp7d0ts9E2MrMxFyjvZC5ttZFVM2o2pEurmv1h2OnvStRE/0GaNCoSpVpoTdhFYiXgSRVeWDbyAoITRVbBCzIYCA5pS9U61bMRezr2SqZpW2WkZjT5eoBG3G02x/FVvrspO2wU1bBb1RlnB76qr11rN4G4d5evOs4LlQxTG320RILiEpTaTdb86K30cRMMpPsK+u1rjDor5fK5xZBgazfsu4GS000qopyADbdFhaa1Ks1z2sGFjqWhwiNqPXKpZZoZmFeYkG1y7qDFIVoJd6dTPuz4WRMm3SfoGfmF7mS9xhu9Vw41za/Fvdl4+lMhweU0jbQ7m2Fbua9xtHBTjztjoezBLrtkgzVtKr3hrWIjAfX7LCC6Zcn42Q2nc/wMjMP3Ei9Dsmrl2Tr9OHDiT2IyvgCZAobUKz0bIuiKyj2UjSbTi7GpdHwwpgGGTHDhsLEkvGwvC7rW+Ry/xCNTMfDcFU1vMxe+nZBi1xkEIEthvd0qzW2ZwwdwILTKTFh1l0pIj6UDwOagZbyu87yfF/pPZnySq58B+XVXPlOyidy5bsor+XKT6F8Mle+m/KpcrVdzvd+2o727GQokqnjb7SBmvVwO5QReOnA/fXJZBT3x83DOFWQQrdhVypipJlskuS9qLuObda8f68uYNVXFf7WZDp81mQ8649o7ixjbm7RZZWCf7bL9r5RVQ7nrbfj6WzI0hNYs0VVrul6s9Np1sn59clREpePpslkijzYFkrYPipMud2MWGnVNnkvvC+UpYfqUfLxzrSrVomhYAvLqDjlApaepEhSrtbILdXFokqTZaYYT5vcSjZ/WlytYY7FVJzYZtVPpvXhdCqcZMtJp5/U0wymCBPJ1tYRXfYr/WTfGha/zHYMyMw13VPjYxdGodXYBGTOtkJJvWhbEr9VEQc6CB86nExnxxdTgFuEbWcXdCvGpACcIu3fSwHZ2vVr/cuTo9nmdDiwRAp2feVEP2fQt8stmLdp9WezeDqmCqxqS5cKxlqNtqcTezSbtONk+CxIZyJSdlQyGR9elvOlWWd6NN51euhXqpE4RELT4JGzrZLxotnlURzFbuzMYTtqOkPZ4YRA4pVRM6s0HFbwORpl2WGCTlhvsdPqMaCQkkGYsziT5BUbD1kv3TawIP3di3YaszFtYanvR7rKgceOif+qeYutCk53V0jXitRfR9vE1pAPtEF5cgRDU9du6eHaIXY3OUGp2xG9LORIFZXU2aNkNty7TPFhqbRKZZzQ7dCeTgJbXg87562HgJSgE9lZVMsLkONJVL0/7HWamBsV0AIApWOSq/UWfj4lqQHHSqM1SYYyuWwsgBzjprSO2Lv2RKRo56dipNl0OCmVWoCNS211XkRu+sBOqR0fgwfKmCVLt3aSV9OpwyZYB0xOdJS9blsnbp2dmTQo15rquhZw7Xupe0652G3h2IY9PV/02t1Gp6onqiVWWaUqbo4qwHK+WQ9PXnBWqvA77efYuYYDCDZBuzSlDVjqCT02LspevcnBH8eVvG/ztiKg1ZY4aOQLtgJXQ9CKtqR+/RJY+NDqNi+7Ya9UcDZJV6k7F96XNjtBcbtpj2Zr5O3gtnSCT2ZlliHlU7aLVJtO2yKHyW1pfaYz7Y/tPNsR3sZ2zCGi02P/YGMWAYFmWN7MuzbxNogtkPr2XLPRbmbniCAHSveRQg5md4xiDpJtGUutbrRlYY7Y8hyS0lqZgyyp1Tkgo3RCzuMW5iitzSEppZNzkKWEmFJARum0ZZRJBCkldmYBmNK7ZgFqSV67AMuoXqc9Oagjen0eltK8IQ+0JG/MgzKKN2HzqmW0VufnZjxLAjSlBqZQ1+ktHCKa+JpzyK1hP2FZ2xk/TQyl3F2vlqkwQjoteNVGvuiLvbL+Oi1k3WVVBcFbgBRt2wXYkjX1WXk5arXtPrGyiXqy7jLAqkPNACdsThcIK9WujrVFYOe82JSTx4BbHKAAn4p2p5PRqDKcWvMC026NfZ5dAQmr1bZtsU0zsQbxAMs2i6kP722xQVpDW4aCuFxa8ja7bE2enxBVojPyy8YbTfCbNOuXJyP8Ea8wNavGu8A//g7/BH3+KViXhcYPUfIu84/fBgT2HPAg/wT7/FNQStFsckiDXcmbZxjv0JluEGxXgrDdnxo/2JWi4GhGYG8tGD/XIKj3Z9PhQ8ZbOnjSkyh7B096Mol/8KQ7SIKDJwuwcPBkARYPnizApVZ/il2vjgcx7fwLR8OBeSDHxZrx7emDykv90VFMG+9ITyKPNP4GYm30D2LjBXv9g+HoMvheIjs+GeFsluxOh4czSoHgwvOwT5Ojg3g63N0YXjiaMhfs8e7EbdBTFICMR6BCY6vktZvFptFhf5dVsNCWyAVuh1g9LXuERNwh9SoENkQbZIB5ClheYhGaxytD/1Uh8q3L/cME7Z83YcHqadUj6aUFvxVychTWAwC9rCQeP/FYyRYBMdhNsks5+q1U7nm2OBHwLwcDfDAyyk+kQmZyMqwqi0DXphfFB5Aa7p6Phxf2ZwtIBAJlSBlKlaPEcHcBZU6Hs4ruLBtxf6YT9bdei4MpVaZ8R0tR3Gj8cisSeCCjItWBkhZdFHWJuJE41svNdqVBulLaaEv9aqWhVvBEo1uXoa1xDpBI4kk2ahHNqYpNT8sBgfQM52hJrymV9Exybdmm13Eok/T6yJZvaG9rOOZGsQikN0XnNZZ+czk6L+ktTLLAby2XNYR5W2R9vEdsEUokfaTzpm5vthvC36NEKKSPZmMV+T2m0tGj92M3aiUZx+Pqm23xKx4fobOkT+CQI/1/wQauOOkTt2z6hVu23y/q2PIX32PTL2nZ9Evl4Eb6ZbWNdSl/ebOl6Ve0O5p+Zcu2f1LrXEPk9OQadov0DlLh8852pyblu0il/JTSenub9O7S+raUn0oqfD9t29J5+jYMkX7Veu28zM9Xkwre15AK3teWzm3JOL6ufFYPpF9f3tAF9Q3llpZL5W5b8NbxMaRcxqpKWtmw9ENiisLPBukdpJukd5Ju0a30VyUV+me37HjobVP4qW01z4re4E+rY9So4sGQNs+2nvo00tbZ1tOEzj1nW09/Emn7bOtJd5FGtbN1adchWi34XbZTmZdt8apIz5MKH/fWz9UFfl+jpv7g/Y3uuQ7pN7LzCF/fRBqRfvM2Aid9oBV1BN4jFfgz2ufaUu63W1uS7rS76zLvuxHuOOmgY/mIOw09Ke0xTTJ/F7aJ0JHub9v64bYd9zO3z6m+XNxud9qkI9I7SA+iCAtuzJhUyhPSO0kPSe8i/RbSp5BOSe8mTUifSjojFTkdkT6d9FIUYfuNeZBU6D1EKvQukwq9Z5EKvX9FKvS+lVTo/WtSofdtpELv35AKvWd7UXSHEPx2r7ytHD5HMkLyOyQjNJ8rGSH6nZIRqs+TjJD9LskI3edLRgh/t2SE8gvIKKvfIxmh/ELJCOXvlYxQfpFkhPL3SUYov1gyQvn7JSOUXyIZofwDkhHKLyWjPP+gZITyyyQjlH9IMkL5hyUjlH9EMkL55ZIRyj8qGaH8CskI5R+TjFB+JZk7hfKPS0Yov0oyQvknJCOUf1IyQvn/k4xQfrVkhPJPSUYov0YyQvmnJSOUX0vmLqH8M5IRyq+TjFD+WckI5Z+TjFD+t5IRyq+XjFD+eckI5TdIRij/gmSE8hvJPEUo/6JkhPKbJCOUf0kyQvmXJSOUf0UyQvnNkhHKvyoZofwWyQjlX5OMUH4rmbuF8q9LRii/TTJC+TckI5TfLhmh/JuSEcrvkIxQ/i3JCOV3SkYo/7ZkhPK7yDxVKP+OZITyuyUjlH9XMkL5PZIRyr8nGaH8XskI5d+XjFB+n2SE8h9IRii/n8zThPIfSkYof0AyQvmPJCOUPygZofzHkhHKH5KMUP4TyQjlD0tGKP+pZITyn5FRE/XnkhHKH5GMUP4LyQjlj0pGKP+lZITyX0lGKP+1ZITyxyQjlP9GMkL5497xKBUu2ozt2txlvNRV88WZrfcPD8VZ8vy96eRA3LvZhH/99dFkx3jezuVZnJjAs+Ex4wdclO5LeSyeHX7coD/rK+6yCbaHg3hifD/FSe7sTkeC1OonsziaHE13IeEnU7w7HBRxB6e7DQnl0CEgDuVl8V5Lg2cSNTHeykwYx6dM9vuDyYMJWX8ft4WYwz4+Jl7rIJ71hyNyhZjxJuKI4L1eIiYRExsjvzSLDzSqaquWLw13OBjDxiqHTpGL7dY9AjD+if+3Xe7inU0RBvnVnanQHNMzpRPKjPFv1km6xlg33jzD+BPxZmdyOgguDZPhDoLzTIHE3VGdNsWEU0Bi9rwlaI+Tvcn0wDzTLA91xl7gmRXNdfZx1cfCOqDV/hggJ56qVAnkGgvBvcT7ZWqXzbWU89cx15kTFrI/ORoNysJfvT8GAD83TSccnWgMm2uJNCFzck9lq5huSl/smVOHMtINrcISm9PxweSZwzI9tIiTI+Nl78wlVaQXeuY6YtoXhmOOV9Lz+eFgtg9n1y9At6wnu2xu2JWecJbl6HOjCkUK+97N4hTXmbcKymr84sX4sjk03h7Q2nCcEmCmBVIZXojhNODUQsm60t9qClJwPnORCxBK0B7aMftB/6Fh0ulfgAlPsg2RIHqfrjQNs9vOr9/d78vxIp4mYHhZSTuqVmT4fiL55qV4SpA37vSZa/M23wtGGvnVQOAOGsAd1QjuE7YPr3hhdPlwP2Hf8JYG2T1Twq7hLe9wPr34LUcTWciv9bxrLJltGAAFjlf2GEwmnZd53upefzTaIca3QUViDr0T+yjllM4urk8egsorPW+NErnXBt7JWRYu5vg8dafFojnl4PEgk+/p0eSC3DEoSmdSTsfe3NtL4hmWyKx6Zw6GaTwxa3ftASXo295f5XnXDTimXYoHNWXidYF3fcUC5nI+aYfppOUtSMufS4vlvCAtFtaCtIp78JIXztKVslh2I4XGggRWHDwngdV/gQROHB/t2sAOrqb8M9qTWzkejF/YIRY7SMyAw7e1t+6kHuyneBwgioQoM8IsgnmjZM40IQzsSpoPhiygEaQwOAe27TmWzrIprjtxGn8FG2hPpUj5QV2gLCSpu49MIJls9AUplZJdSFFaxmROpnEtd8eJhdwbTpNZJhfpC4by5aVNmTw63p0cHPQZwrrdfeZhiR1jVxCDZgwygaoF9H8l8f7gkrPNS1faoWUFqZGJ4pn5+wJx20xd2MimhG+QoIcE0+5k33T6g1m45C7V1jFDSFHB9f6UaXOyzzNq40OqZ9JSCo149uAEdDdCxHXAfDyLQBX/ZOO80lLIxs7tEFLyRBUS84DnRZcPdiYjRz7RAv2y39t8SiQRAj5BHNlGIniPNxAWWxGTmZJFT9Vn8H10AwqHwHA1CRQgvc14LJsfEnJ9TfKUvaMk3kALNsUpYRyXxxqq8XAkhnt7zfHochuhX+qPFDuoWM2vHhwczWR0ujdZuv4iXQrOnvmlJIln1QFcMn50bToE582e57mKENBlCPSlKAqNHdZ8dYCD6tq34z1QLtralDhLSytB9JdFsjL6vkAE/S20ZS3NGNzk6LA6wLc1gc4Q+bezhqykKbzDw2OQ7YMhUXynZ5bSYqTU3+0RRc2T8tM1vdhd5Kg/XHXa4cPUb7tOUYT/DUYTEYiwq4P/HWbEACoPh4QjcUR3g4er7+zHB5+Hm40RmtfBqBl8SkLfeLomrK9rJM6LsFR4ORBwCjKTPMTe6y3M4ByvNcVFMP7STArbGQYO8nwoOhf+jH3FyTphKj0sYwdQWRyOen98xIZ5OYpHLNqYdW4Kw2R9Mh043+cqCMXkaEeinztsWdK5G+DSnLdF7f0Q2rtQF1IhOjyTMkzKGDVvx/QBeI6wc7LCRAWgHxPKxdD5q3v43uesXidaiYjwvy/Z8W/18d2JyIr8W/1srSccE9kc3WmgOBri004vi0HoTCI3FtAEwFHeW8I4H07G8ditr+Wj8d5Irqvl1jFPcmWYdNMqlcyqZbuctq/3OTqkVnE3hVqq3uHRzmiY7ENMOhZ2O5NO3D+ozdmTTvzjnQRVjkVi91O1jmYy7LmtElLNvehBOMX6OGQxcfjlCywsWqGr092+419EmY2jP4pyM5I2saTtSyfjn5qJ/t8gnKBbekJQ54HtIJiylR7JcaIwPyoUSbKjwlJyOI37AzCWk/3Jg8iaQ856jAQHYrtBX7E0ttmx8KJXtRNXOGEbu9LaQy5z8rLLnOrI8UP34Op4Tw6Cyuq28QZHdkegXx8FnU2kohJfGu6mLy7SOxuJrenzEK9MtFPjv77CuMaR6D1lNgVp2E5PHGw7rnG5fL6n52nvWCf4SFLgWIzOu62TsSC16oCpHO4N8QZQelpZmp9gDTcRP05ky7kVHSFgVrLre8PNXXrN50k+q/GllF72Bdw1MY4Us+CKGXLRAVL8JftMktyyY2AdT/wC24D4ZSwFdmO4oZds1HJDzs2ZvcCWS0T32Mq7goAdQ9aSuGm10kufAl6JXkJH8ZVEQX1/JwMrlb9DlHNQWdREdLHR5ySsMlQsU2yUtgnb6w2H4R6zbd8yetF5vSvwJe1xnaIIgbvQ1DcEhZDjtUQwoMx0itUCI31ZCoKJ2pt690F8uQXZXuvO3vZdAHzbMuI8jmXAwJ9Ijvb2uPrCYgzFmVPWWJS7OP0zcURmBCRNkFy6IHZGD2/MP8VqRdfNP7KKKDWPZuLAiuGnHhPHdOAoitNCeRmMjQkRjkgffWG3LiaAV3B4SjvJZHQ0i53bh5HbzY/q7z1zwrG8vem6NH51o9cIQ3cJWaqdL90XkfFqeqyR5z+pKbibTZIzp/Gx4dmqD8ZHBxH2golIDK6/sxFEKhILjWQZ4PVeOMIqTl1pWfliHlcOxVhOx+ZpZjVHyS30E5aaK60ltlZoONDJOVUHObXJfoIa6UkZVj1Lgj7TnT5oYRlBeBBbxLTpY/sVg5Vb8PJxsGQXVoc5kmxHRCCXblal5e0dCTd07eY5gfju2XoQbmzYR3QF7iGabckV3WOpJewge47Sy+2Uti9r51MHwm2P6eYqCMw0YxXNgftEIK5Jwoym1oOyL5Ntq9zFM4aX5YLAAajmywwzhHvDSu/8VsiK3qrWKr3mRs9WcyXYS385wAhZ7fe5Gmnol6a7GRec6BBiaXwBKRLNYgfIFf3hGB+9rYaeYmA3nRrnRNoeTYdw6A2GyeGof1kXw5p451pU3Yf/1uiIAIzr7VALSJJmeO5EPGhw0Q60pXXteNTnKLxvGxQOFWgbHMQ28kYTN9Vkca8qOEvWVyrUj0azofQeTzeG8WiwbaeCCdplQSF7lMHL38j75QkDlFNLvS9hOWNWUv1wD5TEYJP4zioH1giTK6R2uJhZ6CVp01t4TLCcdRCOB4dyXEQMscvKRgob+K6H6eTvcM1uOXmJb4KsMRlsxaglrRhNDt2uaJqBYnFF8hE5qcePrlYqNX3she1UXeY6LAXZ90HpkyvbtD60zNFNAlCo/LCfX4UZNmqACUOLEUtYW2+etxaIBVVyomFrbttfxsxb2WXoZ5uXXpejquS80njs9lUsHgGJ2WWLfatbrELbLlaPm059meFnLxIDrvl6KbgghayqWC/dm1Wxb947r1q2JLPalTKXtWG7x01btSuLZTUzByfEQCBG+5xgTUtccm/SUX7KT26Q622U6lV9pXdKi+4m+LQWzqedn2GhhnNerqmFHTSpJ2/iWMFArmXS2KnngOssoFWquAeW11uAe692gy0pV27zu7EpjfU++aZys95CvRV+s7KSjuaWK0VvfG8m0n8Vsz+vRS1G/Z1YgkfeocWUY8dPEgqYI9XjvoS7JRIkOh6JQTcFu5JMtoI8t6b8dCUFV6VAAEfNvifXDkKOvD+buFyQQrWT1/imMJtE/QNbZDdWA9ZU5RXbMiNIgBIvsTOm4I3hQ1gPtjRLM9LwgW4x+Nor7oBQn1yKnas6GQ3OqckimoE938hstZ/D3RoSVZ5erhLhp0miFxpCvaojseXysQMCHmg8EokqoxrFu4gNHNtm9Lc372pEnbO4Ejm72NVwXuH8cHAhZith/WLsfOJA2pYuw8GQyJ0MoDAbYkpn/YPDajJ52t3cu0Ia32MKolBmUIIcD0oSKg928eTTQkEq0iVcrITyS0bmzZzfqnbC9WapLUvd00dvsnT8Srjdk0fdTf1BYRCBJfACG+FFSyQo1Vpbcnct785kNZDz9Jcm7hdmLhDgsBtoL0ATofyYsPQlqP6uJi35EXYGFYrQJHateaP1LnskqSfLgKVmDdMCtpNQogXzFjRfxNE9HCCC7nj4UCcVHcLwOW9xmD2U1gguyERYaCB1YodjNiv/pXo+lhmQ1Eb+n3K4309is2R8zVjg3Yf4CekTqpEJckWL8NSZyOAECk5qQU8bWxUoSmpBTx8mLXvWFTVmBbzeW+Tzbf5orqY63tf55tl5oNNd83O+9yNud/4NdUlKEmGRuMYve+Z/WZ+H7WvZPNllLQfxMIkmezO3LUdSBRtv8LjsmIytKB1rvwBsYzgapTg/Rtn6xCnkJ4A0L9nDraSyQaV1/2g56CAN+OdGXIuVhcH+RuqNkf9ZD5lcxRV7rs9Cz1XN/brn+NyGy7QS2MQp2s5IfV9wzGN7uz95Jifa6IjVi0JNY7V76oMI/T9lK71Un0zGoyH3SKPLab8fwb/aJ3CJDXJSQJ4PcFPgwDlhaMVPphWZHBT80ynYnQ2yitdmFRoSmFf8TFohx4M5+HUpOMcPJxXLBvW/6iUKHAAUFAJc5r12GhRmEdOa38/VCMMCe18OZpkS6B/koMKRwN6fO0e2+hi0xLzU837TuyqH6xkqXL4DpYlYwTYkajzz17CdFlt2zyISgfvZlMgbm1fg/V2qAergzlXgw555FtQUuriu/hW5rEE+UPWt+Yq5znybBWdGP6eBf+aZH3YRtkX1fbF3lEajoJ7v5NXcSbKFdB+m+uNpwAsxiYH4kNtyanaVn9NF/T2BQ9K5/xM5QFnWbPWHEWP5Dkb6pymxOHOo1+DZXq2WFxt9bk5FJF2J9xLznMB7AQ54Dox8E/M53/se341apPB6z3zLvGhticwPO7YTpsCxX96/5nYL05LGxNpxwvExHMvEyDHgBWkIjYiNbagD/L5F1jBmXCuJg5GYZwfeCwnzEA8tTeP1ox1H6BeywFok0TnzEc/7R28BRMDuo573T2rbU5dhkhbsEA7TBjXZ3k3R/KZ/MN/S3uybf9bL5Igh4ITcmOZt4yq7QP/CtH+4LxsBvtCquekYyCKezaDpm9ZVc/NxmEU9N2MtlkYMPvc7sC8yj7kK2DboZDXbrBy5pTJfYh57BdAidwVeZlczN5nHpXlbtS3F3LXYLebxixCLdh5/Jr0JHJsvmpds9TeJhBrsd1zMf3Gat1XfrORESV7umS9JC7buAadJHQc1r/DMv1PJE3cY9seEjw4OJuOaxKRwPCX28m8WavGoHpod9Tn8zjGezSrMUCpDlm4s42CF5bG+PY9lN1eRVx7lOXkUrJI8WQD8HXlwhCvCErw/nk6oem6+qnFkXyPbl9BT851XqXQ6YGZE3a+s5bpM3SBzyXxXvrosL5UfMs/Pw7J971nmuz02ecxYSnxsfspiZnbiPWD0GY+9tr3NvMMXx4hyi2M+8lRCnvnDFFxDPpT/iGPwQzWmXmJSf8n2qdyx5pxf9leLIPVj3uqbv/Fllrps2TWNfqV8LJvf86SGDXI03GUTPlb7wmA2uUDIY9AcNzsbOLzIEcPleb/vpRXcOS7UvM/L7szNOwPzl56YEqH27sB8cK5YAkow795zlbX14WA47/aHFNaxl/8C+hrO2riEW/1Bu1PrUIcoXu3Hxy+XvytI7BWPe6izhWYg6+fn3v0suazV/q/iyuCi2rRlm7Pgr54/GVpxWVvxNbTMrgJWs4Kt/NoE+0TIYU1SC/p6gqPZe6KTWcFWfsMA9jCI6MnYrHqnckWLUDrgPABv10hqQRXJVpOmDaRSd90CwCJtCEzN6C/75tdz/kLTjoVhXX8F0DbdxOZwMMwiWzfkyxZlK1Fvxj3lWTW35csWpWFBagbNY8ztuaJFuMdCWEXmceZRWcFWtm1Zf/T7BPPoeclWR3u4OHPP54nzoq2/3zawIMH4wjzA4nxjrD5WYv7K877U5W1Nby6Ysgvl3nEMZBH3pN/NeHIQyz3iP3venXmAxblge06BgnXXIsji7cs7CNY5ajk5rMV7mNW51BHx93t5hLYI+hjGS+YY65PZbHJwFSo/cBznaoReOkea1wxlSz1E2VnK6NwPHsfpTPAlqJ2jvEyDIDjdrN6ETYJRI35daT8kR4fSzrGA/nP8nYl4NYxvSz0UYD/uYJbbDPwqB5YhZsCfcEAdUwb9SQdlcjkvoOiyZF7jgHRllZZh/7SD2a4y8GsdWLrKgD/jgNpVBn2dg0Y6vxaM/c0L5Wf9fbY460JkMpmZR5lHXg1uVaOVyG9FxciYdcMe4Aq28plalnGxQ8DDxXzZoowU1OoPZK8B5SBftih0CKjMTGB6dJGaDfOQAs8e2d/ebpnLWra1FfN+T4tbGduOIB38oa3CmKv3M6/4gK0gFIM/eNb8kS1aF4byB225xXaInxANnyWtzpq/XQBr/1WCRwksfcJW5Rm3VRXz71zV/nA0cE03pxP5bdgnbY1jS6cQ6L9fgFolAPwpC1YySj+KR3sI59MWnm74NDE1870c1gC2cWenSXy/TP1DTPr3WbD+GLhhfsuWHM9upujpnf7BcMygY/Pugvlt2eTTwrsWWigX6AhHm5lpmT/hYj4ao9ub/QPWUn8qC+zDPgrkrpHluK1e/vfIgrQ3upHcbWQVL5xXrNPPhbmdw/R9rzcnpb7ExzzzIzlYh1ZcT788B6rMb6p/1CNayfgU6148yzlWC28hnl6KI73Ggelf4hRCSFJ9F8VvE02Zg+Q3zWvmV+a8EhSUa+lPeubNHoslvdXtUGU65tdyXUlsanIks/zWPGa9T4H/1Cb9ukchrcmN4G0SJOIeSMvsskztqC93lW/PdRDpc94IJZuV9AmwGJk/mLNanZNOzJsC72PzKp0KJKSRSfO2wPx3z17tqCv+Qt97rytL6BNvyN7/vMj3/jyVjQQXoGFe6pvPzmEhB34g/2UOqTFSjQuYV/jcl2Zwbc3Wyz78X+dQ2lvYP8xhZbSOyVJWE/My3/uf8zpxybILkpf75n/lqhimeaVv/qvfz6LYCc6b95/9A9QDt1EcxART6z07IBZw7BtQJ81/9hTaRV+csVg1/4150WPLVd61vcljn33Y6m0WJxyYF/vmA/6YRXDstd0bPfMZmB/EXJfuXqyxyR3hX5pXBOY7/BE+LYp7aRg/qLjvCxCDMudcVTxgj+E7F7yMwGRo2W70o1wvD+JJCxXaYanh8xNLTCRsquTeG5h/m7alm4SYoiy5fyiYz/oPagBbHvtx6EeIsXmPb74/By7bT4oscz9mgRUrgehoZzaN0y+OvNs3P+Dqy/1dTk0lCCbMknmDj8LYmur48GiW3ay+ODA/5ipkm+cekYX4SgfZmlzCiqlavYtQI9bovMIjbP9FkTuj/ilEJAsEMTg2uPC3aNoclE86cvV41h+IKF4SmOc5WHhJZGheFHjf5SAtPAt2l8v1eHxkDf7LA++7XaUyL9rTYA5Vg344MN8fqBK0Jw+mJjshxmje5CsYY3d0MF6o+SVbQwOrcjiKPs60Ai36ednGFPwrBCvdAseeyfmDid8b6ksImaX/ckV9iyXHaeuQM2OK9Pc+ASv3Mu99HuNPBDE6jLHt08ZENGvNfGegD9Qw2+/1zP/wFaUjEKXyfs/8zxyMsBd7qnmepdSJDw6JiEkM0l2VfHcwGEoU5ABukHB1wF7wH7jlkANgezKZUfyUK6aiodWnucfWVjWtkTcGyvM/+Obv0ipHUPe/f/TNf0rhtkmrf5Rgc//JN59BXVosrspQloXoweesqDjkh+Ojgw2MB8ppXhmY/2HtMxUy1LTiVYH5dgJobIzo/QnNWI/m6/r63ZYxax6qp+clW70uq89udGEWHTtzBdAil2MNHjOnupib9q3KtVdCLXqYYFCr2L6pPv3FVt2yCLFotYMh46kNSUC5lcSVbHV9hgZ30JmLbA4gPCJftijNHVbjwiePnmiecBxmUe9llaFweecSp/MLroRa9PsIOQy4CtBPA9Gf+QrzZcdAFvEZVggRoQ5gCZuF9+WLIIuH3hET00lIxKv5KvMVixCLtjNSBZFAd2L+yfO+Mle2GLv2UbfoADF586R50dYP9lAzND+5SNBJ55CpSq4AWmTMovY92WAOPMNGlBUtwiU7lnWkbvUibQ/2gxLMZFF+zvNe4CE51U3RAupe5CXq1cy/qHC/+XH2FDkpRQcsrX1Ew6S+yuERQkmIX+yY13i2x44IJ4m2NyUDwZ93iEwU87RLiDfSLeCb2K125zC4h8gvch3Kxa36rNN4nC6uNfZFSyWz7M/zzVu8vnvy8nzf/Fa6a9rgsIBrOgPbbs8smnd6Y9oSn6Oo6/6znvltDf2Ojr3z+5Rn3pVWiPMixi9FgMvfSevm0q2KFBmJIHzaM+++EqM0f033Gc/8riKgHGrQHjB/rLLo4+dMuW8SObpLNDmPlcb4tDIBskN/xLrvZWjSJXKT+Thr/mJOQG6shMLDEPiodzG+TODuwgUk+46AKMKlCd5oKFtVa39KZBd5/40nnMrmSlBnfz3em0zxWokLygAf8P6Du9mo4VQk5gW+9x+9GdMtcT6RvHl1YP4TEwKj+03uPVinMIofM8EuEvQkDyPfiU+SzObHiOcTE9uJB0rgPQGOIiHM/XqMAVbQawr4PSgF8yyzDHtOk9iBftBPhuwRnPbS+4NWfxyPZLiv8Pu7jETjZludek2Wx3sK5vW+BPLaWBzz3oL5+RxSzb2EeIN/SVCAaPdvLZg3ZpAyVufogJGJK37IBZj5xaxOTrjrlyMcAmo+6BPBTGsERmVi3lbw3pyHsim+2zO/moHaMQEGdFmV8XUFYqNpjbCit1yJeXvB/FoG7zDL4wamAsY/mkGj3ckhmO8seH/NVsOWfBkVeYgzlvmEr+8cIr1AYtGb53I37Z5Gvsk33xvsoGNMy3ZKCSYHwuR/94/VAH5pkR2ReyXWp7UZ4UNsLAOpZQK+PZhiNlL0c6j7GrdHYpMne3sRM3iUiKQ+UTD/3ocF2qVLTcAf983vOHDqYAn4Uz7u4MGQnVkQLRXzvoL5XfjIXVTT/Xt8NIgNHWf0jb75PeTA6RAvbA9nwnywYP6YK3/RU7RJVZrxvMMzH/J3xQa1bZh7bgw/XDB/hhIq1DoJa+bP/cFkl4g7gfU87Q8VzF9Am/shJiH//CNB+byPWW+nBNlL1ufhGs8K5+OqmqXZbDrcIcqEn1Ywf6uj0PnUoXyyYP4j7vYBXlj2MY9vw5FJQe7jHc/2zH9DIugTd2QJPTGPhiuIYBDv9Y9Gs4UKRv4Aruo0D+P/uhdyGY4zjW8UCddMmP1Ng4gAMyRy/oFgx9lm9r+CeWnQviod358NZ0hnzWAfsOnZtai/DeH58cIP+uywhxSh7R0w+n5tIp/DMT6nIu0xqAtUJAgBsyqPgA3/a5W6kTwN8TrNTXlPIvBeCvTr9iNnQbfhcgWHJsVeBi3qR7o3mu3z9v3LkpbXS+VzDrCsAH1NuII7jfOu5wF7nPCX0ACiR0O8K4KSnpeoGZ4D8j/rRagbGTZyYmQFYFGuiYUWh0nTNrPlJdtvxe17C2clH03AnHHul7cc7A26W5D1c88pZSHNf2TyXt/zFitDai5D6qKq5fxxZ7qWK24xzmm8HxrHakOqIBKMsT/27QT8XMrhiGXNLJbF+IBvgu0FiHl8vRrJAyHkbY6/5vPk68ebbfmG+PxRnT8HVhsV+zwuSN8Fpo/zCvZp3bxV0QLcU7z02b58iDsHtW/elheB6Xu3lUVw9jBudbsaVddrolz2zWGl1JE3UmvpI8WT2ZPBU9kXn6UrZaJ3fMynF3G09yuQzsyRLB9Xp3XNFWhXJ3fterNdASAdZiK8zgFdywx+vYNrjxn0Bge1HWTgG/UbfY1OTz7UFLY71VD6u8mKstzsylvc3CzdXK/OX4XeIk8/08KtUpMJ8japykqP0MeR2RvOR2oxfSt5u5aUjU612ZDuHzV/ZPlorXXvPR9TO/6i83HyyG3e0RNS3ZXdPnMF5qvkQ7lVkkcJqWepZIsBKMuXTTdbL4IN6AHjl8nZ7ZyGOdp/Bu2FupAKIcqqnuHFHZh3FYSeW8odoUqkgJ2LuEB+452T/CgkHxYvBEnIDwdwNX/yfAVp8flAz5H92BVkHU4IwpxkAhAz6ZfUB2i5DkDLkfoEpK6oD6mckzl0FcKZRa3O4gP1d4zvHhma9Zr9kr0jlnc45p19OussVx9SOe9MgIQU0p5SPPaFcV9dNPsI95NgcLzGhjeYMZ3XYEbAlwM3W/xnfFO4RPBEC5/1TfHgKGFjl9Lf+2bJku5k6L43k3wtHl/gigIbaxG2Uwo+bv4Mx5WNYF5bz0iyYUxwaSrCXAJTsw7U6gmofiUfAcmCJiI1+wSzYz/F5zm8fATFS3/esSB/h2gJupCKkIOIuU9XPiqce9XTjveMXxwjI7sZwD7+C7yyDp41OdgZxhs4I+I2NKx4g91880bW8J8Raf63BcXy1fFMYW6sTd5Ye/Ibpna1wn7Si/RvJ/RgA+arja2wXcW6VGs1a1NsRbDQw/x5kvEL6RDcYnxuoLvgthbYEoNRfKG/e9nt7p14/sKlsECzIsJZtUIe2+ETiELW/ZGlBeHjLxsLhzpHrnlV2hZnMqnPC8xSXkDLh1N5NceBS2kl5vmBWclzubrAiwX7gURybB7bNYN1W3i5Z3/uY0so+0LjjjAgv5DTz3mp2Em89PdpiJjtoFEOe/KjMQCLrVvHGEWfWa5yTNHimucN3clQfnzpoC8IPL+aAy8SgcZMeHphYOTIjNw+D3JHMI0vr5BZFuptGPjFp5QPzAu/nnXXQjln42jYD7a6L78a/fEeqSfD7oUVVMn+jsMvddgEt8IKWgWKfMc2/ZMnUo1H02WLlJ6yP4UicPdoXAPK684vB9t9w5cl222US52QrH1nLRsYBd82mxushV/32Pw2YQTUSEEubt2wehec15JMB9G5LMRtRbNcKsvGSicmCsU36+i0zue3wtbvxBEosBeFNRwTrXVeOrkirIqknPeb74wLTo5pk6mEHNBzHy9bM7A+QyPxbMm6IapkOqimrHrLoY8TsRmK29PATXQfcTftajn74yduCvN9ygBZf4cO5CSR728IhnbwUhbicFf5KVjOuIkKvGKibMeDpsKoZQl27AMl1s/yPnoGcAUTx0bJnfbkgO2S6fRk9eE9LNz1mGs697XCqNyu6tf2TLklE+65j9D55UjMa3C2tF3KcAoSFiEtno10fpbUa75HQMut+zpbClzZFPO8Gin4RHS+qo7x2rmmPPAnd7LdjQRyar2kn1M8zbFLPu6scjtTldMHQcYwFxnHmNqX+2llBY1LK9nNSNQalwjdyUenH/atLxN96IDIyZpTWfG+TG+NEJMQxuCOyKK1UNs5IlJhr+heg9kdslfhLYn00/ec8vuLuHFEPGpKqbA+b2AK6sFa5eg25gUvO2awlfVq9quHgeVhbE86/okRWSXzcxiVRA6LWN+iOXEVFtiQJTiTxR440DPA1wdmdbAIegN6tQgSiWJk3hiYwmDy4JjNFocw66yIDibIIh7vXp5Dl0Q8iHk6a9qQbtEsy0v+aaL8N/dq1KNzK5X5jiQVdmDeIgPCkye1OlZTVGVAHMaJKxWPlwkwhfjqg93TbapxCrbCEtXkCtHVpGHSL6+bmn4c0WvrN0bxMBbRfFttbDWeSr7aSQvrXrcfTAfFhPdm+fnPyQUzjfL6xaHsmx6zReNfRo1sRWLeGniLv2BMmFgcW/lY1gHIzoAi4GJGOVQq/vJw3kMHsOkY9q0MtHDtj9pmFblb/4CtqjOP7uJCXhHcLRJ0RwOkgXh5OGG0WzqQaMoW9weAKC9nvG27w0dHXVVWGwN/Jxv7GONjV+ho2E/MmznGlydjwlTQ7Y9KyphsxH2XQy4EIhyCOA/zjwGUFMX4t885a0Cd1YqE57AOqGYbpzmD5AfOhTwbvuLcawpzHBmQHWNu4JFe6x579yA/6paLf+qVTFt+Ep1C7CuOFYnyjK56LbB65fXCiXmHuAvJwqORNcvvBpfvUm9WvZMsqWnfIrhFuGNOzVTs6SSoSE4vwrbF4pmfK5gzOodOmO/0zTWQc9236X1mQ2wpx1wEYjXH3emoOm7ED3IWA3TdImnz5sBcvwjSBc/s3aCdRReHh52JiBj53piB1i+XDvSosWpuQoR2zlGBgndzVpzryFsC75ZjrFop5Hi99RhCNdX+S3HmCEq8/7ZFbiMw9Qz9iEV4dpJ+5CIc/HPq692eKWcEhgQvW/pAhEiW2+OPxS8PU15xhNwCrMT6zscUz4X3pb+kY88418DNmbsZYpm8e9eb9/bwHMn7regukoBNtoPvQUiEUgGuHFWW1MX4smz9iSl6LA+Fur7ejiHagmn7htn3j/Q3hPpbBgbr15ESPFpjSlf5v+HSbN3Xq3TF7KWeoUUWsySNvQNbjgddNLk6gK6fgdYvZ8Bgj/D3ORViIbEdvSvg+JqiWsQqsjwjVsdBUwIWvhyy9dqrIP+UG0My3e1qLgshB7P0sbStKDwoDxvQueK+DYlj1mIh1EEi1C9n+FV5eO1eWK/ssW7RyjxMHLpLrBa5ezzBrfGFIeoqWx7lNQSfm/iT2sO2NeoqgFNojHsW4wdHOiqgcv5GiyIXlxUQZxQQ52MHFNSYN2xF9k7HXznSsXnpoMXZSVkjjp9npXDV8RWvMr6lRczzTm7HBZRKcWUbduROETdqtz++1E/k2i52D2DZjQ65th05tlmEvpYrsSxYDXLbRptWCwt1+TtC7KC7Nlj9Zcaz9Uq0Ntnt63h2jJ8DR+ynrHb7/brBcYqW0pY+VmpjWGm+zPGeO5CLBCHAIWZwqOsXqtEx26JPqaDi7pgz0+t3mHiWFq75JRaUXEXor5DIuX69/cmMW46ZK/oJ50KXT21A1tjOZnFiSw7r8xFgnq0BqqambjJ2dQXXbB3Df8gxd1YdyK+Uilmf0dyilbSh7V1/d4yPvYG/iS52JocHE7y+XS4ORCPhB1uXs4bAULhFmFJC9abukjKFi0XF7eaodhUmpPL/hhFIWYtyjBmhCz7sLMLBB4zZL2yzVCaReGBl7hwvWPb9okVv2OZ0N0xazAqsiPZmhUgUHEiAfknERPY5YmJeoa9jkYfZ6l4kso7RsWIotmAQD1rp3NnuVMNsR0m2/gmtsWISyCIqYRC8nX4iHoJIoSLYTluI6xKq6GQ7YObAYsLnl1SmHRKe0nsuD4nqQUIGskNkzA4eUz7B69HOPo6LPo4fzAr+FTpVEZ0KyKXaBwTdGyZbFrM6bsQPHhsCSjjImPuEhJPSkMlM5kVeEwjV5eocnM4Ms5JISXvxjnebshct0IG7JKWTAxf0N9jmM2w7YrTLah0wxsmiEXFmxy0q/d1Og4lyZT27RWkLRJekeVqjBgPc2c/bXspR2qatQ9zBRgMVrOa0PBmLN4+eVfdcG/SSYZTj0YioeFUgSxmEU79ClhfntKVDNYF8D5/LCz2LmhL3LDZLgKVer3JhIQV/sSlLSt8XIZlDpYLA5H3vBeZUfk/BRpvqNjY8kskh1i0/SGUFJ8pYKnH9TX2qdJa6+SRKdSU4ggyX9Z/l1JonX0DtMb4Z/WBnUQ/TpVDlpCxfJ/UTxc+MdZAOzf4anem6smvh6CqMRhlHjqhjIjH/wFFugUndQ4iyz/cobmVTahsiS0uSdbBEo0xeifn7wFumjtia/eINwUUUAcuFwNk22RE7tuxvy4ltHoKTM5McQeJBmRAQGkCTEoIZcXJIFVt2OMCzKTu3ewAIB/5WjOe6E/dnzDxmIpRQpEYVzToXa1nJ6+J9wJvw7T8hNVAVhDzvW8g5x5fouoSfnoElECfBnouKsvOrh/B+Fv0Bw4nNBwIzXzPmAW9lskNHlxAHJnR1EOOVxA1L8wQmAyuiG3ZiPhh4a3Ym0k2aS7NAvjXsdpam1YXEfDjwTtHVFG7XzGmd2hRny9oLFsyZBXgrNc1VmcmcheG05FBS8hWZACzvtYeU5rqVmH8MvOt2c5P5T5ySLi1M2+cCcwPW4fyU8B+yu1G+Ir7BWSVCKdA1z9yUs1ypBUzMpwLv5hl64Cb204G5RYpRJsW/C8yt2aSUdEOKmKjb9ia7R0lz3AHZteXIs5/N/7MLHHTS4UXzfbKkVCvC8UcC7/ZLw6tsln8VeI/aHQ2ZHsS0Zh6tXUFFXoJUBwjuMVejLDtzjvpHA++x/UWt/efAPC6+6n75scB7fJ+2iEs6SULFEqoZHt0+IZtAhxeOYjlOWNaxUHBpFcPrjyfjy6KU3RRkd+QKZAKMHcfHxHaN/9KgRmRwlKSULDKe7gPylENq9M7srb74krF+zvZw/56jeHo5F2tfOFo1OgTAuCzutezfMfRate6mhsSOUzDsUjgnclRo0CsMctA8xMhi8nZS6s8vmEBqLYNJpnW+tzNikWlUxllGFrGVN24xokKFfPsZvK49VogGuRvEFfweexuHuZ0Bb8cHdn+yF4FInkMQcC0GM3IizGVToKN18c6KON5yibhMOLGfzNosaiZnEAHtgM3ADg618XICqCsf6OT8VZ/fQmJN5yzQQFYXSHQuDchhfj4/ZdyTaDY55FQFiWKLyUUl5Bn6AUc4O35/wcQNk7IsQwK80iJzyZxMFnHHcyovJX5V1lWxPp30B7swxf3uAvbuotxfRIsZvE7Ni5m+w7Qf87IC+0qq16082F75mpcUzFIdwsgC+yxY6I2X78rHNmlGn9k4rZCvKugaSMvPKXjFodAWhq66Zp5bMI8RCpEquQM+r2CeoGplnu95S5Jb7ydYT7sPP0quNPsjZ8eX7TtKUzAriYSWI3xsW7OaljvC/9eZE2m5jBcEBwr+BrOm7xIZS9Gc1KxTYwJhWtzIYgunbcet/uUR8gdwJllYSXJX/4KCd42Mx45kvk5eWDDX7kFp257aGcZ1Sr2K9rH02GcvN49michnvDtiDyJOJ5s7CnK9IraYC7V9N6A+xBax8CN8glF3PBD7uXvRvLzg3aSgdpwD3byTKktifrjg3TKNd60xj+JvOYpRQ3fnsGxu1X7Wp+jmPscQoigbMGyHfpvWhYTRuC4Rub3JN484lAPU5fFuicnFnIH2yOwTH1w8x3rGFBN2Ow767LI8xq3ae+IaLDGCR++Ohoc78ju8bLtpxxf4l/2u4D0W7pCkMysYQJn+VxTM43Ac2/EhmwxCKtu5hNjjw6ug22Ofm4xjRup4TfaQwReNs7AMO6fmFpaYVxa8gnzxtyQ/gch1zfH+AgNnqtLP3UGyMtzbK+8fSYRsbU4K8+F51hFeMv7AfvOwQTUrCa9Hff2qUCrYvNPsoi1VGSRrC5Vk+Eu7Qj0p6a+zEUxnHz0REF0s7xD4FUVDUltDVuN0d/8yXXgrh1fCVq+GvMmAZCZPHF4dvibjSxeGvzRmCOkIIWn3CFnMjNHJITGvKniBFNelP0Er7EiupT00FikUD68GXWqn77VVJ43v/jJlpUeiu55J/9a7l6FWZDn6xBHJb9nYlDdNK5XOqwu4xH3rVAi2As1JeScQlmQHNRu1Zkn2WS/qyN+IJOeXatWS3nTqTTIZ+exnO4wiewVdrOs9+FL+DceyfeMlbzcorcjVZfrsY7Xa2IaiYJ1oNCthb6Ma1iryRT7tZC1lrx3bkMiczZXPz2bGneWnmOdnaYGf5Tw/K2mHpbG9B0WNH+bNxZrx91ADV+IU19fLGu5vCurGW/gzTDF+6HCK5Wa5W9Ab2HQO3EsJ86YCO7Z7Hm0h7+AmcI/VHokVt6BfLphV6VhGbyEv5wZkjJLo4i1JxxbOVdFamPWHR8gawQqb6+XRZPZKwP2xc1uUP3Asf6nWPtGz16z6cqGlj/mCSlV0i1whvKdbqsm0FBvNjvzVeP2A41KNye91tnQqlrNCr9nOUFY22yHq2tYKyqv5ch7xREmPTWs6dSfpheSUndTqhnBzmlYN+0euz8CvfsixV2s2z+lDkGsaofsk8rVVuGh3O1uCed1cIiyIOCtk4nl9wchvbBy4NL1wJDu3XqpkC6SezpjeETD79jocnPkiAgcfUOGJeWNh/hZxI51PWhN1xavnpEZLr59siA5J3m8szKf1VmkrcYCOfmtRD+tjMopl3kKboVj/5vSccqSOq9YpBbtO/IXnve4NjVx9tHolKuyHL2VSM2ZFy+hdhyF3X94AgBJ7LT0ipMWV+DpcrrRpFOvvMGg9FGvuja0dx8VceCWV4QuRbemH4XqIXF2Ld+QEN0cIqcWFl69BiRMD8Us5HBXgtgPoY35jbpI/Axpx+RLK8PTZk14NMV6KRG8W3+DKI5XO1vytabCplqMgVOTxmeAU9SvBWqS0FG2VWlnJ2hFXWEFpm/rp1VWb66U26oT9QGpWXnPl1GCdnL+Ndd9CdXbKfgw1e2R7Rovu4ew1tWr+mey1V7yjvU7eBenrkxzw+jkwe2Fxg5JlaRHwwj7IoG8sI3L8n1n/oRZXs3vy1NUE50P5RrhhwbabzAcCHTYF27ePbfqjbfZnDlRuPeBmevIaRn4kZOrp24JSu1Mt6+i8CCHQIVm/UdomCUruc+uFLfkLbsWtO/h3aetO/l3euot/V7bkr7atbt3Nvye2JOYi87WWPWw4udFsIgVyp7B+WLmI7GnBObMl0GvYtkiuXXgXcZ2+kbu+K//ewNLokt5Ykz9jeVNFYDdXOvx7S0VGfOtGdbOrNG4jVy613AAeUedISvpITCfJ7bKxPCqs8++jRRlU9o+J6igWmccKV49jxoXO4+/hnydUNqT1F5TW14XNJ7oXRl/Ylp6/qC0D+GK3XX2J/DF10i8tYwdJv4yJI/nyqKR/YfUrzq0Ln1+JwSd5UqQCerIM5g4B3CmDu8v9tc6nrOsf67x7vSIz89SopZb6acrC089r8lWtarljB/zVUbPb1i+Ofk21LuP5WqJgMsKvq5XWQxnX11cbLf1j7t+w3u10VC4l++yM3Lrw796lsEA76eRVyFsZhrKaSmwT5Dea3Y6ltYndYu/QmdyqgyNsVdVnsH/d4Gwt3LTP+87JriVDqYkutyfYXvOMVO8aWEGSu0qtll7K2j4ftV5qYBLIlcVS1kLmHx5E+BVnOKqNDSEQutFuuJneRGXla/yWzhbxQJurRmGprX/k9mz+ad6pud4/mnXfrTcypX08wQ3iGY7SEypV+QVBU3l4YmX+jf4vTCX2ZdLSLucvtzPxFU6uT5IUtRI+n4y3KFzcwZYqvT4F1c//6YentpvnSZ5GkhJ+OnmhrVx9VUeeR5L5ug5e17oqWSmbV6+8FZbPcc1O3pdPv5dDVe0AqySqVYDpruOkmOZzbZZSmNhiEe9ypgYr6YTbPldTjBNRuc0Nv4Wu6Sd0JXc6alUbGV9n4JrkWhK0WbXyOlEr2+v1nXYYSq/kb2C+15sWfqOMgPQmkZ8F3SwMkt4iqe3zVuUkFdZtdCHoZB8hZEkfKakjdbtIDYeK7HqpFupCPldrymzV6qX2PV1tUbdvTcmhZ3UdT1OxK9WSRW5luXusYln2Ttr3DOSuWbBlj5mbpMe6KXlchSXoYF8Q1ltbGFnp8Ys2Qr3G+GIMmV3hX8I6Ctv6B6W/tNqIYMO2+sp02d0p+qy7B4W7o9SwfTXGhsmxDyC/BpPDvVla/Fpairi/XsZH+g3p8aUtmoYW955MIUoLd1DopIU7KXTTwl0UttPCUyioqkrhbgr3SkF5vC/bAu6XzcRO3TfOt5pvkvXrljbFb5ZpDHtOVg/gEGyqVenVj/0e0vcGyaA8ivtj/WKqlzle1gOM8VXEk/kAnky+KgSOD5N943hP4HJqlsBbfcIhcUjg7Xi8IijLcaLlfvxofPfnOcz8z3NQ8CrEjsVrXUQOsIelsliPq/xVD0p++ao/xsSVtBbS6I+MOk37syLKnmYEIjUA/BLmNftJ5fzYVFw4NiXUuyfj+H/HDk7DscsXiXcqYmk67TtCa15xoQfx9tTvlL/wkp0AUT9mn4yX+lV+Vac0sDXpI8jCFbRwKWdC7iM4upe0xz/DlVxAS5i63Kx+jFm9oj6kkqn1+ymQYTp6H4XeVp/wVe5HuSl6qgn7+XoNf2/lIbTIMfBxGAgJUamf64KpcVqmgVz0fBqcZNw/TPa5rDGf4iATZhgOTKs9Cb1Z5DF6Wt6XkMOGaKXVPonb5BoKafhINP07GmVV0FIpfgYpjvr2Z97zhh2pyp/1ccYjnNewo9bT62JeSP0sdB9E90XWMhcw/p1eqSW+SbHZ0LdezCelJdnMo9J2SH65JPUrkVXfFmeUmPNWn1kQPYA6sRIQjHSkvwHQohcufCmSWccdCKnAP1A/wVsgaCVdIOo3kl92nDHezH0+RUvcOtpSA5kyfDm+wcBniUGXHyb8BzUb7xEVkAmQEJPP4s8FRps2tLZjAg1NViVuJKHFh4+j6jXLurvQwFYtj4ZEx55bNB43ptxbmecV5c7/Esbl+UXIMjjiuaw9vX4yLyxy2WCvCPtT+uk/ZF5U5M5VQR2ipvqtSvOSollOO1GoPdz5hZjgFmE5mfJ7jfvUV3bSXvUe5onpICYiSKZQUh7nlPX+Cz2Q6x1O+iWduM4W53uMGLNZbfS2q6F4L36TzaJ9Bdj9CZiedaWs3S+kj0xzJq9gddH9UMJ35i1Qe0emUEOKGVsyOuPLBS1NhDVSP4+BIGaC9BzEfqT3Qf4hesZEByyIcVUeeJzn9D6RR13HBm38lZkb9z+zngYZj89m4iazfW7J5XfEQgvdiRFSKlHzObRNYZEqH9FVwk9DrmjzGEsCyhCWUdrLXHDuxnCysiV6MWckN1vS0kvSVnqbk/xLEDdEq/4liJFqWKp08xb2TxvdD+phzE3SqiEGYWevM2mJTD3mWNt2hLRoZ9q448RoApmj+QH5/1CBrk6cPW7m6L+4SAw8PzHHRql/diNKR1qYybWFzRfToEV10CRkaPNN5kC+YIJdmf9mlQKxRfYUW8zhvMvDykkgSMJM21Iv/ZZEal5xxoGbrWgstgEl5JYNCQYHrGoW2yDWjxVs6z61aopXp2KrWbmW1CUtMg0ZtgttZb/BPJxwC6OvJyn5D6ZvHYMht5zcuqHwyWwaz3blYWTx0hVdcYFT9JYy6hviyegP/+O0A8YukTqcI3+vfzAcafQrES4S8/KiV8jRBPKyolc8SjQIJ8GJXfvNFNhwfSiFtiXu+ZPRwEKgKc+4soIdbyS95JEVQLXgpnmLalsqjIsc12JPgQ0p0CaRSluXmFcV5UdzNEwBKbZ5ZZHdXFDNT6Y4unelvqLxvF2Mvr6hkT3bm6NAhXt4+byxystLGLqgcP1q2ybmNUUvEOFoIwxXsrvP9fR2JmP8VEZgXkHXU8fZq9k4Ykv+tewc/z8wCwAAjZcLcFTlFcfPdzfZvAgvgd2CQKCCgeImMEQoZO9S6q7YOviq1unMpoMOPloJVu+qMCUiIRS6qbWONpXRMWzQ+hha7KDghqRodUQoNLtIsYgQ0EoSRmt9lVqt/Z3vBrbTznSamcv577nn/fjuhzGOBGTIiWe2Lhx6TeOts6684jvLVqS+ecOchdd89Y45i73FN8s5MkrMaBkn42WSMWIcM6KoSKSoyIg4UmSKL1p+fWrZ0kZPgqb0bhEpkyFK+LNkuHQ5MhbtiSijjj+ZJEVO8eVLblxaNfN/aZ2j0FcdZu4U1B2rPlnVL2n0lt7WuOSWqssab1lR9fUljXcsuV2C8v8au1dzGVGk9gzhVBb3bI70tEWqFlfNvHDG7NoZdbNkdLPIgiqCrW4Ruc+ZZj3KlUtvTN2y5DaR6ea/VYZgtZyylEmJlOLvpGPWiXgY6nF41RxOznbWydTzAt8LJ72i5ny8uYR3tcUSHCaBYeRnRYrgLYDXlAg9KMY4a6T3SIFvgqtaI2OppNMs9yUKfCfY5OXiKr9WqssK/MCgfAD+3LoCvyi4SqRKTJHyryvwi4NNDd49vvzWwwV+cFC+2GmR1wMFfklw1UDmDTFB+KXTCvzSYFM+HhNTAn/utQV+WXDV5vQEMaXwNzcW+OXBptrsIjFl8E9vKvArgk0Q3877uQJ/yKCdcvi1Jwv8SvU7R0wFlX6vosAfqvWpY97MfzTSuRt+YNRrzSdeOR2YccPcnovHNP3jVHtgWPCSIiluZ6ZM2d1GpHyY2E5Qda0wVavjuU6rpBXR7DVTzUoz0Gg1Mo1C54JhNKuNucfIGibByFojLUbWGfmRkfVGNhh5jAHYY2SvCewzsh8JR9ocEzTMkg5vmVScGSZ/vNHttROO+spKf8zH6u/xzgSZKFMN9vilnID+w7IaOV/ajJwrQ82X7oE1TqbIDGlBLDjkC1YhEdriipwXg9FnQaAmWxpTkMqFYzXZsbFAZ191LOmNiCVCs2LZPokF8vH5vOl1lSZCz7qWkfQ2uCoRTl7uWpVUrtL1bfRErdFUriWqXpQ66ldBoD/TbEFnXwL/iHakgxiqdPszv4vm45e5ATYnWpNd7yoNJ7f5DJFeK9GfISBVycdHxNRGf4aQ1ajmoF6UnslzeCyQ9H5iQT6+HItlsYDIRW5N1iGBCzDyrmYTIoCD/AghgT8FIg+4KiFyl2tVRBYhsdwyrdFs30jUtlhqq6kgkMoFKNpIwhpqPRDrlyjvIkQnUiuM1WTPAzxADBov1VTQ4B20Eg3eu76KRqg2bMhqVHNQL0ptNRWIafCOE1I05igIJz/a6WgKZ8HZVwpks9HCVLqtkWwnVX07qiCV66Lu364n7bZots/hR1u0I90YtQw8RVWiP3MgOqjyKUy18WmUwlRbwECQMRId6cXksQX9xa61oSAfPz+a9OLQQ/VkW0/oC+pTuQtQnTcfLxMB2U7faLZTmovFhJObqefknbhcbUE4uYiK3VQPYzgexuPhKM/j0UAi9Aj+v+BpI7h5roM7DM1zA62R6YAx6o7ndJQ6Xk1pXiL+FTCeiCJxL3Gnya7DUgap04LWyH68bNFB7iWR/Vg/BaNYG/yxBsQMf4zxb/iMfPx21E5BN7gBLXci9BAS+/CS0TiybmffUzAesZRpWf3vIO86/qu8jto2C2qyL0EPu0R0EHACi8fcBu+vOi46BMKE6GoxHQry8XMYFV1RtkHkdcAkJHYT4hRdj+fRn8a4PWYpMf/MgprsarKzEt+FMTmmGSW9cWp0NmmOYsVmkVlFjKpup0wVKtpJNcay3p9D0eWjQVVrmd2rMXahSrQQfz0Sj1lKz3ZbkAgdh9ap/78TeyTWkQ6wJV+OUaJy3obxX876lPuMcPITYjAwe7WqH5L2HhI7RIQvaJsP4a5b1+VTrO4g1RIMtrtMxAjAehIagS4tUpD0KnFZCiOrbRasz+YQepvs0vXY2I0rHTN/7sTInWIYIOTnxRwF1FzYqVE+6M/Mx+HIGJzZBcAbldnGcTUIrHrSm4kMQAU70hO08aMKYPCV70uuEpP0nvTlFWBJnJrsXQXQkZ6s7jwftEZWckwW+SAfHxezMmfVFcjDrFRrJGNTY+HSVDG0k3Wibn3zOb3nYXxXfSI0GpNNurRHsfQHTuGt9PwrbiDbt4aUbkV/DYynfUYi9CZqT8AwMUq8j3NiFD0vQ2qSMi6gATUMUAPzS8+1IzoEqFhKHK9Y0J85RkeZm9bIaQKrxUaAUjBZHekKpkJHrRIpO4R/oV8MYSLUT2ZhTnWdhio95l/GWPWg9eoY87LCgv7MxQQ0Wq2PIaAAxkaj+qJLC8dZwADXYjVHMpeS/xH94NwE4yTBtEA5kcPJnwM+xNWTluLuVQtEdIDe0iH8J+N1AJUSPGzXj8gwgnkYhtJbfUZn33Q8lEBP6BB+wUYvoX5vsT/b6tmKV3gb2XmmU37PmE895J63IB/fSxDPq/KbmD7JfPWRxFj9BH9Avguo9QdEhT8FidBPsajnRUaTOArjWXz9nmeXxpzF6F4ePf32qsT9FiS9Zmy9pItzM7rd2LgSL79RiXp0H0eqBlttOgiTkViv8SLV6DNaIwuRmMMzTs+rS2EMMC4/IDiWL9v3Y97oGZuxVB7ks6TfCVxHGd5FiK/UIVxIEE/woaijTLmd1Hwabu7vEjkXV+90ITGUIMZ3p3LFLlLd6K5nCOu66fX9fBwmdCe9TQzx+10EsZUl2YzuLupd0UXPe6J8F+pbI4d54UUdbYkN4EwkelsjrEYMhF24jZwW17ns1AvEx3KFk0cKIOmN1wXc4wOCIsJG1wJdM7RGc9ieBYMGFegXWb8T7LaCfLxG1faR0BU+sD74fBUAsr4wVCTNrU6kndKw26ncMgtE9FQq10/2RwzNozzb6cAU7aBHIivpokcHsj6jI/0JnvWA58aUCH2M6FQ9IJGaqWvYSBa6ue2WUs3dFvRn/uxLhJOGRZ2KRBlMbNRkh3O+fYLUcFYZLwrUbSJUhiRxJD3D9j5KE97xI02EXh0M3c/Fz0oHBOXdFuTjx/A3yv/majeUWvMKOtIDDMopEgnq4XIcECKi/UhwQDB6OJ8Go91SJJZbkMp9DQkOCLWsiSi1RhWkchtIoppSX67rEEViCIavRyKvo7zWBqZGLd1BM7J9G20CBJWyQCeZKtfjcpgy6HsvtX9K9TPcjAxxPAKDu0sqNwXL83R7p2OxhOcq3u7TGvyQH2luaBstxfozFnArJvXn9Eg4SP7H2YBj2BjjsgUDxF3PjwEkv+8z9MrT4B0jh03q5TV0txHdi0j8Vuv4a9Ldg9ovKPAeXed1+N9LHW5G4mWViCO+C7UIUjtcxn8b49KlH+QSrDOjHWmHpp8FU2Msl54fgJrsXDSP6mRHLWARv4Xhk/y4A8pZ25FuBXxIgI9ayqS8YEFr5AhMztpE6G/EdABGgJl6ToMsZ6m06nqLWOYztJRcZ5nHN6J40Vm8liIfxtOv9BrZzdvJO7WcSqWFzrVGNtJKlkuBfuJY1034/KX63E5BuvH7Mun3KOMA+Z+gMH+invZe1otpvZf1IlWmO9CL6ZFM+SEY9l62H2OTiKyL2Pm+9We28GYad5OHLEVirQUiN5Ey/znTa28+XkWaF+I2rDenKZwxw7ExBdfFeiC00/Fi1W0nvTGM7xH2ebLqDiHkCIwFiNZpQB5FqOeCtdFS/HdaoGNgJVoj71mVjvRnRMi9LOkVE12Ip5jKlvmM/sznqBmiHNCZ+oy0/0gtBqDd2tDXefs4jB2EvNal54tI5mn/aNcoAaUonwWDBYfy9y8=(/figma)--&gt;&quot;&gt;&lt;/span&gt;&lt;/div&gt;&lt;span style=&quot;white-space:pre-wrap;&quot;&gt;Ф.З. N 16,40,52&lt;/span&gt;" style="edgeLabel;html=1;align=center;verticalAlign=middle;resizable=0;points=[];" vertex="1" connectable="0" parent="03a_yUvJn4LSFQJn4kzA-5">
          <mxGeometry x="-0.4222" relative="1" as="geometry">
            <mxPoint as="offset" />
          </mxGeometry>
        </mxCell>
        <mxCell id="03a_yUvJn4LSFQJn4kzA-7" value="" style="endArrow=classic;html=1;rounded=0;entryX=0.008;entryY=0.197;entryDx=0;entryDy=0;entryPerimeter=0;" edge="1" parent="1" target="03a_yUvJn4LSFQJn4kzA-2">
          <mxGeometry width="50" height="50" relative="1" as="geometry">
            <mxPoint x="-60" y="450" as="sourcePoint" />
            <mxPoint x="220" y="460" as="targetPoint" />
          </mxGeometry>
        </mxCell>
        <mxCell id="03a_yUvJn4LSFQJn4kzA-8" value="&lt;div&gt;&lt;span data-metadata=&quot;&lt;!--(figmeta)eyJmaWxlS2V5IjoiVm5wMlJRWm15dUtmN0JWOXY3TnROaSIsInBhc3RlSUQiOjkzNjU2ODMxMCwiZGF0YVR5cGUiOiJzY2VuZSJ9Cg==(/figmeta)--&gt;&quot;&gt;&lt;/span&gt;&lt;span data-buffer=&quot;&lt;!--(figma)ZmlnLWtpd2k8AAAAbEkAALW9C5hkSVXgH/fezHp09WPeLxje4lthZhjAd1bmrarsztfkzayeGXWSrMpbXUlnZZZ5s3qmWddFRERERERURET/iIguIqIiIiIiIiIiIqIiKiLLsqzLsq7ruqz7/50TcW/erO5h3W+/5WM6Ik6cOHHixIkTJ05E3vqQX4+TpH8h7lw+jI25+Wyz2uhFnVK7Y/hfo1kJe+WtUmMzjCh63Shs58q+YoeNCvkgqm42SjVyhahzXy0kU9RMLwqF1pLiKuVedK7a6rXDWrMkLZcbzU51475etNXs1iq9bmuzXapI+xWX7VWaDSmvpuV2uNEOoy1AJ6Jy2Ah7gFtbvXu6Yfs+gGt5YDts1QR4slLd2CA9Va5Vw0ant96m93IpEt5O53g72+y2GUconJ2JOu2wVLc1lK9xZTvia6uNTtgulTvVbQZZq8KYFQ1117XDcrPRCMsMNsdMyuH1V69Oeb1B+aGXXrVRbod1+C3VqHVtwLhRZwa+Ot1o3utNpYeGCdNyL3kjhLzS7i7TCwi+K71mQ8kbLZxvVzvSyGtMBnFrv5/EoNFbqaNjB6ne3Nasd344HgzHF9pHI8FpNBv3h+0mFaZZ0XqhYPXnC6kMAZlKs9wVvsl65VJjuxSR8zfbzW6LTLDRLtUFr7DebNbCUqPXbCHKTrXZAFjcZpDNNrklRijpcq2qZFfCWq3aiiS7ijg6jFs17UQ73OzWSu1eq1m7b1OJrNFVoxJWRGwZ3slOeK+wdIrpKgvgdHRffb0pWnum2qCzhkKZ52r5nIjq2mir1Ap756udrZ5re52bBWXw+rLMw3qtWT5H6Ybz1cqmavuN0KrLSG+qh5VqiczNW9XNrRr/SfUtEQTsYG912R7CbtdK0ult50vRVrXXoWdKj9gutauldeX/kR2XuV0zvTLyoPSoFMWttUczPF1BjylFUTViQntQbnal7rFXam1YUxWj8nEZIeGmTSXAx9ebla72+gSLv0kFpS+wpXbzPIUnRvv9w/j8cLbfiR+aWWV4VHRPt9QOqTXw6ebNQxz1pi4gv0NnMjOseYpBVqw0z4toClebwmKr1C7VahgP1ky913YSXVoE18INgS6Hjc1epYSwStr5ipRZhF0prEpho6pUT2i+WauEMqtrHZZjeH9Th3my1Q4r4QYKWOm12s1yGIkqn2KGwprUn05VvRdVHY9nMlC9W+tUWwq8pl5qdFnG1UZLJ+LarfDektXV68pb4XZbs9e3aObANzQZts2KPglnN7VqXen+5lIbuafDvMWWUlncGnXrdXjpne02mGclcJuq6yOiVhiWt3rr3XUmGcAjVRuwd9iSZrukVuT29VE8HtRZ08IOGtTrbDETm2Jv2RHadbXyXqXUPhcKad8NUlQ3kIXKOlzHiFIslJu1ZlYqqvprm6UIS6M5Xdq0qDRZOpRXbJO0uCqKiPKSPRE1Nzo9pUFpbavURq1dSa172A7t+j0V3ltGTnbkp7d0ts9E2MrMxFyjvZC5ttZFVM2o2pEurmv1h2OnvStRE/0GaNCoSpVpoTdhFYiXgSRVeWDbyAoITRVbBCzIYCA5pS9U61bMRezr2SqZpW2WkZjT5eoBG3G02x/FVvrspO2wU1bBb1RlnB76qr11rN4G4d5evOs4LlQxTG320RILiEpTaTdb86K30cRMMpPsK+u1rjDor5fK5xZBgazfsu4GS000qopyADbdFhaa1Ks1z2sGFjqWhwiNqPXKpZZoZmFeYkG1y7qDFIVoJd6dTPuz4WRMm3SfoGfmF7mS9xhu9Vw41za/Fvdl4+lMhweU0jbQ7m2Fbua9xtHBTjztjoezBLrtkgzVtKr3hrWIjAfX7LCC6Zcn42Q2nc/wMjMP3Ei9Dsmrl2Tr9OHDiT2IyvgCZAobUKz0bIuiKyj2UjSbTi7GpdHwwpgGGTHDhsLEkvGwvC7rW+Ry/xCNTMfDcFU1vMxe+nZBi1xkEIEthvd0qzW2ZwwdwILTKTFh1l0pIj6UDwOagZbyu87yfF/pPZnySq58B+XVXPlOyidy5bsor+XKT6F8Mle+m/KpcrVdzvd+2o727GQokqnjb7SBmvVwO5QReOnA/fXJZBT3x83DOFWQQrdhVypipJlskuS9qLuObda8f68uYNVXFf7WZDp81mQ8649o7ixjbm7RZZWCf7bL9r5RVQ7nrbfj6WzI0hNYs0VVrul6s9Np1sn59clREpePpslkijzYFkrYPipMud2MWGnVNnkvvC+UpYfqUfLxzrSrVomhYAvLqDjlApaepEhSrtbILdXFokqTZaYYT5vcSjZ/WlytYY7FVJzYZtVPpvXhdCqcZMtJp5/U0wymCBPJ1tYRXfYr/WTfGha/zHYMyMw13VPjYxdGodXYBGTOtkJJvWhbEr9VEQc6CB86nExnxxdTgFuEbWcXdCvGpACcIu3fSwHZ2vVr/cuTo9nmdDiwRAp2feVEP2fQt8stmLdp9WezeDqmCqxqS5cKxlqNtqcTezSbtONk+CxIZyJSdlQyGR9elvOlWWd6NN51euhXqpE4RELT4JGzrZLxotnlURzFbuzMYTtqOkPZ4YRA4pVRM6s0HFbwORpl2WGCTlhvsdPqMaCQkkGYsziT5BUbD1kv3TawIP3di3YaszFtYanvR7rKgceOif+qeYutCk53V0jXitRfR9vE1pAPtEF5cgRDU9du6eHaIXY3OUGp2xG9LORIFZXU2aNkNty7TPFhqbRKZZzQ7dCeTgJbXg87562HgJSgE9lZVMsLkONJVL0/7HWamBsV0AIApWOSq/UWfj4lqQHHSqM1SYYyuWwsgBzjprSO2Lv2RKRo56dipNl0OCmVWoCNS211XkRu+sBOqR0fgwfKmCVLt3aSV9OpwyZYB0xOdJS9blsnbp2dmTQo15rquhZw7Xupe0652G3h2IY9PV/02t1Gp6onqiVWWaUqbo4qwHK+WQ9PXnBWqvA77efYuYYDCDZBuzSlDVjqCT02LspevcnBH8eVvG/ztiKg1ZY4aOQLtgJXQ9CKtqR+/RJY+NDqNi+7Ya9UcDZJV6k7F96XNjtBcbtpj2Zr5O3gtnSCT2ZlliHlU7aLVJtO2yKHyW1pfaYz7Y/tPNsR3sZ2zCGi02P/YGMWAYFmWN7MuzbxNogtkPr2XLPRbmbniCAHSveRQg5md4xiDpJtGUutbrRlYY7Y8hyS0lqZgyyp1Tkgo3RCzuMW5iitzSEppZNzkKWEmFJARum0ZZRJBCkldmYBmNK7ZgFqSV67AMuoXqc9Oagjen0eltK8IQ+0JG/MgzKKN2HzqmW0VufnZjxLAjSlBqZQ1+ktHCKa+JpzyK1hP2FZ2xk/TQyl3F2vlqkwQjoteNVGvuiLvbL+Oi1k3WVVBcFbgBRt2wXYkjX1WXk5arXtPrGyiXqy7jLAqkPNACdsThcIK9WujrVFYOe82JSTx4BbHKAAn4p2p5PRqDKcWvMC026NfZ5dAQmr1bZtsU0zsQbxAMs2i6kP722xQVpDW4aCuFxa8ja7bE2enxBVojPyy8YbTfCbNOuXJyP8Ea8wNavGu8A//g7/BH3+KViXhcYPUfIu84/fBgT2HPAg/wT7/FNQStFsckiDXcmbZxjv0JluEGxXgrDdnxo/2JWi4GhGYG8tGD/XIKj3Z9PhQ8ZbOnjSkyh7B096Mol/8KQ7SIKDJwuwcPBkARYPnizApVZ/il2vjgcx7fwLR8OBeSDHxZrx7emDykv90VFMG+9ITyKPNP4GYm30D2LjBXv9g+HoMvheIjs+GeFsluxOh4czSoHgwvOwT5Ojg3g63N0YXjiaMhfs8e7EbdBTFICMR6BCY6vktZvFptFhf5dVsNCWyAVuh1g9LXuERNwh9SoENkQbZIB5ClheYhGaxytD/1Uh8q3L/cME7Z83YcHqadUj6aUFvxVychTWAwC9rCQeP/FYyRYBMdhNsks5+q1U7nm2OBHwLwcDfDAyyk+kQmZyMqwqi0DXphfFB5Aa7p6Phxf2ZwtIBAJlSBlKlaPEcHcBZU6Hs4ruLBtxf6YT9bdei4MpVaZ8R0tR3Gj8cisSeCCjItWBkhZdFHWJuJE41svNdqVBulLaaEv9aqWhVvBEo1uXoa1xDpBI4kk2ahHNqYpNT8sBgfQM52hJrymV9Exybdmm13Eok/T6yJZvaG9rOOZGsQikN0XnNZZ+czk6L+ktTLLAby2XNYR5W2R9vEdsEUokfaTzpm5vthvC36NEKKSPZmMV+T2m0tGj92M3aiUZx+Pqm23xKx4fobOkT+CQI/1/wQauOOkTt2z6hVu23y/q2PIX32PTL2nZ9Evl4Eb6ZbWNdSl/ebOl6Ve0O5p+Zcu2f1LrXEPk9OQadov0DlLh8852pyblu0il/JTSenub9O7S+raUn0oqfD9t29J5+jYMkX7Veu28zM9Xkwre15AK3teWzm3JOL6ufFYPpF9f3tAF9Q3llpZL5W5b8NbxMaRcxqpKWtmw9ENiisLPBukdpJukd5Ju0a30VyUV+me37HjobVP4qW01z4re4E+rY9So4sGQNs+2nvo00tbZ1tOEzj1nW09/Emn7bOtJd5FGtbN1adchWi34XbZTmZdt8apIz5MKH/fWz9UFfl+jpv7g/Y3uuQ7pN7LzCF/fRBqRfvM2Aid9oBV1BN4jFfgz2ufaUu63W1uS7rS76zLvuxHuOOmgY/mIOw09Ke0xTTJ/F7aJ0JHub9v64bYd9zO3z6m+XNxud9qkI9I7SA+iCAtuzJhUyhPSO0kPSe8i/RbSp5BOSe8mTUifSjojFTkdkT6d9FIUYfuNeZBU6D1EKvQukwq9Z5EKvX9FKvS+lVTo/WtSofdtpELv35AKvWd7UXSHEPx2r7ytHD5HMkLyOyQjNJ8rGSH6nZIRqs+TjJD9LskI3edLRgh/t2SE8gvIKKvfIxmh/ELJCOXvlYxQfpFkhPL3SUYov1gyQvn7JSOUXyIZofwDkhHKLyWjPP+gZITyyyQjlH9IMkL5hyUjlH9EMkL55ZIRyj8qGaH8CskI5R+TjFB+JZk7hfKPS0Yov0oyQvknJCOUf1IyQvn/k4xQfrVkhPJPSUYov0YyQvmnJSOUX0vmLqH8M5IRyq+TjFD+WckI5Z+TjFD+t5IRyq+XjFD+eckI5TdIRij/gmSE8hvJPEUo/6JkhPKbJCOUf0kyQvmXJSOUf0UyQvnNkhHKvyoZofwWyQjlX5OMUH4rmbuF8q9LRii/TTJC+TckI5TfLhmh/JuSEcrvkIxQ/i3JCOV3SkYo/7ZkhPK7yDxVKP+OZITyuyUjlH9XMkL5PZIRyr8nGaH8XskI5d+XjFB+n2SE8h9IRii/n8zThPIfSkYof0AyQvmPJCOUPygZofzHkhHKH5KMUP4TyQjlD0tGKP+pZITyn5FRE/XnkhHKH5GMUP4LyQjlj0pGKP+lZITyX0lGKP+1ZITyxyQjlP9GMkL5497xKBUu2ozt2txlvNRV88WZrfcPD8VZ8vy96eRA3LvZhH/99dFkx3jezuVZnJjAs+Ex4wdclO5LeSyeHX7coD/rK+6yCbaHg3hifD/FSe7sTkeC1OonsziaHE13IeEnU7w7HBRxB6e7DQnl0CEgDuVl8V5Lg2cSNTHeykwYx6dM9vuDyYMJWX8ft4WYwz4+Jl7rIJ71hyNyhZjxJuKI4L1eIiYRExsjvzSLDzSqaquWLw13OBjDxiqHTpGL7dY9AjD+if+3Xe7inU0RBvnVnanQHNMzpRPKjPFv1km6xlg33jzD+BPxZmdyOgguDZPhDoLzTIHE3VGdNsWEU0Bi9rwlaI+Tvcn0wDzTLA91xl7gmRXNdfZx1cfCOqDV/hggJ56qVAnkGgvBvcT7ZWqXzbWU89cx15kTFrI/ORoNysJfvT8GAD83TSccnWgMm2uJNCFzck9lq5huSl/smVOHMtINrcISm9PxweSZwzI9tIiTI+Nl78wlVaQXeuY6YtoXhmOOV9Lz+eFgtg9n1y9At6wnu2xu2JWecJbl6HOjCkUK+97N4hTXmbcKymr84sX4sjk03h7Q2nCcEmCmBVIZXojhNODUQsm60t9qClJwPnORCxBK0B7aMftB/6Fh0ulfgAlPsg2RIHqfrjQNs9vOr9/d78vxIp4mYHhZSTuqVmT4fiL55qV4SpA37vSZa/M23wtGGvnVQOAOGsAd1QjuE7YPr3hhdPlwP2Hf8JYG2T1Twq7hLe9wPr34LUcTWciv9bxrLJltGAAFjlf2GEwmnZd53upefzTaIca3QUViDr0T+yjllM4urk8egsorPW+NErnXBt7JWRYu5vg8dafFojnl4PEgk+/p0eSC3DEoSmdSTsfe3NtL4hmWyKx6Zw6GaTwxa3ftASXo295f5XnXDTimXYoHNWXidYF3fcUC5nI+aYfppOUtSMufS4vlvCAtFtaCtIp78JIXztKVslh2I4XGggRWHDwngdV/gQROHB/t2sAOrqb8M9qTWzkejF/YIRY7SMyAw7e1t+6kHuyneBwgioQoM8IsgnmjZM40IQzsSpoPhiygEaQwOAe27TmWzrIprjtxGn8FG2hPpUj5QV2gLCSpu49MIJls9AUplZJdSFFaxmROpnEtd8eJhdwbTpNZJhfpC4by5aVNmTw63p0cHPQZwrrdfeZhiR1jVxCDZgwygaoF9H8l8f7gkrPNS1faoWUFqZGJ4pn5+wJx20xd2MimhG+QoIcE0+5k33T6g1m45C7V1jFDSFHB9f6UaXOyzzNq40OqZ9JSCo149uAEdDdCxHXAfDyLQBX/ZOO80lLIxs7tEFLyRBUS84DnRZcPdiYjRz7RAv2y39t8SiQRAj5BHNlGIniPNxAWWxGTmZJFT9Vn8H10AwqHwHA1CRQgvc14LJsfEnJ9TfKUvaMk3kALNsUpYRyXxxqq8XAkhnt7zfHochuhX+qPFDuoWM2vHhwczWR0ujdZuv4iXQrOnvmlJIln1QFcMn50bToE582e57mKENBlCPSlKAqNHdZ8dYCD6tq34z1QLtralDhLSytB9JdFsjL6vkAE/S20ZS3NGNzk6LA6wLc1gc4Q+bezhqykKbzDw2OQ7YMhUXynZ5bSYqTU3+0RRc2T8tM1vdhd5Kg/XHXa4cPUb7tOUYT/DUYTEYiwq4P/HWbEACoPh4QjcUR3g4er7+zHB5+Hm40RmtfBqBl8SkLfeLomrK9rJM6LsFR4ORBwCjKTPMTe6y3M4ByvNcVFMP7STArbGQYO8nwoOhf+jH3FyTphKj0sYwdQWRyOen98xIZ5OYpHLNqYdW4Kw2R9Mh043+cqCMXkaEeinztsWdK5G+DSnLdF7f0Q2rtQF1IhOjyTMkzKGDVvx/QBeI6wc7LCRAWgHxPKxdD5q3v43uesXidaiYjwvy/Z8W/18d2JyIr8W/1srSccE9kc3WmgOBri004vi0HoTCI3FtAEwFHeW8I4H07G8ditr+Wj8d5Irqvl1jFPcmWYdNMqlcyqZbuctq/3OTqkVnE3hVqq3uHRzmiY7ENMOhZ2O5NO3D+ozdmTTvzjnQRVjkVi91O1jmYy7LmtElLNvehBOMX6OGQxcfjlCywsWqGr092+419EmY2jP4pyM5I2saTtSyfjn5qJ/t8gnKBbekJQ54HtIJiylR7JcaIwPyoUSbKjwlJyOI37AzCWk/3Jg8iaQ856jAQHYrtBX7E0ttmx8KJXtRNXOGEbu9LaQy5z8rLLnOrI8UP34Op4Tw6Cyuq28QZHdkegXx8FnU2kohJfGu6mLy7SOxuJrenzEK9MtFPjv77CuMaR6D1lNgVp2E5PHGw7rnG5fL6n52nvWCf4SFLgWIzOu62TsSC16oCpHO4N8QZQelpZmp9gDTcRP05ky7kVHSFgVrLre8PNXXrN50k+q/GllF72Bdw1MY4Us+CKGXLRAVL8JftMktyyY2AdT/wC24D4ZSwFdmO4oZds1HJDzs2ZvcCWS0T32Mq7goAdQ9aSuGm10kufAl6JXkJH8ZVEQX1/JwMrlb9DlHNQWdREdLHR5ySsMlQsU2yUtgnb6w2H4R6zbd8yetF5vSvwJe1xnaIIgbvQ1DcEhZDjtUQwoMx0itUCI31ZCoKJ2pt690F8uQXZXuvO3vZdAHzbMuI8jmXAwJ9Ijvb2uPrCYgzFmVPWWJS7OP0zcURmBCRNkFy6IHZGD2/MP8VqRdfNP7KKKDWPZuLAiuGnHhPHdOAoitNCeRmMjQkRjkgffWG3LiaAV3B4SjvJZHQ0i53bh5HbzY/q7z1zwrG8vem6NH51o9cIQ3cJWaqdL90XkfFqeqyR5z+pKbibTZIzp/Gx4dmqD8ZHBxH2golIDK6/sxFEKhILjWQZ4PVeOMIqTl1pWfliHlcOxVhOx+ZpZjVHyS30E5aaK60ltlZoONDJOVUHObXJfoIa6UkZVj1Lgj7TnT5oYRlBeBBbxLTpY/sVg5Vb8PJxsGQXVoc5kmxHRCCXblal5e0dCTd07eY5gfju2XoQbmzYR3QF7iGabckV3WOpJewge47Sy+2Uti9r51MHwm2P6eYqCMw0YxXNgftEIK5Jwoym1oOyL5Ntq9zFM4aX5YLAAajmywwzhHvDSu/8VsiK3qrWKr3mRs9WcyXYS385wAhZ7fe5Gmnol6a7GRec6BBiaXwBKRLNYgfIFf3hGB+9rYaeYmA3nRrnRNoeTYdw6A2GyeGof1kXw5p451pU3Yf/1uiIAIzr7VALSJJmeO5EPGhw0Q60pXXteNTnKLxvGxQOFWgbHMQ28kYTN9Vkca8qOEvWVyrUj0azofQeTzeG8WiwbaeCCdplQSF7lMHL38j75QkDlFNLvS9hOWNWUv1wD5TEYJP4zioH1giTK6R2uJhZ6CVp01t4TLCcdRCOB4dyXEQMscvKRgob+K6H6eTvcM1uOXmJb4KsMRlsxaglrRhNDt2uaJqBYnFF8hE5qcePrlYqNX3she1UXeY6LAXZ90HpkyvbtD60zNFNAlCo/LCfX4UZNmqACUOLEUtYW2+etxaIBVVyomFrbttfxsxb2WXoZ5uXXpejquS80njs9lUsHgGJ2WWLfatbrELbLlaPm059meFnLxIDrvl6KbgghayqWC/dm1Wxb947r1q2JLPalTKXtWG7x01btSuLZTUzByfEQCBG+5xgTUtccm/SUX7KT26Q622U6lV9pXdKi+4m+LQWzqedn2GhhnNerqmFHTSpJ2/iWMFArmXS2KnngOssoFWquAeW11uAe692gy0pV27zu7EpjfU++aZys95CvRV+s7KSjuaWK0VvfG8m0n8Vsz+vRS1G/Z1YgkfeocWUY8dPEgqYI9XjvoS7JRIkOh6JQTcFu5JMtoI8t6b8dCUFV6VAAEfNvifXDkKOvD+buFyQQrWT1/imMJtE/QNbZDdWA9ZU5RXbMiNIgBIvsTOm4I3hQ1gPtjRLM9LwgW4x+Nor7oBQn1yKnas6GQ3OqckimoE938hstZ/D3RoSVZ5erhLhp0miFxpCvaojseXysQMCHmg8EokqoxrFu4gNHNtm9Lc372pEnbO4Ejm72NVwXuH8cHAhZith/WLsfOJA2pYuw8GQyJ0MoDAbYkpn/YPDajJ52t3cu0Ia32MKolBmUIIcD0oSKg928eTTQkEq0iVcrITyS0bmzZzfqnbC9WapLUvd00dvsnT8Srjdk0fdTf1BYRCBJfACG+FFSyQo1Vpbcnct785kNZDz9Jcm7hdmLhDgsBtoL0ATofyYsPQlqP6uJi35EXYGFYrQJHateaP1LnskqSfLgKVmDdMCtpNQogXzFjRfxNE9HCCC7nj4UCcVHcLwOW9xmD2U1gguyERYaCB1YodjNiv/pXo+lhmQ1Eb+n3K4309is2R8zVjg3Yf4CekTqpEJckWL8NSZyOAECk5qQU8bWxUoSmpBTx8mLXvWFTVmBbzeW+Tzbf5orqY63tf55tl5oNNd83O+9yNud/4NdUlKEmGRuMYve+Z/WZ+H7WvZPNllLQfxMIkmezO3LUdSBRtv8LjsmIytKB1rvwBsYzgapTg/Rtn6xCnkJ4A0L9nDraSyQaV1/2g56CAN+OdGXIuVhcH+RuqNkf9ZD5lcxRV7rs9Cz1XN/brn+NyGy7QS2MQp2s5IfV9wzGN7uz95Jifa6IjVi0JNY7V76oMI/T9lK71Un0zGoyH3SKPLab8fwb/aJ3CJDXJSQJ4PcFPgwDlhaMVPphWZHBT80ynYnQ2yitdmFRoSmFf8TFohx4M5+HUpOMcPJxXLBvW/6iUKHAAUFAJc5r12GhRmEdOa38/VCMMCe18OZpkS6B/koMKRwN6fO0e2+hi0xLzU837TuyqH6xkqXL4DpYlYwTYkajzz17CdFlt2zyISgfvZlMgbm1fg/V2qAergzlXgw555FtQUuriu/hW5rEE+UPWt+Yq5znybBWdGP6eBf+aZH3YRtkX1fbF3lEajoJ7v5NXcSbKFdB+m+uNpwAsxiYH4kNtyanaVn9NF/T2BQ9K5/xM5QFnWbPWHEWP5Dkb6pymxOHOo1+DZXq2WFxt9bk5FJF2J9xLznMB7AQ54Dox8E/M53/se341apPB6z3zLvGhticwPO7YTpsCxX96/5nYL05LGxNpxwvExHMvEyDHgBWkIjYiNbagD/L5F1jBmXCuJg5GYZwfeCwnzEA8tTeP1ox1H6BeywFok0TnzEc/7R28BRMDuo573T2rbU5dhkhbsEA7TBjXZ3k3R/KZ/MN/S3uybf9bL5Igh4ITcmOZt4yq7QP/CtH+4LxsBvtCquekYyCKezaDpm9ZVc/NxmEU9N2MtlkYMPvc7sC8yj7kK2DboZDXbrBy5pTJfYh57BdAidwVeZlczN5nHpXlbtS3F3LXYLebxixCLdh5/Jr0JHJsvmpds9TeJhBrsd1zMf3Gat1XfrORESV7umS9JC7buAadJHQc1r/DMv1PJE3cY9seEjw4OJuOaxKRwPCX28m8WavGoHpod9Tn8zjGezSrMUCpDlm4s42CF5bG+PY9lN1eRVx7lOXkUrJI8WQD8HXlwhCvCErw/nk6oem6+qnFkXyPbl9BT851XqXQ6YGZE3a+s5bpM3SBzyXxXvrosL5UfMs/Pw7J971nmuz02ecxYSnxsfspiZnbiPWD0GY+9tr3NvMMXx4hyi2M+8lRCnvnDFFxDPpT/iGPwQzWmXmJSf8n2qdyx5pxf9leLIPVj3uqbv/Fllrps2TWNfqV8LJvf86SGDXI03GUTPlb7wmA2uUDIY9AcNzsbOLzIEcPleb/vpRXcOS7UvM/L7szNOwPzl56YEqH27sB8cK5YAkow795zlbX14WA47/aHFNaxl/8C+hrO2riEW/1Bu1PrUIcoXu3Hxy+XvytI7BWPe6izhWYg6+fn3v0suazV/q/iyuCi2rRlm7Pgr54/GVpxWVvxNbTMrgJWs4Kt/NoE+0TIYU1SC/p6gqPZe6KTWcFWfsMA9jCI6MnYrHqnckWLUDrgPABv10hqQRXJVpOmDaRSd90CwCJtCEzN6C/75tdz/kLTjoVhXX8F0DbdxOZwMMwiWzfkyxZlK1Fvxj3lWTW35csWpWFBagbNY8ztuaJFuMdCWEXmceZRWcFWtm1Zf/T7BPPoeclWR3u4OHPP54nzoq2/3zawIMH4wjzA4nxjrD5WYv7K877U5W1Nby6Ysgvl3nEMZBH3pN/NeHIQyz3iP3venXmAxblge06BgnXXIsji7cs7CNY5ajk5rMV7mNW51BHx93t5hLYI+hjGS+YY65PZbHJwFSo/cBznaoReOkea1wxlSz1E2VnK6NwPHsfpTPAlqJ2jvEyDIDjdrN6ETYJRI35daT8kR4fSzrGA/nP8nYl4NYxvSz0UYD/uYJbbDPwqB5YhZsCfcEAdUwb9SQdlcjkvoOiyZF7jgHRllZZh/7SD2a4y8GsdWLrKgD/jgNpVBn2dg0Y6vxaM/c0L5Wf9fbY460JkMpmZR5lHXg1uVaOVyG9FxciYdcMe4Aq28plalnGxQ8DDxXzZoowU1OoPZK8B5SBftih0CKjMTGB6dJGaDfOQAs8e2d/ebpnLWra1FfN+T4tbGduOIB38oa3CmKv3M6/4gK0gFIM/eNb8kS1aF4byB225xXaInxANnyWtzpq/XQBr/1WCRwksfcJW5Rm3VRXz71zV/nA0cE03pxP5bdgnbY1jS6cQ6L9fgFolAPwpC1YySj+KR3sI59MWnm74NDE1870c1gC2cWenSXy/TP1DTPr3WbD+GLhhfsuWHM9upujpnf7BcMygY/Pugvlt2eTTwrsWWigX6AhHm5lpmT/hYj4ao9ub/QPWUn8qC+zDPgrkrpHluK1e/vfIgrQ3upHcbWQVL5xXrNPPhbmdw/R9rzcnpb7ExzzzIzlYh1ZcT788B6rMb6p/1CNayfgU6148yzlWC28hnl6KI73Ggelf4hRCSFJ9F8VvE02Zg+Q3zWvmV+a8EhSUa+lPeubNHoslvdXtUGU65tdyXUlsanIks/zWPGa9T4H/1Cb9ukchrcmN4G0SJOIeSMvsskztqC93lW/PdRDpc94IJZuV9AmwGJk/mLNanZNOzJsC72PzKp0KJKSRSfO2wPx3z17tqCv+Qt97rytL6BNvyN7/vMj3/jyVjQQXoGFe6pvPzmEhB34g/2UOqTFSjQuYV/jcl2Zwbc3Wyz78X+dQ2lvYP8xhZbSOyVJWE/My3/uf8zpxybILkpf75n/lqhimeaVv/qvfz6LYCc6b95/9A9QDt1EcxART6z07IBZw7BtQJ81/9hTaRV+csVg1/4150WPLVd61vcljn33Y6m0WJxyYF/vmA/6YRXDstd0bPfMZmB/EXJfuXqyxyR3hX5pXBOY7/BE+LYp7aRg/qLjvCxCDMudcVTxgj+E7F7yMwGRo2W70o1wvD+JJCxXaYanh8xNLTCRsquTeG5h/m7alm4SYoiy5fyiYz/oPagBbHvtx6EeIsXmPb74/By7bT4oscz9mgRUrgehoZzaN0y+OvNs3P+Dqy/1dTk0lCCbMknmDj8LYmur48GiW3ay+ODA/5ipkm+cekYX4SgfZmlzCiqlavYtQI9bovMIjbP9FkTuj/ilEJAsEMTg2uPC3aNoclE86cvV41h+IKF4SmOc5WHhJZGheFHjf5SAtPAt2l8v1eHxkDf7LA++7XaUyL9rTYA5Vg344MN8fqBK0Jw+mJjshxmje5CsYY3d0MF6o+SVbQwOrcjiKPs60Ai36ednGFPwrBCvdAseeyfmDid8b6ksImaX/ckV9iyXHaeuQM2OK9Pc+ASv3Mu99HuNPBDE6jLHt08ZENGvNfGegD9Qw2+/1zP/wFaUjEKXyfs/8zxyMsBd7qnmepdSJDw6JiEkM0l2VfHcwGEoU5ABukHB1wF7wH7jlkANgezKZUfyUK6aiodWnucfWVjWtkTcGyvM/+Obv0ipHUPe/f/TNf0rhtkmrf5Rgc//JN59BXVosrspQloXoweesqDjkh+Ojgw2MB8ppXhmY/2HtMxUy1LTiVYH5dgJobIzo/QnNWI/m6/r63ZYxax6qp+clW70uq89udGEWHTtzBdAil2MNHjOnupib9q3KtVdCLXqYYFCr2L6pPv3FVt2yCLFotYMh46kNSUC5lcSVbHV9hgZ30JmLbA4gPCJftijNHVbjwiePnmiecBxmUe9llaFweecSp/MLroRa9PsIOQy4CtBPA9Gf+QrzZcdAFvEZVggRoQ5gCZuF9+WLIIuH3hET00lIxKv5KvMVixCLtjNSBZFAd2L+yfO+Mle2GLv2UbfoADF586R50dYP9lAzND+5SNBJ55CpSq4AWmTMovY92WAOPMNGlBUtwiU7lnWkbvUibQ/2gxLMZFF+zvNe4CE51U3RAupe5CXq1cy/qHC/+XH2FDkpRQcsrX1Ew6S+yuERQkmIX+yY13i2x44IJ4m2NyUDwZ93iEwU87RLiDfSLeCb2K125zC4h8gvch3Kxa36rNN4nC6uNfZFSyWz7M/zzVu8vnvy8nzf/Fa6a9rgsIBrOgPbbs8smnd6Y9oSn6Oo6/6znvltDf2Ojr3z+5Rn3pVWiPMixi9FgMvfSevm0q2KFBmJIHzaM+++EqM0f033Gc/8riKgHGrQHjB/rLLo4+dMuW8SObpLNDmPlcb4tDIBskN/xLrvZWjSJXKT+Thr/mJOQG6shMLDEPiodzG+TODuwgUk+46AKMKlCd5oKFtVa39KZBd5/40nnMrmSlBnfz3em0zxWokLygAf8P6Du9mo4VQk5gW+9x+9GdMtcT6RvHl1YP4TEwKj+03uPVinMIofM8EuEvQkDyPfiU+SzObHiOcTE9uJB0rgPQGOIiHM/XqMAVbQawr4PSgF8yyzDHtOk9iBftBPhuwRnPbS+4NWfxyPZLiv8Pu7jETjZludek2Wx3sK5vW+BPLaWBzz3oL5+RxSzb2EeIN/SVCAaPdvLZg3ZpAyVufogJGJK37IBZj5xaxOTrjrlyMcAmo+6BPBTGsERmVi3lbw3pyHsim+2zO/moHaMQEGdFmV8XUFYqNpjbCit1yJeXvB/FoG7zDL4wamAsY/mkGj3ckhmO8seH/NVsOWfBkVeYgzlvmEr+8cIr1AYtGb53I37Z5Gvsk33xvsoGNMy3ZKCSYHwuR/94/VAH5pkR2ReyXWp7UZ4UNsLAOpZQK+PZhiNlL0c6j7GrdHYpMne3sRM3iUiKQ+UTD/3ocF2qVLTcAf983vOHDqYAn4Uz7u4MGQnVkQLRXzvoL5XfjIXVTT/Xt8NIgNHWf0jb75PeTA6RAvbA9nwnywYP6YK3/RU7RJVZrxvMMzH/J3xQa1bZh7bgw/XDB/hhIq1DoJa+bP/cFkl4g7gfU87Q8VzF9Am/shJiH//CNB+byPWW+nBNlL1ufhGs8K5+OqmqXZbDrcIcqEn1Ywf6uj0PnUoXyyYP4j7vYBXlj2MY9vw5FJQe7jHc/2zH9DIugTd2QJPTGPhiuIYBDv9Y9Gs4UKRv4Aruo0D+P/uhdyGY4zjW8UCddMmP1Ng4gAMyRy/oFgx9lm9r+CeWnQviod358NZ0hnzWAfsOnZtai/DeH58cIP+uywhxSh7R0w+n5tIp/DMT6nIu0xqAtUJAgBsyqPgA3/a5W6kTwN8TrNTXlPIvBeCvTr9iNnQbfhcgWHJsVeBi3qR7o3mu3z9v3LkpbXS+VzDrCsAH1NuII7jfOu5wF7nPCX0ACiR0O8K4KSnpeoGZ4D8j/rRagbGTZyYmQFYFGuiYUWh0nTNrPlJdtvxe17C2clH03AnHHul7cc7A26W5D1c88pZSHNf2TyXt/zFitDai5D6qKq5fxxZ7qWK24xzmm8HxrHakOqIBKMsT/27QT8XMrhiGXNLJbF+IBvgu0FiHl8vRrJAyHkbY6/5vPk68ebbfmG+PxRnT8HVhsV+zwuSN8Fpo/zCvZp3bxV0QLcU7z02b58iDsHtW/elheB6Xu3lUVw9jBudbsaVddrolz2zWGl1JE3UmvpI8WT2ZPBU9kXn6UrZaJ3fMynF3G09yuQzsyRLB9Xp3XNFWhXJ3fterNdASAdZiK8zgFdywx+vYNrjxn0Bge1HWTgG/UbfY1OTz7UFLY71VD6u8mKstzsylvc3CzdXK/OX4XeIk8/08KtUpMJ8japykqP0MeR2RvOR2oxfSt5u5aUjU612ZDuHzV/ZPlorXXvPR9TO/6i83HyyG3e0RNS3ZXdPnMF5qvkQ7lVkkcJqWepZIsBKMuXTTdbL4IN6AHjl8nZ7ZyGOdp/Bu2FupAKIcqqnuHFHZh3FYSeW8odoUqkgJ2LuEB+452T/CgkHxYvBEnIDwdwNX/yfAVp8flAz5H92BVkHU4IwpxkAhAz6ZfUB2i5DkDLkfoEpK6oD6mckzl0FcKZRa3O4gP1d4zvHhma9Zr9kr0jlnc45p19OussVx9SOe9MgIQU0p5SPPaFcV9dNPsI95NgcLzGhjeYMZ3XYEbAlwM3W/xnfFO4RPBEC5/1TfHgKGFjl9Lf+2bJku5k6L43k3wtHl/gigIbaxG2Uwo+bv4Mx5WNYF5bz0iyYUxwaSrCXAJTsw7U6gmofiUfAcmCJiI1+wSzYz/F5zm8fATFS3/esSB/h2gJupCKkIOIuU9XPiqce9XTjveMXxwjI7sZwD7+C7yyDp41OdgZxhs4I+I2NKx4g91880bW8J8Raf63BcXy1fFMYW6sTd5Ye/Ibpna1wn7Si/RvJ/RgA+arja2wXcW6VGs1a1NsRbDQw/x5kvEL6RDcYnxuoLvgthbYEoNRfKG/e9nt7p14/sKlsECzIsJZtUIe2+ETiELW/ZGlBeHjLxsLhzpHrnlV2hZnMqnPC8xSXkDLh1N5NceBS2kl5vmBWclzubrAiwX7gURybB7bNYN1W3i5Z3/uY0so+0LjjjAgv5DTz3mp2Em89PdpiJjtoFEOe/KjMQCLrVvHGEWfWa5yTNHimucN3clQfnzpoC8IPL+aAy8SgcZMeHphYOTIjNw+D3JHMI0vr5BZFuptGPjFp5QPzAu/nnXXQjln42jYD7a6L78a/fEeqSfD7oUVVMn+jsMvddgEt8IKWgWKfMc2/ZMnUo1H02WLlJ6yP4UicPdoXAPK684vB9t9w5cl222US52QrH1nLRsYBd82mxushV/32Pw2YQTUSEEubt2wehec15JMB9G5LMRtRbNcKsvGSicmCsU36+i0zue3wtbvxBEosBeFNRwTrXVeOrkirIqknPeb74wLTo5pk6mEHNBzHy9bM7A+QyPxbMm6IapkOqimrHrLoY8TsRmK29PATXQfcTftajn74yduCvN9ygBZf4cO5CSR728IhnbwUhbicFf5KVjOuIkKvGKibMeDpsKoZQl27AMl1s/yPnoGcAUTx0bJnfbkgO2S6fRk9eE9LNz1mGs697XCqNyu6tf2TLklE+65j9D55UjMa3C2tF3KcAoSFiEtno10fpbUa75HQMut+zpbClzZFPO8Gin4RHS+qo7x2rmmPPAnd7LdjQRyar2kn1M8zbFLPu6scjtTldMHQcYwFxnHmNqX+2llBY1LK9nNSNQalwjdyUenH/atLxN96IDIyZpTWfG+TG+NEJMQxuCOyKK1UNs5IlJhr+heg9kdslfhLYn00/ec8vuLuHFEPGpKqbA+b2AK6sFa5eg25gUvO2awlfVq9quHgeVhbE86/okRWSXzcxiVRA6LWN+iOXEVFtiQJTiTxR440DPA1wdmdbAIegN6tQgSiWJk3hiYwmDy4JjNFocw66yIDibIIh7vXp5Dl0Q8iHk6a9qQbtEsy0v+aaL8N/dq1KNzK5X5jiQVdmDeIgPCkye1OlZTVGVAHMaJKxWPlwkwhfjqg93TbapxCrbCEtXkCtHVpGHSL6+bmn4c0WvrN0bxMBbRfFttbDWeSr7aSQvrXrcfTAfFhPdm+fnPyQUzjfL6xaHsmx6zReNfRo1sRWLeGniLv2BMmFgcW/lY1gHIzoAi4GJGOVQq/vJw3kMHsOkY9q0MtHDtj9pmFblb/4CtqjOP7uJCXhHcLRJ0RwOkgXh5OGG0WzqQaMoW9weAKC9nvG27w0dHXVVWGwN/Jxv7GONjV+ho2E/MmznGlydjwlTQ7Y9KyphsxH2XQy4EIhyCOA/zjwGUFMX4t885a0Cd1YqE57AOqGYbpzmD5AfOhTwbvuLcawpzHBmQHWNu4JFe6x579yA/6paLf+qVTFt+Ep1C7CuOFYnyjK56LbB65fXCiXmHuAvJwqORNcvvBpfvUm9WvZMsqWnfIrhFuGNOzVTs6SSoSE4vwrbF4pmfK5gzOodOmO/0zTWQc9236X1mQ2wpx1wEYjXH3emoOm7ED3IWA3TdImnz5sBcvwjSBc/s3aCdRReHh52JiBj53piB1i+XDvSosWpuQoR2zlGBgndzVpzryFsC75ZjrFop5Hi99RhCNdX+S3HmCEq8/7ZFbiMw9Qz9iEV4dpJ+5CIc/HPq692eKWcEhgQvW/pAhEiW2+OPxS8PU15xhNwCrMT6zscUz4X3pb+kY88418DNmbsZYpm8e9eb9/bwHMn7regukoBNtoPvQUiEUgGuHFWW1MX4smz9iSl6LA+Fur7ejiHagmn7htn3j/Q3hPpbBgbr15ESPFpjSlf5v+HSbN3Xq3TF7KWeoUUWsySNvQNbjgddNLk6gK6fgdYvZ8Bgj/D3ORViIbEdvSvg+JqiWsQqsjwjVsdBUwIWvhyy9dqrIP+UG0My3e1qLgshB7P0sbStKDwoDxvQueK+DYlj1mIh1EEi1C9n+FV5eO1eWK/ssW7RyjxMHLpLrBa5ezzBrfGFIeoqWx7lNQSfm/iT2sO2NeoqgFNojHsW4wdHOiqgcv5GiyIXlxUQZxQQ52MHFNSYN2xF9k7HXznSsXnpoMXZSVkjjp9npXDV8RWvMr6lRczzTm7HBZRKcWUbduROETdqtz++1E/k2i52D2DZjQ65th05tlmEvpYrsSxYDXLbRptWCwt1+TtC7KC7Nlj9Zcaz9Uq0Ntnt63h2jJ8DR+ynrHb7/brBcYqW0pY+VmpjWGm+zPGeO5CLBCHAIWZwqOsXqtEx26JPqaDi7pgz0+t3mHiWFq75JRaUXEXor5DIuX69/cmMW46ZK/oJ50KXT21A1tjOZnFiSw7r8xFgnq0BqqambjJ2dQXXbB3Df8gxd1YdyK+Uilmf0dyilbSh7V1/d4yPvYG/iS52JocHE7y+XS4ORCPhB1uXs4bAULhFmFJC9abukjKFi0XF7eaodhUmpPL/hhFIWYtyjBmhCz7sLMLBB4zZL2yzVCaReGBl7hwvWPb9okVv2OZ0N0xazAqsiPZmhUgUHEiAfknERPY5YmJeoa9jkYfZ6l4kso7RsWIotmAQD1rp3NnuVMNsR0m2/gmtsWISyCIqYRC8nX4iHoJIoSLYTluI6xKq6GQ7YObAYsLnl1SmHRKe0nsuD4nqQUIGskNkzA4eUz7B69HOPo6LPo4fzAr+FTpVEZ0KyKXaBwTdGyZbFrM6bsQPHhsCSjjImPuEhJPSkMlM5kVeEwjV5eocnM4Ms5JISXvxjnebshct0IG7JKWTAxf0N9jmM2w7YrTLah0wxsmiEXFmxy0q/d1Og4lyZT27RWkLRJekeVqjBgPc2c/bXspR2qatQ9zBRgMVrOa0PBmLN4+eVfdcG/SSYZTj0YioeFUgSxmEU79ClhfntKVDNYF8D5/LCz2LmhL3LDZLgKVer3JhIQV/sSlLSt8XIZlDpYLA5H3vBeZUfk/BRpvqNjY8kskh1i0/SGUFJ8pYKnH9TX2qdJa6+SRKdSU4ggyX9Z/l1JonX0DtMb4Z/WBnUQ/TpVDlpCxfJ/UTxc+MdZAOzf4anem6smvh6CqMRhlHjqhjIjH/wFFugUndQ4iyz/cobmVTahsiS0uSdbBEo0xeifn7wFumjtia/eINwUUUAcuFwNk22RE7tuxvy4ltHoKTM5McQeJBmRAQGkCTEoIZcXJIFVt2OMCzKTu3ewAIB/5WjOe6E/dnzDxmIpRQpEYVzToXa1nJ6+J9wJvw7T8hNVAVhDzvW8g5x5fouoSfnoElECfBnouKsvOrh/B+Fv0Bw4nNBwIzXzPmAW9lskNHlxAHJnR1EOOVxA1L8wQmAyuiG3ZiPhh4a3Ym0k2aS7NAvjXsdpam1YXEfDjwTtHVFG7XzGmd2hRny9oLFsyZBXgrNc1VmcmcheG05FBS8hWZACzvtYeU5rqVmH8MvOt2c5P5T5ySLi1M2+cCcwPW4fyU8B+yu1G+Ir7BWSVCKdA1z9yUs1ypBUzMpwLv5hl64Cb204G5RYpRJsW/C8yt2aSUdEOKmKjb9ia7R0lz3AHZteXIs5/N/7MLHHTS4UXzfbKkVCvC8UcC7/ZLw6tsln8VeI/aHQ2ZHsS0Zh6tXUFFXoJUBwjuMVejLDtzjvpHA++x/UWt/efAPC6+6n75scB7fJ+2iEs6SULFEqoZHt0+IZtAhxeOYjlOWNaxUHBpFcPrjyfjy6KU3RRkd+QKZAKMHcfHxHaN/9KgRmRwlKSULDKe7gPylENq9M7srb74krF+zvZw/56jeHo5F2tfOFo1OgTAuCzutezfMfRate6mhsSOUzDsUjgnclRo0CsMctA8xMhi8nZS6s8vmEBqLYNJpnW+tzNikWlUxllGFrGVN24xokKFfPsZvK49VogGuRvEFfweexuHuZ0Bb8cHdn+yF4FInkMQcC0GM3IizGVToKN18c6KON5yibhMOLGfzNosaiZnEAHtgM3ADg618XICqCsf6OT8VZ/fQmJN5yzQQFYXSHQuDchhfj4/ZdyTaDY55FQFiWKLyUUl5Bn6AUc4O35/wcQNk7IsQwK80iJzyZxMFnHHcyovJX5V1lWxPp30B7swxf3uAvbuotxfRIsZvE7Ni5m+w7Qf87IC+0qq16082F75mpcUzFIdwsgC+yxY6I2X78rHNmlGn9k4rZCvKugaSMvPKXjFodAWhq66Zp5bMI8RCpEquQM+r2CeoGplnu95S5Jb7ydYT7sPP0quNPsjZ8eX7TtKUzAriYSWI3xsW7OaljvC/9eZE2m5jBcEBwr+BrOm7xIZS9Gc1KxTYwJhWtzIYgunbcet/uUR8gdwJllYSXJX/4KCd42Mx45kvk5eWDDX7kFp257aGcZ1Sr2K9rH02GcvN49michnvDtiDyJOJ5s7CnK9IraYC7V9N6A+xBax8CN8glF3PBD7uXvRvLzg3aSgdpwD3byTKktifrjg3TKNd60xj+JvOYpRQ3fnsGxu1X7Wp+jmPscQoigbMGyHfpvWhYTRuC4Rub3JN484lAPU5fFuicnFnIH2yOwTH1w8x3rGFBN2Ow767LI8xq3ae+IaLDGCR++Ohoc78ju8bLtpxxf4l/2u4D0W7pCkMysYQJn+VxTM43Ac2/EhmwxCKtu5hNjjw6ug22Ofm4xjRup4TfaQwReNs7AMO6fmFpaYVxa8gnzxtyQ/gch1zfH+AgNnqtLP3UGyMtzbK+8fSYRsbU4K8+F51hFeMv7AfvOwQTUrCa9Hff2qUCrYvNPsoi1VGSRrC5Vk+Eu7Qj0p6a+zEUxnHz0REF0s7xD4FUVDUltDVuN0d/8yXXgrh1fCVq+GvMmAZCZPHF4dvibjSxeGvzRmCOkIIWn3CFnMjNHJITGvKniBFNelP0Er7EiupT00FikUD68GXWqn77VVJ43v/jJlpUeiu55J/9a7l6FWZDn6xBHJb9nYlDdNK5XOqwu4xH3rVAi2As1JeScQlmQHNRu1Zkn2WS/qyN+IJOeXatWS3nTqTTIZ+exnO4wiewVdrOs9+FL+DceyfeMlbzcorcjVZfrsY7Xa2IaiYJ1oNCthb6Ma1iryRT7tZC1lrx3bkMiczZXPz2bGneWnmOdnaYGf5Tw/K2mHpbG9B0WNH+bNxZrx91ADV+IU19fLGu5vCurGW/gzTDF+6HCK5Wa5W9Ab2HQO3EsJ86YCO7Z7Hm0h7+AmcI/VHokVt6BfLphV6VhGbyEv5wZkjJLo4i1JxxbOVdFamPWHR8gawQqb6+XRZPZKwP2xc1uUP3Asf6nWPtGz16z6cqGlj/mCSlV0i1whvKdbqsm0FBvNjvzVeP2A41KNye91tnQqlrNCr9nOUFY22yHq2tYKyqv5ch7xREmPTWs6dSfpheSUndTqhnBzmlYN+0euz8CvfsixV2s2z+lDkGsaofsk8rVVuGh3O1uCed1cIiyIOCtk4nl9wchvbBy4NL1wJDu3XqpkC6SezpjeETD79jocnPkiAgcfUOGJeWNh/hZxI51PWhN1xavnpEZLr59siA5J3m8szKf1VmkrcYCOfmtRD+tjMopl3kKboVj/5vSccqSOq9YpBbtO/IXnve4NjVx9tHolKuyHL2VSM2ZFy+hdhyF3X94AgBJ7LT0ipMWV+DpcrrRpFOvvMGg9FGvuja0dx8VceCWV4QuRbemH4XqIXF2Ld+QEN0cIqcWFl69BiRMD8Us5HBXgtgPoY35jbpI/Axpx+RLK8PTZk14NMV6KRG8W3+DKI5XO1vytabCplqMgVOTxmeAU9SvBWqS0FG2VWlnJ2hFXWEFpm/rp1VWb66U26oT9QGpWXnPl1GCdnL+Ndd9CdXbKfgw1e2R7Rovu4ew1tWr+mey1V7yjvU7eBenrkxzw+jkwe2Fxg5JlaRHwwj7IoG8sI3L8n1n/oRZXs3vy1NUE50P5RrhhwbabzAcCHTYF27ePbfqjbfZnDlRuPeBmevIaRn4kZOrp24JSu1Mt6+i8CCHQIVm/UdomCUruc+uFLfkLbsWtO/h3aetO/l3euot/V7bkr7atbt3Nvye2JOYi87WWPWw4udFsIgVyp7B+WLmI7GnBObMl0GvYtkiuXXgXcZ2+kbu+K//ewNLokt5Ykz9jeVNFYDdXOvx7S0VGfOtGdbOrNG4jVy613AAeUedISvpITCfJ7bKxPCqs8++jRRlU9o+J6igWmccKV49jxoXO4+/hnydUNqT1F5TW14XNJ7oXRl/Ylp6/qC0D+GK3XX2J/DF10i8tYwdJv4yJI/nyqKR/YfUrzq0Ln1+JwSd5UqQCerIM5g4B3CmDu8v9tc6nrOsf67x7vSIz89SopZb6acrC089r8lWtarljB/zVUbPb1i+Ofk21LuP5WqJgMsKvq5XWQxnX11cbLf1j7t+w3u10VC4l++yM3Lrw796lsEA76eRVyFsZhrKaSmwT5Dea3Y6ltYndYu/QmdyqgyNsVdVnsH/d4Gwt3LTP+87JriVDqYkutyfYXvOMVO8aWEGSu0qtll7K2j4ftV5qYBLIlcVS1kLmHx5E+BVnOKqNDSEQutFuuJneRGXla/yWzhbxQJurRmGprX/k9mz+ad6pud4/mnXfrTcypX08wQ3iGY7SEypV+QVBU3l4YmX+jf4vTCX2ZdLSLucvtzPxFU6uT5IUtRI+n4y3KFzcwZYqvT4F1c//6YentpvnSZ5GkhJ+OnmhrVx9VUeeR5L5ug5e17oqWSmbV6+8FZbPcc1O3pdPv5dDVe0AqySqVYDpruOkmOZzbZZSmNhiEe9ypgYr6YTbPldTjBNRuc0Nv4Wu6Sd0JXc6alUbGV9n4JrkWhK0WbXyOlEr2+v1nXYYSq/kb2C+15sWfqOMgPQmkZ8F3SwMkt4iqe3zVuUkFdZtdCHoZB8hZEkfKakjdbtIDYeK7HqpFupCPldrymzV6qX2PV1tUbdvTcmhZ3UdT1OxK9WSRW5luXusYln2Ttr3DOSuWbBlj5mbpMe6KXlchSXoYF8Q1ltbGFnp8Ys2Qr3G+GIMmV3hX8I6Ctv6B6W/tNqIYMO2+sp02d0p+qy7B4W7o9SwfTXGhsmxDyC/BpPDvVla/Fpairi/XsZH+g3p8aUtmoYW955MIUoLd1DopIU7KXTTwl0UttPCUyioqkrhbgr3SkF5vC/bAu6XzcRO3TfOt5pvkvXrljbFb5ZpDHtOVg/gEGyqVenVj/0e0vcGyaA8ivtj/WKqlzle1gOM8VXEk/kAnky+KgSOD5N943hP4HJqlsBbfcIhcUjg7Xi8IijLcaLlfvxofPfnOcz8z3NQ8CrEjsVrXUQOsIelsliPq/xVD0p++ao/xsSVtBbS6I+MOk37syLKnmYEIjUA/BLmNftJ5fzYVFw4NiXUuyfj+H/HDk7DscsXiXcqYmk67TtCa15xoQfx9tTvlL/wkp0AUT9mn4yX+lV+Vac0sDXpI8jCFbRwKWdC7iM4upe0xz/DlVxAS5i63Kx+jFm9oj6kkqn1+ymQYTp6H4XeVp/wVe5HuSl6qgn7+XoNf2/lIbTIMfBxGAgJUamf64KpcVqmgVz0fBqcZNw/TPa5rDGf4iATZhgOTKs9Cb1Z5DF6Wt6XkMOGaKXVPonb5BoKafhINP07GmVV0FIpfgYpjvr2Z97zhh2pyp/1ccYjnNewo9bT62JeSP0sdB9E90XWMhcw/p1eqSW+SbHZ0LdezCelJdnMo9J2SH65JPUrkVXfFmeUmPNWn1kQPYA6sRIQjHSkvwHQohcufCmSWccdCKnAP1A/wVsgaCVdIOo3kl92nDHezH0+RUvcOtpSA5kyfDm+wcBniUGXHyb8BzUb7xEVkAmQEJPP4s8FRps2tLZjAg1NViVuJKHFh4+j6jXLurvQwFYtj4ZEx55bNB43ptxbmecV5c7/Esbl+UXIMjjiuaw9vX4yLyxy2WCvCPtT+uk/ZF5U5M5VQR2ipvqtSvOSollOO1GoPdz5hZjgFmE5mfJ7jfvUV3bSXvUe5onpICYiSKZQUh7nlPX+Cz2Q6x1O+iWduM4W53uMGLNZbfS2q6F4L36TzaJ9Bdj9CZiedaWs3S+kj0xzJq9gddH9UMJ35i1Qe0emUEOKGVsyOuPLBS1NhDVSP4+BIGaC9BzEfqT3Qf4hesZEByyIcVUeeJzn9D6RR13HBm38lZkb9z+zngYZj89m4iazfW7J5XfEQgvdiRFSKlHzObRNYZEqH9FVwk9DrmjzGEsCyhCWUdrLXHDuxnCysiV6MWckN1vS0kvSVnqbk/xLEDdEq/4liJFqWKp08xb2TxvdD+phzE3SqiEGYWevM2mJTD3mWNt2hLRoZ9q448RoApmj+QH5/1CBrk6cPW7m6L+4SAw8PzHHRql/diNKR1qYybWFzRfToEV10CRkaPNN5kC+YIJdmf9mlQKxRfYUW8zhvMvDykkgSMJM21Iv/ZZEal5xxoGbrWgstgEl5JYNCQYHrGoW2yDWjxVs6z61aopXp2KrWbmW1CUtMg0ZtgttZb/BPJxwC6OvJyn5D6ZvHYMht5zcuqHwyWwaz3blYWTx0hVdcYFT9JYy6hviyegP/+O0A8YukTqcI3+vfzAcafQrES4S8/KiV8jRBPKyolc8SjQIJ8GJXfvNFNhwfSiFtiXu+ZPRwEKgKc+4soIdbyS95JEVQLXgpnmLalsqjIsc12JPgQ0p0CaRSluXmFcV5UdzNEwBKbZ5ZZHdXFDNT6Y4unelvqLxvF2Mvr6hkT3bm6NAhXt4+byxystLGLqgcP1q2ybmNUUvEOFoIwxXsrvP9fR2JmP8VEZgXkHXU8fZq9k4Ykv+tewc/z/wCAAAjZYLcJTVFcfP/faRF68qkBUUYqXYasgig1Vi9lsr3VhbSgud2se4mcnUgFJMgW5UaA0hAQR3obRFwXdIrNJOsYjGwU1CHToio0J3V6Qx1tZBSzaK7bQVwVpm+jv322RnOtMHM8v973n+z+PejTGO+GTMqR07zgXH3di8Ys7iRd++bXXLl5Zcdd2N826/amFi4a1yvkwUM0mmykVysTFiHGMq/CJ+vxFxxG8Cn//ed1pua2pOSNCUrhWRMhmjB//sMUH6HZmC93SccSehXCx+J/DVxqVNVVf8N6/zFXqu480dgrtj3T+p7jc0J5pWNTcur/pK8/LVVfMbm29v/L4E5f8NtlVrMRUaz0BnbCCzPbM305/pzyYzPVWZA1WZdKY3sz/Tg6Q90yOTOkSurYL5pzeIbHM+Y9PL4qalLcsbV4lcZv6H/xjyldOwMimRUpgMOeZukfnrRb5AR6UjFJ/rbJTQzb5loXjC35GLdZSQcXZAghPEN4HKrYkf2bXIWmen26DvtEvnW0W5UXkVPXY6pPOxotwJtqZqLlP5elkRLsp9BbkP+bZUUe4Ptoq0ifE7G2BXlAcK9gHkA7OL8mDwLpEqMUHk37y+KC8JtjYkrvDsJ95RlJcW7EuQb99SlJcFW9P588SUIk/tL8rLg62J7CwxZcj7horyikJ8P53rqyjKxxR4Osj9lxTlYwvycuTbry7Kx2mcT3hxMguK8vGefdCYf5u2szaRvdI38VjHiRfP+qqXXJ25fnLrx+91+sYHb/BLoJMtNGVrjUj5BLETYhraee2ydlS7p53SrmgHtFqtTKtQxspOmejOsMKmzZh1RtrZEiPrjWwwstHI3UY2Gdls5Gcsx0tGXja+I0aOYuHIDscEDXumK18mFSOL5l2KTabtB/ZeECE21rscU/T7Rc40mS4zDfH4phKf/scVN3Kp7DByoYwzF6xDNFU+JdWyAbNgRdIR05DI1tG1A44Ckc6IE4pvjyjwtWRfiNRXHok0JP4aGe4a7/rS+XFufeU8N1UzjU+ri8UstyW7y+3Nz3Fzsd+5Tm/+OjS1UScXmx4dBRrNCafnFgEOB6xqFEBNub9F6gIYZaVATEv2Stf6t2TLsC6AVM3MqJOquYesgFB8veXhS9W0u93JJ92GxGo3ntji+rqTzVD/FoK4mrq+UHwBpkORkbCyPyCmN78Ki0V9FBaxoDt5Hm5vXoP/0UiqZrBuuOvBSDrfHvGhhWqG5iyKdCenuVbQnVxI2q1QX64ZnonkYhvc4a6/kwUO8cQFbih+H4IoVg8oyyVuOv8IXzbCcpfrg4gbTj9GT3+F5ePa4F9DdzccXkTwS63jKOZ7+Ryl62nXURCK93kard1zOen6crGn8DtNup/ak2C3WtCbr0c4pOlmYDqIyySEL7mMZhMFve5x783/DfNzFCVRgl0Cs5KoV2F51JeqWQPnsQzgJ/b0DXc9akF95VMErIj6wumDECpH8CoMA2rxNhZCjD8T+H1t2UdYvE6nP2IG+12mrYD5azGcHsjFduhWvmIBpA8Tv4mW9tO88yKEfRrbtrpwuotq0rXU+WNCLuobmaYY1GoSYQT3W9Cb/wXn7ghd6wNkIvHEC/SkZKSNl1LkUaJ9caTBKW3fy9DejOYggo06z+dg0kFNezjXuTDZRbA2tPdheZeOIIn5GgTr6d6dKljKl4SN3J1cpjFmYdpI7qnE+LLuRDmzqMWinM+UEcEgq3Q5lnsi9HWBZmH7vKIkyc9hquYEtB91uQsniNzscoUmFMGoSoGYUHwGGSv0wswgBn2ur3yYgAUwqlIgJp4wUUWOAmz0eg54bgpGVQrkAd6UcDoE930uMR6ygDKPWNCQGILC/S5FSDQUb6Mres71BKkahyacVssIdb9LZz8HmVfJ9Xydr76yHyCiQTk8qpwe0OTk8zhbwGXStVHjTn3MeixI1Rwix2s6+eOAAD06jmK2Tv44s7mJ7Ic4GZa66NOiMfTkemhdo2AfnUznJ3stUVBIXV0EaDwVp8i7/MHiBavtY49vsUA3wNbXnTxJOSsY9BORcPqs98TUV9qHiP3crPdlEU/LM3TwCRSvKWV1+ZCaLyeWP8q9vZmmjSXdTntSwx4L6it/Q7VlajGAaTDakh0m7T91JT9G8x4fB6usvgqljORZtKXRXOxHukCljGaNvu4n6N8o6NIBv0O0Ln0w3iHCc7qp9OsVvQtZvvyBL89Db1jz6Jv2AWF32pOJ/9CCXOwbWAzpps9hw98g4DRcD6mgnAXZh6Aciwd1g8u58+2epjtZT7AqTntLPkv+N3m94gj3RiDUrqb06yF7kn+PBfpqtmTv1Xt0mNb8nF7ncMmo4PeQOUNlJ0gbcvmBCURZbO2zw6v1JEt2GoZxXc6TgP66eOK3sEtfg+9+QG2fptOTN2cP0w6nd9qvzKHJgnC6mtoO1tHlPGRXMr7dJPyHN+3Czw6Ce7xp6wqqRSh+XAeTh/2HcKuGONPWoDpczaInPA9YoFOwFg2JM6TTBfExU2LoZmpQPW0WBZpWLQo8zsBhJZkGcYWpBvWoe7V4VWkrudY9Fnhvcr9eqkHonaWyt5ltte7FKcBNfE7hTD4PPE4KtTigvR1khMcp8zDCP+lb0YPmA+IUFkXkTgt684s9C/2zw3O5EAUxdB00qHeSRYGm9SzgoS5KTGNYphpUqWsWPaWNV1QfEu7pf3pRWrIPu6jiHujN5zxVfWXAu/H66xJOb/MWhzCC1zE4AOgoxt/VG6MBCwCNl4tT5H0YhNN5/gpD6gFesJZsDDUvWH3lvRZ0J5+F29NawgCCwyzHKTaG0fGG0pfJtCBIjvnauTGs6UqE4xBwgXStLdVczOdxVkA+cYa73vD4KMjF/qK3bZkHGhL6A5XUWTUQazExv06SaZpgAf09xms0j6Zs0QWYicU4CJZwbq1jnbKQFAmnb7EnFLQw/jXpYziDWOf0b8IBMkBntJcKMBII/tHj5YEBbfwcAJKRzllgvTTgKNDI8jX9bazlUaUOBVZLtzwzBVbVnXykCAip6ZYWgVWpuwKRfwE=(/figma)--&gt;&quot;&gt;&lt;/span&gt;&lt;/div&gt;&lt;span style=&quot;white-space:pre-wrap;&quot;&gt;Данные о клиенте&lt;/span&gt;" style="edgeLabel;html=1;align=center;verticalAlign=middle;resizable=0;points=[];" vertex="1" connectable="0" parent="03a_yUvJn4LSFQJn4kzA-7">
          <mxGeometry x="-0.1303" y="2" relative="1" as="geometry">
            <mxPoint y="-1" as="offset" />
          </mxGeometry>
        </mxCell>
        <mxCell id="03a_yUvJn4LSFQJn4kzA-9" value="" style="endArrow=classic;html=1;rounded=0;entryX=0;entryY=0.5;entryDx=0;entryDy=0;" edge="1" parent="1" target="03a_yUvJn4LSFQJn4kzA-2">
          <mxGeometry width="50" height="50" relative="1" as="geometry">
            <mxPoint x="-210" y="550" as="sourcePoint" />
            <mxPoint x="450" y="590" as="targetPoint" />
            <Array as="points">
              <mxPoint x="-40" y="550" />
            </Array>
          </mxGeometry>
        </mxCell>
        <mxCell id="03a_yUvJn4LSFQJn4kzA-10" value="Данные о заказе" style="edgeLabel;html=1;align=center;verticalAlign=middle;resizable=0;points=[];" vertex="1" connectable="0" parent="03a_yUvJn4LSFQJn4kzA-9">
          <mxGeometry x="0.2762" y="-1" relative="1" as="geometry">
            <mxPoint as="offset" />
          </mxGeometry>
        </mxCell>
        <mxCell id="03a_yUvJn4LSFQJn4kzA-11" value="" style="endArrow=classic;html=1;rounded=0;" edge="1" parent="1" source="03a_yUvJn4LSFQJn4kzA-2">
          <mxGeometry width="50" height="50" relative="1" as="geometry">
            <mxPoint x="400" y="640" as="sourcePoint" />
            <mxPoint x="750" y="500" as="targetPoint" />
            <Array as="points">
              <mxPoint x="650" y="500" />
            </Array>
          </mxGeometry>
        </mxCell>
        <mxCell id="03a_yUvJn4LSFQJn4kzA-12" value="&lt;div&gt;&lt;span data-metadata=&quot;&lt;!--(figmeta)eyJmaWxlS2V5IjoiVm5wMlJRWm15dUtmN0JWOXY3TnROaSIsInBhc3RlSUQiOjg5OTM1OTQ0NywiZGF0YVR5cGUiOiJzY2VuZSJ9Cg==(/figmeta)--&gt;&quot;&gt;&lt;/span&gt;&lt;span data-buffer=&quot;&lt;!--(figma)ZmlnLWtpd2k8AAAAbEkAALW9C5hkSVXgH/fezHp09WPeLxje4lthZhjAd1bmrarsztfkzayeGXWSrMpbXUlnZZZ5s3qmWddFRERERERURET/iIguIqIiIiIiIiIiIqIiKiLLsqzLsq7ruqz7/50TcW/erO5h3W+/5WM6Ik6cOHHixIkTJ05E3vqQX4+TpH8h7lw+jI25+Wyz2uhFnVK7Y/hfo1kJe+WtUmMzjCh63Shs58q+YoeNCvkgqm42SjVyhahzXy0kU9RMLwqF1pLiKuVedK7a6rXDWrMkLZcbzU51475etNXs1iq9bmuzXapI+xWX7VWaDSmvpuV2uNEOoy1AJ6Jy2Ah7gFtbvXu6Yfs+gGt5YDts1QR4slLd2CA9Va5Vw0ant96m93IpEt5O53g72+y2GUconJ2JOu2wVLc1lK9xZTvia6uNTtgulTvVbQZZq8KYFQ1117XDcrPRCMsMNsdMyuH1V69Oeb1B+aGXXrVRbod1+C3VqHVtwLhRZwa+Ot1o3utNpYeGCdNyL3kjhLzS7i7TCwi+K71mQ8kbLZxvVzvSyGtMBnFrv5/EoNFbqaNjB6ne3Nasd344HgzHF9pHI8FpNBv3h+0mFaZZ0XqhYPXnC6kMAZlKs9wVvsl65VJjuxSR8zfbzW6LTLDRLtUFr7DebNbCUqPXbCHKTrXZAFjcZpDNNrklRijpcq2qZFfCWq3aiiS7ijg6jFs17UQ73OzWSu1eq1m7b1OJrNFVoxJWRGwZ3slOeK+wdIrpKgvgdHRffb0pWnum2qCzhkKZ52r5nIjq2mir1Ap756udrZ5re52bBWXw+rLMw3qtWT5H6Ybz1cqmavuN0KrLSG+qh5VqiczNW9XNrRr/SfUtEQTsYG912R7CbtdK0ult50vRVrXXoWdKj9gutauldeX/kR2XuV0zvTLyoPSoFMWttUczPF1BjylFUTViQntQbnal7rFXam1YUxWj8nEZIeGmTSXAx9ebla72+gSLv0kFpS+wpXbzPIUnRvv9w/j8cLbfiR+aWWV4VHRPt9QOqTXw6ebNQxz1pi4gv0NnMjOseYpBVqw0z4toClebwmKr1C7VahgP1ky913YSXVoE18INgS6Hjc1epYSwStr5ipRZhF0prEpho6pUT2i+WauEMqtrHZZjeH9Th3my1Q4r4QYKWOm12s1yGIkqn2KGwprUn05VvRdVHY9nMlC9W+tUWwq8pl5qdFnG1UZLJ+LarfDektXV68pb4XZbs9e3aObANzQZts2KPglnN7VqXen+5lIbuafDvMWWUlncGnXrdXjpne02mGclcJuq6yOiVhiWt3rr3XUmGcAjVRuwd9iSZrukVuT29VE8HtRZ08IOGtTrbDETm2Jv2RHadbXyXqXUPhcKad8NUlQ3kIXKOlzHiFIslJu1ZlYqqvprm6UIS6M5Xdq0qDRZOpRXbJO0uCqKiPKSPRE1Nzo9pUFpbavURq1dSa172A7t+j0V3ltGTnbkp7d0ts9E2MrMxFyjvZC5ttZFVM2o2pEurmv1h2OnvStRE/0GaNCoSpVpoTdhFYiXgSRVeWDbyAoITRVbBCzIYCA5pS9U61bMRezr2SqZpW2WkZjT5eoBG3G02x/FVvrspO2wU1bBb1RlnB76qr11rN4G4d5evOs4LlQxTG320RILiEpTaTdb86K30cRMMpPsK+u1rjDor5fK5xZBgazfsu4GS000qopyADbdFhaa1Ks1z2sGFjqWhwiNqPXKpZZoZmFeYkG1y7qDFIVoJd6dTPuz4WRMm3SfoGfmF7mS9xhu9Vw41za/Fvdl4+lMhweU0jbQ7m2Fbua9xtHBTjztjoezBLrtkgzVtKr3hrWIjAfX7LCC6Zcn42Q2nc/wMjMP3Ei9Dsmrl2Tr9OHDiT2IyvgCZAobUKz0bIuiKyj2UjSbTi7GpdHwwpgGGTHDhsLEkvGwvC7rW+Ry/xCNTMfDcFU1vMxe+nZBi1xkEIEthvd0qzW2ZwwdwILTKTFh1l0pIj6UDwOagZbyu87yfF/pPZnySq58B+XVXPlOyidy5bsor+XKT6F8Mle+m/KpcrVdzvd+2o727GQokqnjb7SBmvVwO5QReOnA/fXJZBT3x83DOFWQQrdhVypipJlskuS9qLuObda8f68uYNVXFf7WZDp81mQ8649o7ixjbm7RZZWCf7bL9r5RVQ7nrbfj6WzI0hNYs0VVrul6s9Np1sn59clREpePpslkijzYFkrYPipMud2MWGnVNnkvvC+UpYfqUfLxzrSrVomhYAvLqDjlApaepEhSrtbILdXFokqTZaYYT5vcSjZ/WlytYY7FVJzYZtVPpvXhdCqcZMtJp5/U0wymCBPJ1tYRXfYr/WTfGha/zHYMyMw13VPjYxdGodXYBGTOtkJJvWhbEr9VEQc6CB86nExnxxdTgFuEbWcXdCvGpACcIu3fSwHZ2vVr/cuTo9nmdDiwRAp2feVEP2fQt8stmLdp9WezeDqmCqxqS5cKxlqNtqcTezSbtONk+CxIZyJSdlQyGR9elvOlWWd6NN51euhXqpE4RELT4JGzrZLxotnlURzFbuzMYTtqOkPZ4YRA4pVRM6s0HFbwORpl2WGCTlhvsdPqMaCQkkGYsziT5BUbD1kv3TawIP3di3YaszFtYanvR7rKgceOif+qeYutCk53V0jXitRfR9vE1pAPtEF5cgRDU9du6eHaIXY3OUGp2xG9LORIFZXU2aNkNty7TPFhqbRKZZzQ7dCeTgJbXg87562HgJSgE9lZVMsLkONJVL0/7HWamBsV0AIApWOSq/UWfj4lqQHHSqM1SYYyuWwsgBzjprSO2Lv2RKRo56dipNl0OCmVWoCNS211XkRu+sBOqR0fgwfKmCVLt3aSV9OpwyZYB0xOdJS9blsnbp2dmTQo15rquhZw7Xupe0652G3h2IY9PV/02t1Gp6onqiVWWaUqbo4qwHK+WQ9PXnBWqvA77efYuYYDCDZBuzSlDVjqCT02LspevcnBH8eVvG/ztiKg1ZY4aOQLtgJXQ9CKtqR+/RJY+NDqNi+7Ya9UcDZJV6k7F96XNjtBcbtpj2Zr5O3gtnSCT2ZlliHlU7aLVJtO2yKHyW1pfaYz7Y/tPNsR3sZ2zCGi02P/YGMWAYFmWN7MuzbxNogtkPr2XLPRbmbniCAHSveRQg5md4xiDpJtGUutbrRlYY7Y8hyS0lqZgyyp1Tkgo3RCzuMW5iitzSEppZNzkKWEmFJARum0ZZRJBCkldmYBmNK7ZgFqSV67AMuoXqc9Oagjen0eltK8IQ+0JG/MgzKKN2HzqmW0VufnZjxLAjSlBqZQ1+ktHCKa+JpzyK1hP2FZ2xk/TQyl3F2vlqkwQjoteNVGvuiLvbL+Oi1k3WVVBcFbgBRt2wXYkjX1WXk5arXtPrGyiXqy7jLAqkPNACdsThcIK9WujrVFYOe82JSTx4BbHKAAn4p2p5PRqDKcWvMC026NfZ5dAQmr1bZtsU0zsQbxAMs2i6kP722xQVpDW4aCuFxa8ja7bE2enxBVojPyy8YbTfCbNOuXJyP8Ea8wNavGu8A//g7/BH3+KViXhcYPUfIu84/fBgT2HPAg/wT7/FNQStFsckiDXcmbZxjv0JluEGxXgrDdnxo/2JWi4GhGYG8tGD/XIKj3Z9PhQ8ZbOnjSkyh7B096Mol/8KQ7SIKDJwuwcPBkARYPnizApVZ/il2vjgcx7fwLR8OBeSDHxZrx7emDykv90VFMG+9ITyKPNP4GYm30D2LjBXv9g+HoMvheIjs+GeFsluxOh4czSoHgwvOwT5Ojg3g63N0YXjiaMhfs8e7EbdBTFICMR6BCY6vktZvFptFhf5dVsNCWyAVuh1g9LXuERNwh9SoENkQbZIB5ClheYhGaxytD/1Uh8q3L/cME7Z83YcHqadUj6aUFvxVychTWAwC9rCQeP/FYyRYBMdhNsks5+q1U7nm2OBHwLwcDfDAyyk+kQmZyMqwqi0DXphfFB5Aa7p6Phxf2ZwtIBAJlSBlKlaPEcHcBZU6Hs4ruLBtxf6YT9bdei4MpVaZ8R0tR3Gj8cisSeCCjItWBkhZdFHWJuJE41svNdqVBulLaaEv9aqWhVvBEo1uXoa1xDpBI4kk2ahHNqYpNT8sBgfQM52hJrymV9Exybdmm13Eok/T6yJZvaG9rOOZGsQikN0XnNZZ+czk6L+ktTLLAby2XNYR5W2R9vEdsEUokfaTzpm5vthvC36NEKKSPZmMV+T2m0tGj92M3aiUZx+Pqm23xKx4fobOkT+CQI/1/wQauOOkTt2z6hVu23y/q2PIX32PTL2nZ9Evl4Eb6ZbWNdSl/ebOl6Ve0O5p+Zcu2f1LrXEPk9OQadov0DlLh8852pyblu0il/JTSenub9O7S+raUn0oqfD9t29J5+jYMkX7Veu28zM9Xkwre15AK3teWzm3JOL6ufFYPpF9f3tAF9Q3llpZL5W5b8NbxMaRcxqpKWtmw9ENiisLPBukdpJukd5Ju0a30VyUV+me37HjobVP4qW01z4re4E+rY9So4sGQNs+2nvo00tbZ1tOEzj1nW09/Emn7bOtJd5FGtbN1adchWi34XbZTmZdt8apIz5MKH/fWz9UFfl+jpv7g/Y3uuQ7pN7LzCF/fRBqRfvM2Aid9oBV1BN4jFfgz2ufaUu63W1uS7rS76zLvuxHuOOmgY/mIOw09Ke0xTTJ/F7aJ0JHub9v64bYd9zO3z6m+XNxud9qkI9I7SA+iCAtuzJhUyhPSO0kPSe8i/RbSp5BOSe8mTUifSjojFTkdkT6d9FIUYfuNeZBU6D1EKvQukwq9Z5EKvX9FKvS+lVTo/WtSofdtpELv35AKvWd7UXSHEPx2r7ytHD5HMkLyOyQjNJ8rGSH6nZIRqs+TjJD9LskI3edLRgh/t2SE8gvIKKvfIxmh/ELJCOXvlYxQfpFkhPL3SUYov1gyQvn7JSOUXyIZofwDkhHKLyWjPP+gZITyyyQjlH9IMkL5hyUjlH9EMkL55ZIRyj8qGaH8CskI5R+TjFB+JZk7hfKPS0Yov0oyQvknJCOUf1IyQvn/k4xQfrVkhPJPSUYov0YyQvmnJSOUX0vmLqH8M5IRyq+TjFD+WckI5Z+TjFD+t5IRyq+XjFD+eckI5TdIRij/gmSE8hvJPEUo/6JkhPKbJCOUf0kyQvmXJSOUf0UyQvnNkhHKvyoZofwWyQjlX5OMUH4rmbuF8q9LRii/TTJC+TckI5TfLhmh/JuSEcrvkIxQ/i3JCOV3SkYo/7ZkhPK7yDxVKP+OZITyuyUjlH9XMkL5PZIRyr8nGaH8XskI5d+XjFB+n2SE8h9IRii/n8zThPIfSkYof0AyQvmPJCOUPygZofzHkhHKH5KMUP4TyQjlD0tGKP+pZITyn5FRE/XnkhHKH5GMUP4LyQjlj0pGKP+lZITyX0lGKP+1ZITyxyQjlP9GMkL5497xKBUu2ozt2txlvNRV88WZrfcPD8VZ8vy96eRA3LvZhH/99dFkx3jezuVZnJjAs+Ex4wdclO5LeSyeHX7coD/rK+6yCbaHg3hifD/FSe7sTkeC1OonsziaHE13IeEnU7w7HBRxB6e7DQnl0CEgDuVl8V5Lg2cSNTHeykwYx6dM9vuDyYMJWX8ft4WYwz4+Jl7rIJ71hyNyhZjxJuKI4L1eIiYRExsjvzSLDzSqaquWLw13OBjDxiqHTpGL7dY9AjD+if+3Xe7inU0RBvnVnanQHNMzpRPKjPFv1km6xlg33jzD+BPxZmdyOgguDZPhDoLzTIHE3VGdNsWEU0Bi9rwlaI+Tvcn0wDzTLA91xl7gmRXNdfZx1cfCOqDV/hggJ56qVAnkGgvBvcT7ZWqXzbWU89cx15kTFrI/ORoNysJfvT8GAD83TSccnWgMm2uJNCFzck9lq5huSl/smVOHMtINrcISm9PxweSZwzI9tIiTI+Nl78wlVaQXeuY6YtoXhmOOV9Lz+eFgtg9n1y9At6wnu2xu2JWecJbl6HOjCkUK+97N4hTXmbcKymr84sX4sjk03h7Q2nCcEmCmBVIZXojhNODUQsm60t9qClJwPnORCxBK0B7aMftB/6Fh0ulfgAlPsg2RIHqfrjQNs9vOr9/d78vxIp4mYHhZSTuqVmT4fiL55qV4SpA37vSZa/M23wtGGvnVQOAOGsAd1QjuE7YPr3hhdPlwP2Hf8JYG2T1Twq7hLe9wPr34LUcTWciv9bxrLJltGAAFjlf2GEwmnZd53upefzTaIca3QUViDr0T+yjllM4urk8egsorPW+NErnXBt7JWRYu5vg8dafFojnl4PEgk+/p0eSC3DEoSmdSTsfe3NtL4hmWyKx6Zw6GaTwxa3ftASXo295f5XnXDTimXYoHNWXidYF3fcUC5nI+aYfppOUtSMufS4vlvCAtFtaCtIp78JIXztKVslh2I4XGggRWHDwngdV/gQROHB/t2sAOrqb8M9qTWzkejF/YIRY7SMyAw7e1t+6kHuyneBwgioQoM8IsgnmjZM40IQzsSpoPhiygEaQwOAe27TmWzrIprjtxGn8FG2hPpUj5QV2gLCSpu49MIJls9AUplZJdSFFaxmROpnEtd8eJhdwbTpNZJhfpC4by5aVNmTw63p0cHPQZwrrdfeZhiR1jVxCDZgwygaoF9H8l8f7gkrPNS1faoWUFqZGJ4pn5+wJx20xd2MimhG+QoIcE0+5k33T6g1m45C7V1jFDSFHB9f6UaXOyzzNq40OqZ9JSCo149uAEdDdCxHXAfDyLQBX/ZOO80lLIxs7tEFLyRBUS84DnRZcPdiYjRz7RAv2y39t8SiQRAj5BHNlGIniPNxAWWxGTmZJFT9Vn8H10AwqHwHA1CRQgvc14LJsfEnJ9TfKUvaMk3kALNsUpYRyXxxqq8XAkhnt7zfHochuhX+qPFDuoWM2vHhwczWR0ujdZuv4iXQrOnvmlJIln1QFcMn50bToE582e57mKENBlCPSlKAqNHdZ8dYCD6tq34z1QLtralDhLSytB9JdFsjL6vkAE/S20ZS3NGNzk6LA6wLc1gc4Q+bezhqykKbzDw2OQ7YMhUXynZ5bSYqTU3+0RRc2T8tM1vdhd5Kg/XHXa4cPUb7tOUYT/DUYTEYiwq4P/HWbEACoPh4QjcUR3g4er7+zHB5+Hm40RmtfBqBl8SkLfeLomrK9rJM6LsFR4ORBwCjKTPMTe6y3M4ByvNcVFMP7STArbGQYO8nwoOhf+jH3FyTphKj0sYwdQWRyOen98xIZ5OYpHLNqYdW4Kw2R9Mh043+cqCMXkaEeinztsWdK5G+DSnLdF7f0Q2rtQF1IhOjyTMkzKGDVvx/QBeI6wc7LCRAWgHxPKxdD5q3v43uesXidaiYjwvy/Z8W/18d2JyIr8W/1srSccE9kc3WmgOBri004vi0HoTCI3FtAEwFHeW8I4H07G8ditr+Wj8d5Irqvl1jFPcmWYdNMqlcyqZbuctq/3OTqkVnE3hVqq3uHRzmiY7ENMOhZ2O5NO3D+ozdmTTvzjnQRVjkVi91O1jmYy7LmtElLNvehBOMX6OGQxcfjlCywsWqGr092+419EmY2jP4pyM5I2saTtSyfjn5qJ/t8gnKBbekJQ54HtIJiylR7JcaIwPyoUSbKjwlJyOI37AzCWk/3Jg8iaQ856jAQHYrtBX7E0ttmx8KJXtRNXOGEbu9LaQy5z8rLLnOrI8UP34Op4Tw6Cyuq28QZHdkegXx8FnU2kohJfGu6mLy7SOxuJrenzEK9MtFPjv77CuMaR6D1lNgVp2E5PHGw7rnG5fL6n52nvWCf4SFLgWIzOu62TsSC16oCpHO4N8QZQelpZmp9gDTcRP05ky7kVHSFgVrLre8PNXXrN50k+q/GllF72Bdw1MY4Us+CKGXLRAVL8JftMktyyY2AdT/wC24D4ZSwFdmO4oZds1HJDzs2ZvcCWS0T32Mq7goAdQ9aSuGm10kufAl6JXkJH8ZVEQX1/JwMrlb9DlHNQWdREdLHR5ySsMlQsU2yUtgnb6w2H4R6zbd8yetF5vSvwJe1xnaIIgbvQ1DcEhZDjtUQwoMx0itUCI31ZCoKJ2pt690F8uQXZXuvO3vZdAHzbMuI8jmXAwJ9Ijvb2uPrCYgzFmVPWWJS7OP0zcURmBCRNkFy6IHZGD2/MP8VqRdfNP7KKKDWPZuLAiuGnHhPHdOAoitNCeRmMjQkRjkgffWG3LiaAV3B4SjvJZHQ0i53bh5HbzY/q7z1zwrG8vem6NH51o9cIQ3cJWaqdL90XkfFqeqyR5z+pKbibTZIzp/Gx4dmqD8ZHBxH2golIDK6/sxFEKhILjWQZ4PVeOMIqTl1pWfliHlcOxVhOx+ZpZjVHyS30E5aaK60ltlZoONDJOVUHObXJfoIa6UkZVj1Lgj7TnT5oYRlBeBBbxLTpY/sVg5Vb8PJxsGQXVoc5kmxHRCCXblal5e0dCTd07eY5gfju2XoQbmzYR3QF7iGabckV3WOpJewge47Sy+2Uti9r51MHwm2P6eYqCMw0YxXNgftEIK5Jwoym1oOyL5Ntq9zFM4aX5YLAAajmywwzhHvDSu/8VsiK3qrWKr3mRs9WcyXYS385wAhZ7fe5Gmnol6a7GRec6BBiaXwBKRLNYgfIFf3hGB+9rYaeYmA3nRrnRNoeTYdw6A2GyeGof1kXw5p451pU3Yf/1uiIAIzr7VALSJJmeO5EPGhw0Q60pXXteNTnKLxvGxQOFWgbHMQ28kYTN9Vkca8qOEvWVyrUj0azofQeTzeG8WiwbaeCCdplQSF7lMHL38j75QkDlFNLvS9hOWNWUv1wD5TEYJP4zioH1giTK6R2uJhZ6CVp01t4TLCcdRCOB4dyXEQMscvKRgob+K6H6eTvcM1uOXmJb4KsMRlsxaglrRhNDt2uaJqBYnFF8hE5qcePrlYqNX3she1UXeY6LAXZ90HpkyvbtD60zNFNAlCo/LCfX4UZNmqACUOLEUtYW2+etxaIBVVyomFrbttfxsxb2WXoZ5uXXpejquS80njs9lUsHgGJ2WWLfatbrELbLlaPm059meFnLxIDrvl6KbgghayqWC/dm1Wxb947r1q2JLPalTKXtWG7x01btSuLZTUzByfEQCBG+5xgTUtccm/SUX7KT26Q622U6lV9pXdKi+4m+LQWzqedn2GhhnNerqmFHTSpJ2/iWMFArmXS2KnngOssoFWquAeW11uAe692gy0pV27zu7EpjfU++aZys95CvRV+s7KSjuaWK0VvfG8m0n8Vsz+vRS1G/Z1YgkfeocWUY8dPEgqYI9XjvoS7JRIkOh6JQTcFu5JMtoI8t6b8dCUFV6VAAEfNvifXDkKOvD+buFyQQrWT1/imMJtE/QNbZDdWA9ZU5RXbMiNIgBIvsTOm4I3hQ1gPtjRLM9LwgW4x+Nor7oBQn1yKnas6GQ3OqckimoE938hstZ/D3RoSVZ5erhLhp0miFxpCvaojseXysQMCHmg8EokqoxrFu4gNHNtm9Lc372pEnbO4Ejm72NVwXuH8cHAhZith/WLsfOJA2pYuw8GQyJ0MoDAbYkpn/YPDajJ52t3cu0Ia32MKolBmUIIcD0oSKg928eTTQkEq0iVcrITyS0bmzZzfqnbC9WapLUvd00dvsnT8Srjdk0fdTf1BYRCBJfACG+FFSyQo1Vpbcnct785kNZDz9Jcm7hdmLhDgsBtoL0ATofyYsPQlqP6uJi35EXYGFYrQJHateaP1LnskqSfLgKVmDdMCtpNQogXzFjRfxNE9HCCC7nj4UCcVHcLwOW9xmD2U1gguyERYaCB1YodjNiv/pXo+lhmQ1Eb+n3K4309is2R8zVjg3Yf4CekTqpEJckWL8NSZyOAECk5qQU8bWxUoSmpBTx8mLXvWFTVmBbzeW+Tzbf5orqY63tf55tl5oNNd83O+9yNud/4NdUlKEmGRuMYve+Z/WZ+H7WvZPNllLQfxMIkmezO3LUdSBRtv8LjsmIytKB1rvwBsYzgapTg/Rtn6xCnkJ4A0L9nDraSyQaV1/2g56CAN+OdGXIuVhcH+RuqNkf9ZD5lcxRV7rs9Cz1XN/brn+NyGy7QS2MQp2s5IfV9wzGN7uz95Jifa6IjVi0JNY7V76oMI/T9lK71Un0zGoyH3SKPLab8fwb/aJ3CJDXJSQJ4PcFPgwDlhaMVPphWZHBT80ynYnQ2yitdmFRoSmFf8TFohx4M5+HUpOMcPJxXLBvW/6iUKHAAUFAJc5r12GhRmEdOa38/VCMMCe18OZpkS6B/koMKRwN6fO0e2+hi0xLzU837TuyqH6xkqXL4DpYlYwTYkajzz17CdFlt2zyISgfvZlMgbm1fg/V2qAergzlXgw555FtQUuriu/hW5rEE+UPWt+Yq5znybBWdGP6eBf+aZH3YRtkX1fbF3lEajoJ7v5NXcSbKFdB+m+uNpwAsxiYH4kNtyanaVn9NF/T2BQ9K5/xM5QFnWbPWHEWP5Dkb6pymxOHOo1+DZXq2WFxt9bk5FJF2J9xLznMB7AQ54Dox8E/M53/se341apPB6z3zLvGhticwPO7YTpsCxX96/5nYL05LGxNpxwvExHMvEyDHgBWkIjYiNbagD/L5F1jBmXCuJg5GYZwfeCwnzEA8tTeP1ox1H6BeywFok0TnzEc/7R28BRMDuo573T2rbU5dhkhbsEA7TBjXZ3k3R/KZ/MN/S3uybf9bL5Igh4ITcmOZt4yq7QP/CtH+4LxsBvtCquekYyCKezaDpm9ZVc/NxmEU9N2MtlkYMPvc7sC8yj7kK2DboZDXbrBy5pTJfYh57BdAidwVeZlczN5nHpXlbtS3F3LXYLebxixCLdh5/Jr0JHJsvmpds9TeJhBrsd1zMf3Gat1XfrORESV7umS9JC7buAadJHQc1r/DMv1PJE3cY9seEjw4OJuOaxKRwPCX28m8WavGoHpod9Tn8zjGezSrMUCpDlm4s42CF5bG+PY9lN1eRVx7lOXkUrJI8WQD8HXlwhCvCErw/nk6oem6+qnFkXyPbl9BT851XqXQ6YGZE3a+s5bpM3SBzyXxXvrosL5UfMs/Pw7J971nmuz02ecxYSnxsfspiZnbiPWD0GY+9tr3NvMMXx4hyi2M+8lRCnvnDFFxDPpT/iGPwQzWmXmJSf8n2qdyx5pxf9leLIPVj3uqbv/Fllrps2TWNfqV8LJvf86SGDXI03GUTPlb7wmA2uUDIY9AcNzsbOLzIEcPleb/vpRXcOS7UvM/L7szNOwPzl56YEqH27sB8cK5YAkow795zlbX14WA47/aHFNaxl/8C+hrO2riEW/1Bu1PrUIcoXu3Hxy+XvytI7BWPe6izhWYg6+fn3v0suazV/q/iyuCi2rRlm7Pgr54/GVpxWVvxNbTMrgJWs4Kt/NoE+0TIYU1SC/p6gqPZe6KTWcFWfsMA9jCI6MnYrHqnckWLUDrgPABv10hqQRXJVpOmDaRSd90CwCJtCEzN6C/75tdz/kLTjoVhXX8F0DbdxOZwMMwiWzfkyxZlK1Fvxj3lWTW35csWpWFBagbNY8ztuaJFuMdCWEXmceZRWcFWtm1Zf/T7BPPoeclWR3u4OHPP54nzoq2/3zawIMH4wjzA4nxjrD5WYv7K877U5W1Nby6Ysgvl3nEMZBH3pN/NeHIQyz3iP3venXmAxblge06BgnXXIsji7cs7CNY5ajk5rMV7mNW51BHx93t5hLYI+hjGS+YY65PZbHJwFSo/cBznaoReOkea1wxlSz1E2VnK6NwPHsfpTPAlqJ2jvEyDIDjdrN6ETYJRI35daT8kR4fSzrGA/nP8nYl4NYxvSz0UYD/uYJbbDPwqB5YhZsCfcEAdUwb9SQdlcjkvoOiyZF7jgHRllZZh/7SD2a4y8GsdWLrKgD/jgNpVBn2dg0Y6vxaM/c0L5Wf9fbY460JkMpmZR5lHXg1uVaOVyG9FxciYdcMe4Aq28plalnGxQ8DDxXzZoowU1OoPZK8B5SBftih0CKjMTGB6dJGaDfOQAs8e2d/ebpnLWra1FfN+T4tbGduOIB38oa3CmKv3M6/4gK0gFIM/eNb8kS1aF4byB225xXaInxANnyWtzpq/XQBr/1WCRwksfcJW5Rm3VRXz71zV/nA0cE03pxP5bdgnbY1jS6cQ6L9fgFolAPwpC1YySj+KR3sI59MWnm74NDE1870c1gC2cWenSXy/TP1DTPr3WbD+GLhhfsuWHM9upujpnf7BcMygY/Pugvlt2eTTwrsWWigX6AhHm5lpmT/hYj4ao9ub/QPWUn8qC+zDPgrkrpHluK1e/vfIgrQ3upHcbWQVL5xXrNPPhbmdw/R9rzcnpb7ExzzzIzlYh1ZcT788B6rMb6p/1CNayfgU6148yzlWC28hnl6KI73Ggelf4hRCSFJ9F8VvE02Zg+Q3zWvmV+a8EhSUa+lPeubNHoslvdXtUGU65tdyXUlsanIks/zWPGa9T4H/1Cb9ukchrcmN4G0SJOIeSMvsskztqC93lW/PdRDpc94IJZuV9AmwGJk/mLNanZNOzJsC72PzKp0KJKSRSfO2wPx3z17tqCv+Qt97rytL6BNvyN7/vMj3/jyVjQQXoGFe6pvPzmEhB34g/2UOqTFSjQuYV/jcl2Zwbc3Wyz78X+dQ2lvYP8xhZbSOyVJWE/My3/uf8zpxybILkpf75n/lqhimeaVv/qvfz6LYCc6b95/9A9QDt1EcxART6z07IBZw7BtQJ81/9hTaRV+csVg1/4150WPLVd61vcljn33Y6m0WJxyYF/vmA/6YRXDstd0bPfMZmB/EXJfuXqyxyR3hX5pXBOY7/BE+LYp7aRg/qLjvCxCDMudcVTxgj+E7F7yMwGRo2W70o1wvD+JJCxXaYanh8xNLTCRsquTeG5h/m7alm4SYoiy5fyiYz/oPagBbHvtx6EeIsXmPb74/By7bT4oscz9mgRUrgehoZzaN0y+OvNs3P+Dqy/1dTk0lCCbMknmDj8LYmur48GiW3ay+ODA/5ipkm+cekYX4SgfZmlzCiqlavYtQI9bovMIjbP9FkTuj/ilEJAsEMTg2uPC3aNoclE86cvV41h+IKF4SmOc5WHhJZGheFHjf5SAtPAt2l8v1eHxkDf7LA++7XaUyL9rTYA5Vg344MN8fqBK0Jw+mJjshxmje5CsYY3d0MF6o+SVbQwOrcjiKPs60Ai36ednGFPwrBCvdAseeyfmDid8b6ksImaX/ckV9iyXHaeuQM2OK9Pc+ASv3Mu99HuNPBDE6jLHt08ZENGvNfGegD9Qw2+/1zP/wFaUjEKXyfs/8zxyMsBd7qnmepdSJDw6JiEkM0l2VfHcwGEoU5ABukHB1wF7wH7jlkANgezKZUfyUK6aiodWnucfWVjWtkTcGyvM/+Obv0ipHUPe/f/TNf0rhtkmrf5Rgc//JN59BXVosrspQloXoweesqDjkh+Ojgw2MB8ppXhmY/2HtMxUy1LTiVYH5dgJobIzo/QnNWI/m6/r63ZYxax6qp+clW70uq89udGEWHTtzBdAil2MNHjOnupib9q3KtVdCLXqYYFCr2L6pPv3FVt2yCLFotYMh46kNSUC5lcSVbHV9hgZ30JmLbA4gPCJftijNHVbjwiePnmiecBxmUe9llaFweecSp/MLroRa9PsIOQy4CtBPA9Gf+QrzZcdAFvEZVggRoQ5gCZuF9+WLIIuH3hET00lIxKv5KvMVixCLtjNSBZFAd2L+yfO+Mle2GLv2UbfoADF586R50dYP9lAzND+5SNBJ55CpSq4AWmTMovY92WAOPMNGlBUtwiU7lnWkbvUibQ/2gxLMZFF+zvNe4CE51U3RAupe5CXq1cy/qHC/+XH2FDkpRQcsrX1Ew6S+yuERQkmIX+yY13i2x44IJ4m2NyUDwZ93iEwU87RLiDfSLeCb2K125zC4h8gvch3Kxa36rNN4nC6uNfZFSyWz7M/zzVu8vnvy8nzf/Fa6a9rgsIBrOgPbbs8smnd6Y9oSn6Oo6/6znvltDf2Ojr3z+5Rn3pVWiPMixi9FgMvfSevm0q2KFBmJIHzaM+++EqM0f033Gc/8riKgHGrQHjB/rLLo4+dMuW8SObpLNDmPlcb4tDIBskN/xLrvZWjSJXKT+Thr/mJOQG6shMLDEPiodzG+TODuwgUk+46AKMKlCd5oKFtVa39KZBd5/40nnMrmSlBnfz3em0zxWokLygAf8P6Du9mo4VQk5gW+9x+9GdMtcT6RvHl1YP4TEwKj+03uPVinMIofM8EuEvQkDyPfiU+SzObHiOcTE9uJB0rgPQGOIiHM/XqMAVbQawr4PSgF8yyzDHtOk9iBftBPhuwRnPbS+4NWfxyPZLiv8Pu7jETjZludek2Wx3sK5vW+BPLaWBzz3oL5+RxSzb2EeIN/SVCAaPdvLZg3ZpAyVufogJGJK37IBZj5xaxOTrjrlyMcAmo+6BPBTGsERmVi3lbw3pyHsim+2zO/moHaMQEGdFmV8XUFYqNpjbCit1yJeXvB/FoG7zDL4wamAsY/mkGj3ckhmO8seH/NVsOWfBkVeYgzlvmEr+8cIr1AYtGb53I37Z5Gvsk33xvsoGNMy3ZKCSYHwuR/94/VAH5pkR2ReyXWp7UZ4UNsLAOpZQK+PZhiNlL0c6j7GrdHYpMne3sRM3iUiKQ+UTD/3ocF2qVLTcAf983vOHDqYAn4Uz7u4MGQnVkQLRXzvoL5XfjIXVTT/Xt8NIgNHWf0jb75PeTA6RAvbA9nwnywYP6YK3/RU7RJVZrxvMMzH/J3xQa1bZh7bgw/XDB/hhIq1DoJa+bP/cFkl4g7gfU87Q8VzF9Am/shJiH//CNB+byPWW+nBNlL1ufhGs8K5+OqmqXZbDrcIcqEn1Ywf6uj0PnUoXyyYP4j7vYBXlj2MY9vw5FJQe7jHc/2zH9DIugTd2QJPTGPhiuIYBDv9Y9Gs4UKRv4Aruo0D+P/uhdyGY4zjW8UCddMmP1Ng4gAMyRy/oFgx9lm9r+CeWnQviod358NZ0hnzWAfsOnZtai/DeH58cIP+uywhxSh7R0w+n5tIp/DMT6nIu0xqAtUJAgBsyqPgA3/a5W6kTwN8TrNTXlPIvBeCvTr9iNnQbfhcgWHJsVeBi3qR7o3mu3z9v3LkpbXS+VzDrCsAH1NuII7jfOu5wF7nPCX0ACiR0O8K4KSnpeoGZ4D8j/rRagbGTZyYmQFYFGuiYUWh0nTNrPlJdtvxe17C2clH03AnHHul7cc7A26W5D1c88pZSHNf2TyXt/zFitDai5D6qKq5fxxZ7qWK24xzmm8HxrHakOqIBKMsT/27QT8XMrhiGXNLJbF+IBvgu0FiHl8vRrJAyHkbY6/5vPk68ebbfmG+PxRnT8HVhsV+zwuSN8Fpo/zCvZp3bxV0QLcU7z02b58iDsHtW/elheB6Xu3lUVw9jBudbsaVddrolz2zWGl1JE3UmvpI8WT2ZPBU9kXn6UrZaJ3fMynF3G09yuQzsyRLB9Xp3XNFWhXJ3fterNdASAdZiK8zgFdywx+vYNrjxn0Bge1HWTgG/UbfY1OTz7UFLY71VD6u8mKstzsylvc3CzdXK/OX4XeIk8/08KtUpMJ8japykqP0MeR2RvOR2oxfSt5u5aUjU612ZDuHzV/ZPlorXXvPR9TO/6i83HyyG3e0RNS3ZXdPnMF5qvkQ7lVkkcJqWepZIsBKMuXTTdbL4IN6AHjl8nZ7ZyGOdp/Bu2FupAKIcqqnuHFHZh3FYSeW8odoUqkgJ2LuEB+452T/CgkHxYvBEnIDwdwNX/yfAVp8flAz5H92BVkHU4IwpxkAhAz6ZfUB2i5DkDLkfoEpK6oD6mckzl0FcKZRa3O4gP1d4zvHhma9Zr9kr0jlnc45p19OussVx9SOe9MgIQU0p5SPPaFcV9dNPsI95NgcLzGhjeYMZ3XYEbAlwM3W/xnfFO4RPBEC5/1TfHgKGFjl9Lf+2bJku5k6L43k3wtHl/gigIbaxG2Uwo+bv4Mx5WNYF5bz0iyYUxwaSrCXAJTsw7U6gmofiUfAcmCJiI1+wSzYz/F5zm8fATFS3/esSB/h2gJupCKkIOIuU9XPiqce9XTjveMXxwjI7sZwD7+C7yyDp41OdgZxhs4I+I2NKx4g91880bW8J8Raf63BcXy1fFMYW6sTd5Ye/Ibpna1wn7Si/RvJ/RgA+arja2wXcW6VGs1a1NsRbDQw/x5kvEL6RDcYnxuoLvgthbYEoNRfKG/e9nt7p14/sKlsECzIsJZtUIe2+ETiELW/ZGlBeHjLxsLhzpHrnlV2hZnMqnPC8xSXkDLh1N5NceBS2kl5vmBWclzubrAiwX7gURybB7bNYN1W3i5Z3/uY0so+0LjjjAgv5DTz3mp2Em89PdpiJjtoFEOe/KjMQCLrVvHGEWfWa5yTNHimucN3clQfnzpoC8IPL+aAy8SgcZMeHphYOTIjNw+D3JHMI0vr5BZFuptGPjFp5QPzAu/nnXXQjln42jYD7a6L78a/fEeqSfD7oUVVMn+jsMvddgEt8IKWgWKfMc2/ZMnUo1H02WLlJ6yP4UicPdoXAPK684vB9t9w5cl222US52QrH1nLRsYBd82mxushV/32Pw2YQTUSEEubt2wehec15JMB9G5LMRtRbNcKsvGSicmCsU36+i0zue3wtbvxBEosBeFNRwTrXVeOrkirIqknPeb74wLTo5pk6mEHNBzHy9bM7A+QyPxbMm6IapkOqimrHrLoY8TsRmK29PATXQfcTftajn74yduCvN9ygBZf4cO5CSR728IhnbwUhbicFf5KVjOuIkKvGKibMeDpsKoZQl27AMl1s/yPnoGcAUTx0bJnfbkgO2S6fRk9eE9LNz1mGs697XCqNyu6tf2TLklE+65j9D55UjMa3C2tF3KcAoSFiEtno10fpbUa75HQMut+zpbClzZFPO8Gin4RHS+qo7x2rmmPPAnd7LdjQRyar2kn1M8zbFLPu6scjtTldMHQcYwFxnHmNqX+2llBY1LK9nNSNQalwjdyUenH/atLxN96IDIyZpTWfG+TG+NEJMQxuCOyKK1UNs5IlJhr+heg9kdslfhLYn00/ec8vuLuHFEPGpKqbA+b2AK6sFa5eg25gUvO2awlfVq9quHgeVhbE86/okRWSXzcxiVRA6LWN+iOXEVFtiQJTiTxR440DPA1wdmdbAIegN6tQgSiWJk3hiYwmDy4JjNFocw66yIDibIIh7vXp5Dl0Q8iHk6a9qQbtEsy0v+aaL8N/dq1KNzK5X5jiQVdmDeIgPCkye1OlZTVGVAHMaJKxWPlwkwhfjqg93TbapxCrbCEtXkCtHVpGHSL6+bmn4c0WvrN0bxMBbRfFttbDWeSr7aSQvrXrcfTAfFhPdm+fnPyQUzjfL6xaHsmx6zReNfRo1sRWLeGniLv2BMmFgcW/lY1gHIzoAi4GJGOVQq/vJw3kMHsOkY9q0MtHDtj9pmFblb/4CtqjOP7uJCXhHcLRJ0RwOkgXh5OGG0WzqQaMoW9weAKC9nvG27w0dHXVVWGwN/Jxv7GONjV+ho2E/MmznGlydjwlTQ7Y9KyphsxH2XQy4EIhyCOA/zjwGUFMX4t885a0Cd1YqE57AOqGYbpzmD5AfOhTwbvuLcawpzHBmQHWNu4JFe6x579yA/6paLf+qVTFt+Ep1C7CuOFYnyjK56LbB65fXCiXmHuAvJwqORNcvvBpfvUm9WvZMsqWnfIrhFuGNOzVTs6SSoSE4vwrbF4pmfK5gzOodOmO/0zTWQc9236X1mQ2wpx1wEYjXH3emoOm7ED3IWA3TdImnz5sBcvwjSBc/s3aCdRReHh52JiBj53piB1i+XDvSosWpuQoR2zlGBgndzVpzryFsC75ZjrFop5Hi99RhCNdX+S3HmCEq8/7ZFbiMw9Qz9iEV4dpJ+5CIc/HPq692eKWcEhgQvW/pAhEiW2+OPxS8PU15xhNwCrMT6zscUz4X3pb+kY88418DNmbsZYpm8e9eb9/bwHMn7regukoBNtoPvQUiEUgGuHFWW1MX4smz9iSl6LA+Fur7ejiHagmn7htn3j/Q3hPpbBgbr15ESPFpjSlf5v+HSbN3Xq3TF7KWeoUUWsySNvQNbjgddNLk6gK6fgdYvZ8Bgj/D3ORViIbEdvSvg+JqiWsQqsjwjVsdBUwIWvhyy9dqrIP+UG0My3e1qLgshB7P0sbStKDwoDxvQueK+DYlj1mIh1EEi1C9n+FV5eO1eWK/ssW7RyjxMHLpLrBa5ezzBrfGFIeoqWx7lNQSfm/iT2sO2NeoqgFNojHsW4wdHOiqgcv5GiyIXlxUQZxQQ52MHFNSYN2xF9k7HXznSsXnpoMXZSVkjjp9npXDV8RWvMr6lRczzTm7HBZRKcWUbduROETdqtz++1E/k2i52D2DZjQ65th05tlmEvpYrsSxYDXLbRptWCwt1+TtC7KC7Nlj9Zcaz9Uq0Ntnt63h2jJ8DR+ynrHb7/brBcYqW0pY+VmpjWGm+zPGeO5CLBCHAIWZwqOsXqtEx26JPqaDi7pgz0+t3mHiWFq75JRaUXEXor5DIuX69/cmMW46ZK/oJ50KXT21A1tjOZnFiSw7r8xFgnq0BqqambjJ2dQXXbB3Df8gxd1YdyK+Uilmf0dyilbSh7V1/d4yPvYG/iS52JocHE7y+XS4ORCPhB1uXs4bAULhFmFJC9abukjKFi0XF7eaodhUmpPL/hhFIWYtyjBmhCz7sLMLBB4zZL2yzVCaReGBl7hwvWPb9okVv2OZ0N0xazAqsiPZmhUgUHEiAfknERPY5YmJeoa9jkYfZ6l4kso7RsWIotmAQD1rp3NnuVMNsR0m2/gmtsWISyCIqYRC8nX4iHoJIoSLYTluI6xKq6GQ7YObAYsLnl1SmHRKe0nsuD4nqQUIGskNkzA4eUz7B69HOPo6LPo4fzAr+FTpVEZ0KyKXaBwTdGyZbFrM6bsQPHhsCSjjImPuEhJPSkMlM5kVeEwjV5eocnM4Ms5JISXvxjnebshct0IG7JKWTAxf0N9jmM2w7YrTLah0wxsmiEXFmxy0q/d1Og4lyZT27RWkLRJekeVqjBgPc2c/bXspR2qatQ9zBRgMVrOa0PBmLN4+eVfdcG/SSYZTj0YioeFUgSxmEU79ClhfntKVDNYF8D5/LCz2LmhL3LDZLgKVer3JhIQV/sSlLSt8XIZlDpYLA5H3vBeZUfk/BRpvqNjY8kskh1i0/SGUFJ8pYKnH9TX2qdJa6+SRKdSU4ggyX9Z/l1JonX0DtMb4Z/WBnUQ/TpVDlpCxfJ/UTxc+MdZAOzf4anem6smvh6CqMRhlHjqhjIjH/wFFugUndQ4iyz/cobmVTahsiS0uSdbBEo0xeifn7wFumjtia/eINwUUUAcuFwNk22RE7tuxvy4ltHoKTM5McQeJBmRAQGkCTEoIZcXJIFVt2OMCzKTu3ewAIB/5WjOe6E/dnzDxmIpRQpEYVzToXa1nJ6+J9wJvw7T8hNVAVhDzvW8g5x5fouoSfnoElECfBnouKsvOrh/B+Fv0Bw4nNBwIzXzPmAW9lskNHlxAHJnR1EOOVxA1L8wQmAyuiG3ZiPhh4a3Ym0k2aS7NAvjXsdpam1YXEfDjwTtHVFG7XzGmd2hRny9oLFsyZBXgrNc1VmcmcheG05FBS8hWZACzvtYeU5rqVmH8MvOt2c5P5T5ySLi1M2+cCcwPW4fyU8B+yu1G+Ir7BWSVCKdA1z9yUs1ypBUzMpwLv5hl64Cb204G5RYpRJsW/C8yt2aSUdEOKmKjb9ia7R0lz3AHZteXIs5/N/7MLHHTS4UXzfbKkVCvC8UcC7/ZLw6tsln8VeI/aHQ2ZHsS0Zh6tXUFFXoJUBwjuMVejLDtzjvpHA++x/UWt/efAPC6+6n75scB7fJ+2iEs6SULFEqoZHt0+IZtAhxeOYjlOWNaxUHBpFcPrjyfjy6KU3RRkd+QKZAKMHcfHxHaN/9KgRmRwlKSULDKe7gPylENq9M7srb74krF+zvZw/56jeHo5F2tfOFo1OgTAuCzutezfMfRate6mhsSOUzDsUjgnclRo0CsMctA8xMhi8nZS6s8vmEBqLYNJpnW+tzNikWlUxllGFrGVN24xokKFfPsZvK49VogGuRvEFfweexuHuZ0Bb8cHdn+yF4FInkMQcC0GM3IizGVToKN18c6KON5yibhMOLGfzNosaiZnEAHtgM3ADg618XICqCsf6OT8VZ/fQmJN5yzQQFYXSHQuDchhfj4/ZdyTaDY55FQFiWKLyUUl5Bn6AUc4O35/wcQNk7IsQwK80iJzyZxMFnHHcyovJX5V1lWxPp30B7swxf3uAvbuotxfRIsZvE7Ni5m+w7Qf87IC+0qq16082F75mpcUzFIdwsgC+yxY6I2X78rHNmlGn9k4rZCvKugaSMvPKXjFodAWhq66Zp5bMI8RCpEquQM+r2CeoGplnu95S5Jb7ydYT7sPP0quNPsjZ8eX7TtKUzAriYSWI3xsW7OaljvC/9eZE2m5jBcEBwr+BrOm7xIZS9Gc1KxTYwJhWtzIYgunbcet/uUR8gdwJllYSXJX/4KCd42Mx45kvk5eWDDX7kFp257aGcZ1Sr2K9rH02GcvN49michnvDtiDyJOJ5s7CnK9IraYC7V9N6A+xBax8CN8glF3PBD7uXvRvLzg3aSgdpwD3byTKktifrjg3TKNd60xj+JvOYpRQ3fnsGxu1X7Wp+jmPscQoigbMGyHfpvWhYTRuC4Rub3JN484lAPU5fFuicnFnIH2yOwTH1w8x3rGFBN2Ow767LI8xq3ae+IaLDGCR++Ohoc78ju8bLtpxxf4l/2u4D0W7pCkMysYQJn+VxTM43Ac2/EhmwxCKtu5hNjjw6ug22Ofm4xjRup4TfaQwReNs7AMO6fmFpaYVxa8gnzxtyQ/gch1zfH+AgNnqtLP3UGyMtzbK+8fSYRsbU4K8+F51hFeMv7AfvOwQTUrCa9Hff2qUCrYvNPsoi1VGSRrC5Vk+Eu7Qj0p6a+zEUxnHz0REF0s7xD4FUVDUltDVuN0d/8yXXgrh1fCVq+GvMmAZCZPHF4dvibjSxeGvzRmCOkIIWn3CFnMjNHJITGvKniBFNelP0Er7EiupT00FikUD68GXWqn77VVJ43v/jJlpUeiu55J/9a7l6FWZDn6xBHJb9nYlDdNK5XOqwu4xH3rVAi2As1JeScQlmQHNRu1Zkn2WS/qyN+IJOeXatWS3nTqTTIZ+exnO4wiewVdrOs9+FL+DceyfeMlbzcorcjVZfrsY7Xa2IaiYJ1oNCthb6Ma1iryRT7tZC1lrx3bkMiczZXPz2bGneWnmOdnaYGf5Tw/K2mHpbG9B0WNH+bNxZrx91ADV+IU19fLGu5vCurGW/gzTDF+6HCK5Wa5W9Ab2HQO3EsJ86YCO7Z7Hm0h7+AmcI/VHokVt6BfLphV6VhGbyEv5wZkjJLo4i1JxxbOVdFamPWHR8gawQqb6+XRZPZKwP2xc1uUP3Asf6nWPtGz16z6cqGlj/mCSlV0i1whvKdbqsm0FBvNjvzVeP2A41KNye91tnQqlrNCr9nOUFY22yHq2tYKyqv5ch7xREmPTWs6dSfpheSUndTqhnBzmlYN+0euz8CvfsixV2s2z+lDkGsaofsk8rVVuGh3O1uCed1cIiyIOCtk4nl9wchvbBy4NL1wJDu3XqpkC6SezpjeETD79jocnPkiAgcfUOGJeWNh/hZxI51PWhN1xavnpEZLr59siA5J3m8szKf1VmkrcYCOfmtRD+tjMopl3kKboVj/5vSccqSOq9YpBbtO/IXnve4NjVx9tHolKuyHL2VSM2ZFy+hdhyF3X94AgBJ7LT0ipMWV+DpcrrRpFOvvMGg9FGvuja0dx8VceCWV4QuRbemH4XqIXF2Ld+QEN0cIqcWFl69BiRMD8Us5HBXgtgPoY35jbpI/Axpx+RLK8PTZk14NMV6KRG8W3+DKI5XO1vytabCplqMgVOTxmeAU9SvBWqS0FG2VWlnJ2hFXWEFpm/rp1VWb66U26oT9QGpWXnPl1GCdnL+Ndd9CdXbKfgw1e2R7Rovu4ew1tWr+mey1V7yjvU7eBenrkxzw+jkwe2Fxg5JlaRHwwj7IoG8sI3L8n1n/oRZXs3vy1NUE50P5RrhhwbabzAcCHTYF27ePbfqjbfZnDlRuPeBmevIaRn4kZOrp24JSu1Mt6+i8CCHQIVm/UdomCUruc+uFLfkLbsWtO/h3aetO/l3euot/V7bkr7atbt3Nvye2JOYi87WWPWw4udFsIgVyp7B+WLmI7GnBObMl0GvYtkiuXXgXcZ2+kbu+K//ewNLokt5Ykz9jeVNFYDdXOvx7S0VGfOtGdbOrNG4jVy613AAeUedISvpITCfJ7bKxPCqs8++jRRlU9o+J6igWmccKV49jxoXO4+/hnydUNqT1F5TW14XNJ7oXRl/Ylp6/qC0D+GK3XX2J/DF10i8tYwdJv4yJI/nyqKR/YfUrzq0Ln1+JwSd5UqQCerIM5g4B3CmDu8v9tc6nrOsf67x7vSIz89SopZb6acrC089r8lWtarljB/zVUbPb1i+Ofk21LuP5WqJgMsKvq5XWQxnX11cbLf1j7t+w3u10VC4l++yM3Lrw796lsEA76eRVyFsZhrKaSmwT5Dea3Y6ltYndYu/QmdyqgyNsVdVnsH/d4Gwt3LTP+87JriVDqYkutyfYXvOMVO8aWEGSu0qtll7K2j4ftV5qYBLIlcVS1kLmHx5E+BVnOKqNDSEQutFuuJneRGXla/yWzhbxQJurRmGprX/k9mz+ad6pud4/mnXfrTcypX08wQ3iGY7SEypV+QVBU3l4YmX+jf4vTCX2ZdLSLucvtzPxFU6uT5IUtRI+n4y3KFzcwZYqvT4F1c//6YentpvnSZ5GkhJ+OnmhrVx9VUeeR5L5ug5e17oqWSmbV6+8FZbPcc1O3pdPv5dDVe0AqySqVYDpruOkmOZzbZZSmNhiEe9ypgYr6YTbPldTjBNRuc0Nv4Wu6Sd0JXc6alUbGV9n4JrkWhK0WbXyOlEr2+v1nXYYSq/kb2C+15sWfqOMgPQmkZ8F3SwMkt4iqe3zVuUkFdZtdCHoZB8hZEkfKakjdbtIDYeK7HqpFupCPldrymzV6qX2PV1tUbdvTcmhZ3UdT1OxK9WSRW5luXusYln2Ttr3DOSuWbBlj5mbpMe6KXlchSXoYF8Q1ltbGFnp8Ys2Qr3G+GIMmV3hX8I6Ctv6B6W/tNqIYMO2+sp02d0p+qy7B4W7o9SwfTXGhsmxDyC/BpPDvVla/Fpairi/XsZH+g3p8aUtmoYW955MIUoLd1DopIU7KXTTwl0UttPCUyioqkrhbgr3SkF5vC/bAu6XzcRO3TfOt5pvkvXrljbFb5ZpDHtOVg/gEGyqVenVj/0e0vcGyaA8ivtj/WKqlzle1gOM8VXEk/kAnky+KgSOD5N943hP4HJqlsBbfcIhcUjg7Xi8IijLcaLlfvxofPfnOcz8z3NQ8CrEjsVrXUQOsIelsliPq/xVD0p++ao/xsSVtBbS6I+MOk37syLKnmYEIjUA/BLmNftJ5fzYVFw4NiXUuyfj+H/HDk7DscsXiXcqYmk67TtCa15xoQfx9tTvlL/wkp0AUT9mn4yX+lV+Vac0sDXpI8jCFbRwKWdC7iM4upe0xz/DlVxAS5i63Kx+jFm9oj6kkqn1+ymQYTp6H4XeVp/wVe5HuSl6qgn7+XoNf2/lIbTIMfBxGAgJUamf64KpcVqmgVz0fBqcZNw/TPa5rDGf4iATZhgOTKs9Cb1Z5DF6Wt6XkMOGaKXVPonb5BoKafhINP07GmVV0FIpfgYpjvr2Z97zhh2pyp/1ccYjnNewo9bT62JeSP0sdB9E90XWMhcw/p1eqSW+SbHZ0LdezCelJdnMo9J2SH65JPUrkVXfFmeUmPNWn1kQPYA6sRIQjHSkvwHQohcufCmSWccdCKnAP1A/wVsgaCVdIOo3kl92nDHezH0+RUvcOtpSA5kyfDm+wcBniUGXHyb8BzUb7xEVkAmQEJPP4s8FRps2tLZjAg1NViVuJKHFh4+j6jXLurvQwFYtj4ZEx55bNB43ptxbmecV5c7/Esbl+UXIMjjiuaw9vX4yLyxy2WCvCPtT+uk/ZF5U5M5VQR2ipvqtSvOSollOO1GoPdz5hZjgFmE5mfJ7jfvUV3bSXvUe5onpICYiSKZQUh7nlPX+Cz2Q6x1O+iWduM4W53uMGLNZbfS2q6F4L36TzaJ9Bdj9CZiedaWs3S+kj0xzJq9gddH9UMJ35i1Qe0emUEOKGVsyOuPLBS1NhDVSP4+BIGaC9BzEfqT3Qf4hesZEByyIcVUeeJzn9D6RR13HBm38lZkb9z+zngYZj89m4iazfW7J5XfEQgvdiRFSKlHzObRNYZEqH9FVwk9DrmjzGEsCyhCWUdrLXHDuxnCysiV6MWckN1vS0kvSVnqbk/xLEDdEq/4liJFqWKp08xb2TxvdD+phzE3SqiEGYWevM2mJTD3mWNt2hLRoZ9q448RoApmj+QH5/1CBrk6cPW7m6L+4SAw8PzHHRql/diNKR1qYybWFzRfToEV10CRkaPNN5kC+YIJdmf9mlQKxRfYUW8zhvMvDykkgSMJM21Iv/ZZEal5xxoGbrWgstgEl5JYNCQYHrGoW2yDWjxVs6z61aopXp2KrWbmW1CUtMg0ZtgttZb/BPJxwC6OvJyn5D6ZvHYMht5zcuqHwyWwaz3blYWTx0hVdcYFT9JYy6hviyegP/+O0A8YukTqcI3+vfzAcafQrES4S8/KiV8jRBPKyolc8SjQIJ8GJXfvNFNhwfSiFtiXu+ZPRwEKgKc+4soIdbyS95JEVQLXgpnmLalsqjIsc12JPgQ0p0CaRSluXmFcV5UdzNEwBKbZ5ZZHdXFDNT6Y4unelvqLxvF2Mvr6hkT3bm6NAhXt4+byxystLGLqgcP1q2ybmNUUvEOFoIwxXsrvP9fR2JmP8VEZgXkHXU8fZq9k4Ykv+tewc/z/lCwAA5ZhtcJTVFcfPs5tsSAgYQcgqRQJVsBgSROoLZnexmlhbpIW2fmhNpqgBXyBVu7FIx4iEILrRsbRCRcWYVIpaFCW0mhCKYRSKhUkiUgj1FSkbC4oo+JI69ve/zyZrO9OOX/qpzDye/5577nk/997oeQELWu6Tib17Q4Mvr7ph0swZP5x3S/W3Z5/7jcvPv/nc6fHp19pQO8m8YTbCRtpozzMv4OUFM8wyMjyzgGV4mRf/5KrqeZVVcQt5A24zs2zLFeGfI3nWFrBT2D2KzWzHoI22jEDmd2fNqSw467/tGirobz3B+5mxPeC2j9H2S6vilTdVzZpb8J2qubcUXDSr6uZZP7WQfVll9yiWvKD0ebgzKLNjWWeio7ljXUdbRxvouQLgM52LOjZ1bOR7uuPZjtbOehtWaza1gADOqDO7N/A154XNrJxTPXfWTWbjvS+nJhfrOaQv27JsAH4dDHh3mK1cbHZDgKXacPnkwBKr2BK8Llwez6jtKq3NwvDETAsNteBQ8uBEMuBNhVdTln+ZeV5gkU1tSPO9UI3ZQjIeqLWCzWl+IFTTVRozLxhYbMmL0vxgqGZiS4F5GfDzVqX5GaGa+qLxPn9ib5qfmeJ7gTo7ozDND6XsZop/TZqfFaqpiJ9lXgj+2yvS/AGhW80K5E+dXf1kmp+d8icL/vx9aX6O/B9l3gAyNCkjzR8o/Sealw2/Kpzm54p/lnk58KdNTPMHpfyU/LTpaf7glPxA+ONnp/knhGrinRPMy4Xffmuan5eSHwS/4b40/8SU/GD4561N84eEat5pHEHfe//WPIHb4p1fD560q/atrR8HC2ef13HJ8JrevzcETwhdmmGZDfS2l30bU5cz1FylqaoqqGqpMmS7kO8aZVeZVNaUIWWDCCfyTVdE8l6eyiv1IUPiLfS82z1bROd5ttizOs+WeHaHZ0s9u9OzR2m47Z695AV3eLYTiYCtCHghj97VUGXbwL7m9cduqdmVbvLQ8MQgf/xO0e+RgVNtlI310McvcYL6D4eIZ+NshWdfscHeybfDGmGnW6HVIRY64T1GNFzeHIFtAYH6oimxQFfpU1GBYH3Rbgcq4u9Fy+Nnx4Lh8oxYdWdhrCmRwzc6FixuyYuFy4fHRItbBviMivgniOci2RMNdpUOiNUXdUfD5V6sLL8zGizLPxY12xYtyz8Q7WncEg0ImG2OYu54tDW5KVrcEoyZNUcxl8uex/BhCNp/FQ2ahTG3EPEw2kt9RnXnIBSdiJX2COYGYn9GpCy/N1oR7ywJ9jS+jrhZT+N6R12YUFPkk2E1RAL+WkMkWN0p4YZIuPwoDr8dCTYlAlg+KSrqDAr0NF6P7t5odWddlC3vs2U53xt48bCi2En0j7G6wVEMTk4DafctF7d0RAPVnWsdYFe7A02JLugepWk/4A2+Q9Gu0vdk+Tg6P0PiOExSLWA2jHAPwByp6uwiVWNjfv3GxpzBfiDttjJgXnFLGO4z8udBB4Ll8R0OVMQPYuv+KFU0l2efTvYZ9UUBHDgmyQj+vkNQF0Z6Gl/Gic0l+NsGoB4ohRhlfcjl2YGexoHy4jRSlAJKBEDCLvEbHKgvehEbryjxuwGZBLabhYkKfzcluQLrL0LnK/Eb+HEXPx50NODH1Q+eiZrXkhxOJ+GDQMp0YRqw4i9BzRLkpqt0RQlH5iZmQAAXW5KLCAMXy/IfJYwtkerONrrrsHMxQruRpCQL46K0Wi+dczEeZZDKedFgSzKHJCUIIA+pNVGUjfEzUB73fDcEpJ4ludEPcMFf6ge4SkPjSz9gyXezYJNCHYMd9pvtSQN1TqA1eZMPwuVXOz+Ykh+R3Vv4LsPb8zRpU/lxONKnxZ7NNE/7mKWNpDriQFNiCGP76gWEvpNSdZf0ND7AlkWRIKs41BERbUqcGnWMpsR06ncPOZkrC81kq47wPyCFd6vpTsb2chgxpFZqBGZHW5Kr+LGErD2i4W7A3d/g2FNIrlbJ/0hh1+DDVhi/U1PsRHwd305OjpZoQCBcvtFf6Sr9C3u15W8K+Wn2HcPcLx1F2bUOtCbLYB6UudMQ7WbLMJjb1UdLCWiv73tr8ijinxGUxVD2VTzL4gycju0cnZQL8HkQM7LMUXrhYQfK8p9G4UAdjO04lAPjZTzMlMR+JAwd76L4sFL2CRJ7yfQn1ODZKFUWoNwKBuoDSq7B+bMDOL0N/ZWktI3kDYmgdj2yC0uKWxqJpmUKcf4ClTM29lXTPJYlEqEE9zvQmnwcukYtvRHQESmPv0BOsvrSOI4gd6LtW30Jrlf6XsLtO1lph7FE9XwOT2qJaS30do3DIyhbyOpyJG9VCRKIL4CxmOzNF2MOP+JOc1PiOumYgOgsbI9Ax2XqiRxqMQWJHL5T+hjdtNKZSK6NkNdpskL3+UFZgtdnfdFbuP1wNCDQlKiKMgx5adC/JKDT+F/OJfKsIwvqg/4lAfM0jULpsdSgQX3QvyRgd3KmaKs6h35KLZflZ7plB9hozPHrvgof7NHQTgLAkQtQH7hdUtgPpFk2NpIf7m5uLQfo2bcpxZmo70BmjPqtlayHuc5+7SiZm+uA2cV9EiPcFlHp4F683gFWrkfkbG6Wn7Nlghh1VO4Mp0yUdnjCAd3bTkIeaYuodNB263ltKAiC+UI0akIBeu1FB8ry38QNT0Z6qdm7MHtRtUMd1cuP9TAPQR/VyLxKn6zge4HuX6aOegXz98LYT/aWqoGPIl6DC/+A8WOdybrJL0RcdFgf4xWG4FOklmmkjmBuJN7tgz5UgtKt7DXzxyTlO5QnhFmBZCKU63EHuCaed6CncQfttVU3ZTdz977OSxZGqoW7SdU3iWAHjFm66p/H8gL6+nFH6aOCNJAyc4bqixqjLl0ClE/Sjaz/gZ2rNTxbiPsJXNxODpol0QGjjR8dSG7vY+xDoh16QOnSYXGEdOsgOOIb7AfSbt/TNE1h3rg/BFQhwKe4nwJuqSmxKg3IjDp5Thq4JW0XsLU0gjoHhi6XSgeKWwqJo72E/Cc5dm8kw2tI2qf+5ZK6gmDcpbKLoRfDGi6X3Tq6k9RP76JCYslQO1YCBrn+FKUPNjnA2QFFoiL+EeaOE0aQHkWH4pFSUWdFQGYlkfLjI3y4EUvdbMVTKfVd92Pxo3IXYnl8gwP++dymo7Ub9z4msv1Uv1CXyiHAFXyH2Iw9H6zGhCQ2qXe76V29f7bBpFxSGi7/ED2aug8V93wHWpMzfYnqzgmpLV9hAR06L6XUp1gRkFlfAj+0RY5Jh/NUSuW6rIjaak5U3nhIJXWI5XFAUPqy/NN9wGMEbRS6KfGkD3gL+31iNpX0OeBv10n1hcML4fQ0OdC/JKBXjR5DrAmIxdp/fMAdzTDPfxRPVWeGKPYknSKfY7qQH+/ShuN1V79GoOM4Z/4EY1yMgJuRGEuRV5KjsZJYgP3T0fp9xmuU2klpDbPlZCRydbplIPE5q5/h8j495DNh7FN+x6D9GLnVXk4x/g8DZrJQ1uAoU7jZAbVRV+nnmv9j+HwEzQGkulSSbEAzekQ5xQT0TiNanvvvq5s+xMLVvEb2QJtLUOqO2Y08Chwl7Ksc8C/KthJ0HODdOo8J/C3U86eoq/QSGkd0hd4b+rtpg79SX5TNcX+QldGK4WzMnB/TOYFSpWwdCZlCJZ5nAUZX6ctuJVz+BvQCzddhQAnPG78g7m3t+gnn1zmgJxETpzNTp7ZG+DW0jtFBlcTpGWKymQQINCVWw3gNBu+71uQuHO+Eqb+b/qq8r2NFUssdJd5aB/TO62l8U8MyjXzvY1jO4dspidGIt+PmcHSs01WQg2OrYOSwdamUamom8Z2Djg90mF+JxCKy4sdilX5Hqw8Yjf/V/X6YCSQFPPWR8wEPfP4gZWeD8nefA02J36NhvUZ4D4xtHI6HKCRHF3+/EepwAgmh+iIlIxfVN8IcDOMBPXbDAIx2lQZ95wWwZzwDdGWkgA5whus6H1TE9VhL6KyqQNdMdP4AI6fKwDQ6YxcNdT4luFtVH4vEYBzMgt5TQod04qRZccs1juKCAuPfIRduGEX/D3+l2j8B(/figma)--&gt;&quot;&gt;&lt;/span&gt;&lt;/div&gt;&lt;span style=&quot;white-space:pre-wrap;&quot;&gt;Выданный автомобиль&lt;/span&gt;" style="edgeLabel;html=1;align=center;verticalAlign=middle;resizable=0;points=[];" vertex="1" connectable="0" parent="03a_yUvJn4LSFQJn4kzA-11">
          <mxGeometry x="0.3663" y="-2" relative="1" as="geometry">
            <mxPoint as="offset" />
          </mxGeometry>
        </mxCell>
        <mxCell id="03a_yUvJn4LSFQJn4kzA-13" value="" style="endArrow=classic;html=1;rounded=0;entryX=0.25;entryY=1;entryDx=0;entryDy=0;" edge="1" parent="1" target="03a_yUvJn4LSFQJn4kzA-2">
          <mxGeometry width="50" height="50" relative="1" as="geometry">
            <mxPoint x="260" y="820" as="sourcePoint" />
            <mxPoint x="450" y="590" as="targetPoint" />
            <Array as="points">
              <mxPoint x="270" y="740" />
            </Array>
          </mxGeometry>
        </mxCell>
        <mxCell id="03a_yUvJn4LSFQJn4kzA-14" value="&lt;div&gt;&lt;span data-metadata=&quot;&lt;!--(figmeta)eyJmaWxlS2V5IjoiVm5wMlJRWm15dUtmN0JWOXY3TnROaSIsInBhc3RlSUQiOjE2OTA5NDc3MzIsImRhdGFUeXBlIjoic2NlbmUifQo=(/figmeta)--&gt;&quot;&gt;&lt;/span&gt;&lt;span data-buffer=&quot;&lt;!--(figma)ZmlnLWtpd2k8AAAAbEkAALW9C5hkSVXgH/fezHp09WPeLxje4lthZhjAd1bmrarsztfkzayeGXWSrMpbXUlnZZZ5s3qmWddFRERERERURET/iIguIqIiIiIiIiIiIqIiKiLLsqzLsq7ruqz7/50TcW/erO5h3W+/5WM6Ik6cOHHixIkTJ05E3vqQX4+TpH8h7lw+jI25+Wyz2uhFnVK7Y/hfo1kJe+WtUmMzjCh63Shs58q+YoeNCvkgqm42SjVyhahzXy0kU9RMLwqF1pLiKuVedK7a6rXDWrMkLZcbzU51475etNXs1iq9bmuzXapI+xWX7VWaDSmvpuV2uNEOoy1AJ6Jy2Ah7gFtbvXu6Yfs+gGt5YDts1QR4slLd2CA9Va5Vw0ant96m93IpEt5O53g72+y2GUconJ2JOu2wVLc1lK9xZTvia6uNTtgulTvVbQZZq8KYFQ1117XDcrPRCMsMNsdMyuH1V69Oeb1B+aGXXrVRbod1+C3VqHVtwLhRZwa+Ot1o3utNpYeGCdNyL3kjhLzS7i7TCwi+K71mQ8kbLZxvVzvSyGtMBnFrv5/EoNFbqaNjB6ne3Nasd344HgzHF9pHI8FpNBv3h+0mFaZZ0XqhYPXnC6kMAZlKs9wVvsl65VJjuxSR8zfbzW6LTLDRLtUFr7DebNbCUqPXbCHKTrXZAFjcZpDNNrklRijpcq2qZFfCWq3aiiS7ijg6jFs17UQ73OzWSu1eq1m7b1OJrNFVoxJWRGwZ3slOeK+wdIrpKgvgdHRffb0pWnum2qCzhkKZ52r5nIjq2mir1Ap756udrZ5re52bBWXw+rLMw3qtWT5H6Ybz1cqmavuN0KrLSG+qh5VqiczNW9XNrRr/SfUtEQTsYG912R7CbtdK0ult50vRVrXXoWdKj9gutauldeX/kR2XuV0zvTLyoPSoFMWttUczPF1BjylFUTViQntQbnal7rFXam1YUxWj8nEZIeGmTSXAx9ebla72+gSLv0kFpS+wpXbzPIUnRvv9w/j8cLbfiR+aWWV4VHRPt9QOqTXw6ebNQxz1pi4gv0NnMjOseYpBVqw0z4toClebwmKr1C7VahgP1ky913YSXVoE18INgS6Hjc1epYSwStr5ipRZhF0prEpho6pUT2i+WauEMqtrHZZjeH9Th3my1Q4r4QYKWOm12s1yGIkqn2KGwprUn05VvRdVHY9nMlC9W+tUWwq8pl5qdFnG1UZLJ+LarfDektXV68pb4XZbs9e3aObANzQZts2KPglnN7VqXen+5lIbuafDvMWWUlncGnXrdXjpne02mGclcJuq6yOiVhiWt3rr3XUmGcAjVRuwd9iSZrukVuT29VE8HtRZ08IOGtTrbDETm2Jv2RHadbXyXqXUPhcKad8NUlQ3kIXKOlzHiFIslJu1ZlYqqvprm6UIS6M5Xdq0qDRZOpRXbJO0uCqKiPKSPRE1Nzo9pUFpbavURq1dSa172A7t+j0V3ltGTnbkp7d0ts9E2MrMxFyjvZC5ttZFVM2o2pEurmv1h2OnvStRE/0GaNCoSpVpoTdhFYiXgSRVeWDbyAoITRVbBCzIYCA5pS9U61bMRezr2SqZpW2WkZjT5eoBG3G02x/FVvrspO2wU1bBb1RlnB76qr11rN4G4d5evOs4LlQxTG320RILiEpTaTdb86K30cRMMpPsK+u1rjDor5fK5xZBgazfsu4GS000qopyADbdFhaa1Ks1z2sGFjqWhwiNqPXKpZZoZmFeYkG1y7qDFIVoJd6dTPuz4WRMm3SfoGfmF7mS9xhu9Vw41za/Fvdl4+lMhweU0jbQ7m2Fbua9xtHBTjztjoezBLrtkgzVtKr3hrWIjAfX7LCC6Zcn42Q2nc/wMjMP3Ei9Dsmrl2Tr9OHDiT2IyvgCZAobUKz0bIuiKyj2UjSbTi7GpdHwwpgGGTHDhsLEkvGwvC7rW+Ry/xCNTMfDcFU1vMxe+nZBi1xkEIEthvd0qzW2ZwwdwILTKTFh1l0pIj6UDwOagZbyu87yfF/pPZnySq58B+XVXPlOyidy5bsor+XKT6F8Mle+m/KpcrVdzvd+2o727GQokqnjb7SBmvVwO5QReOnA/fXJZBT3x83DOFWQQrdhVypipJlskuS9qLuObda8f68uYNVXFf7WZDp81mQ8649o7ixjbm7RZZWCf7bL9r5RVQ7nrbfj6WzI0hNYs0VVrul6s9Np1sn59clREpePpslkijzYFkrYPipMud2MWGnVNnkvvC+UpYfqUfLxzrSrVomhYAvLqDjlApaepEhSrtbILdXFokqTZaYYT5vcSjZ/WlytYY7FVJzYZtVPpvXhdCqcZMtJp5/U0wymCBPJ1tYRXfYr/WTfGha/zHYMyMw13VPjYxdGodXYBGTOtkJJvWhbEr9VEQc6CB86nExnxxdTgFuEbWcXdCvGpACcIu3fSwHZ2vVr/cuTo9nmdDiwRAp2feVEP2fQt8stmLdp9WezeDqmCqxqS5cKxlqNtqcTezSbtONk+CxIZyJSdlQyGR9elvOlWWd6NN51euhXqpE4RELT4JGzrZLxotnlURzFbuzMYTtqOkPZ4YRA4pVRM6s0HFbwORpl2WGCTlhvsdPqMaCQkkGYsziT5BUbD1kv3TawIP3di3YaszFtYanvR7rKgceOif+qeYutCk53V0jXitRfR9vE1pAPtEF5cgRDU9du6eHaIXY3OUGp2xG9LORIFZXU2aNkNty7TPFhqbRKZZzQ7dCeTgJbXg87562HgJSgE9lZVMsLkONJVL0/7HWamBsV0AIApWOSq/UWfj4lqQHHSqM1SYYyuWwsgBzjprSO2Lv2RKRo56dipNl0OCmVWoCNS211XkRu+sBOqR0fgwfKmCVLt3aSV9OpwyZYB0xOdJS9blsnbp2dmTQo15rquhZw7Xupe0652G3h2IY9PV/02t1Gp6onqiVWWaUqbo4qwHK+WQ9PXnBWqvA77efYuYYDCDZBuzSlDVjqCT02LspevcnBH8eVvG/ztiKg1ZY4aOQLtgJXQ9CKtqR+/RJY+NDqNi+7Ya9UcDZJV6k7F96XNjtBcbtpj2Zr5O3gtnSCT2ZlliHlU7aLVJtO2yKHyW1pfaYz7Y/tPNsR3sZ2zCGi02P/YGMWAYFmWN7MuzbxNogtkPr2XLPRbmbniCAHSveRQg5md4xiDpJtGUutbrRlYY7Y8hyS0lqZgyyp1Tkgo3RCzuMW5iitzSEppZNzkKWEmFJARum0ZZRJBCkldmYBmNK7ZgFqSV67AMuoXqc9Oagjen0eltK8IQ+0JG/MgzKKN2HzqmW0VufnZjxLAjSlBqZQ1+ktHCKa+JpzyK1hP2FZ2xk/TQyl3F2vlqkwQjoteNVGvuiLvbL+Oi1k3WVVBcFbgBRt2wXYkjX1WXk5arXtPrGyiXqy7jLAqkPNACdsThcIK9WujrVFYOe82JSTx4BbHKAAn4p2p5PRqDKcWvMC026NfZ5dAQmr1bZtsU0zsQbxAMs2i6kP722xQVpDW4aCuFxa8ja7bE2enxBVojPyy8YbTfCbNOuXJyP8Ea8wNavGu8A//g7/BH3+KViXhcYPUfIu84/fBgT2HPAg/wT7/FNQStFsckiDXcmbZxjv0JluEGxXgrDdnxo/2JWi4GhGYG8tGD/XIKj3Z9PhQ8ZbOnjSkyh7B096Mol/8KQ7SIKDJwuwcPBkARYPnizApVZ/il2vjgcx7fwLR8OBeSDHxZrx7emDykv90VFMG+9ITyKPNP4GYm30D2LjBXv9g+HoMvheIjs+GeFsluxOh4czSoHgwvOwT5Ojg3g63N0YXjiaMhfs8e7EbdBTFICMR6BCY6vktZvFptFhf5dVsNCWyAVuh1g9LXuERNwh9SoENkQbZIB5ClheYhGaxytD/1Uh8q3L/cME7Z83YcHqadUj6aUFvxVychTWAwC9rCQeP/FYyRYBMdhNsks5+q1U7nm2OBHwLwcDfDAyyk+kQmZyMqwqi0DXphfFB5Aa7p6Phxf2ZwtIBAJlSBlKlaPEcHcBZU6Hs4ruLBtxf6YT9bdei4MpVaZ8R0tR3Gj8cisSeCCjItWBkhZdFHWJuJE41svNdqVBulLaaEv9aqWhVvBEo1uXoa1xDpBI4kk2ahHNqYpNT8sBgfQM52hJrymV9Exybdmm13Eok/T6yJZvaG9rOOZGsQikN0XnNZZ+czk6L+ktTLLAby2XNYR5W2R9vEdsEUokfaTzpm5vthvC36NEKKSPZmMV+T2m0tGj92M3aiUZx+Pqm23xKx4fobOkT+CQI/1/wQauOOkTt2z6hVu23y/q2PIX32PTL2nZ9Evl4Eb6ZbWNdSl/ebOl6Ve0O5p+Zcu2f1LrXEPk9OQadov0DlLh8852pyblu0il/JTSenub9O7S+raUn0oqfD9t29J5+jYMkX7Veu28zM9Xkwre15AK3teWzm3JOL6ufFYPpF9f3tAF9Q3llpZL5W5b8NbxMaRcxqpKWtmw9ENiisLPBukdpJukd5Ju0a30VyUV+me37HjobVP4qW01z4re4E+rY9So4sGQNs+2nvo00tbZ1tOEzj1nW09/Emn7bOtJd5FGtbN1adchWi34XbZTmZdt8apIz5MKH/fWz9UFfl+jpv7g/Y3uuQ7pN7LzCF/fRBqRfvM2Aid9oBV1BN4jFfgz2ufaUu63W1uS7rS76zLvuxHuOOmgY/mIOw09Ke0xTTJ/F7aJ0JHub9v64bYd9zO3z6m+XNxud9qkI9I7SA+iCAtuzJhUyhPSO0kPSe8i/RbSp5BOSe8mTUifSjojFTkdkT6d9FIUYfuNeZBU6D1EKvQukwq9Z5EKvX9FKvS+lVTo/WtSofdtpELv35AKvWd7UXSHEPx2r7ytHD5HMkLyOyQjNJ8rGSH6nZIRqs+TjJD9LskI3edLRgh/t2SE8gvIKKvfIxmh/ELJCOXvlYxQfpFkhPL3SUYov1gyQvn7JSOUXyIZofwDkhHKLyWjPP+gZITyyyQjlH9IMkL5hyUjlH9EMkL55ZIRyj8qGaH8CskI5R+TjFB+JZk7hfKPS0Yov0oyQvknJCOUf1IyQvn/k4xQfrVkhPJPSUYov0YyQvmnJSOUX0vmLqH8M5IRyq+TjFD+WckI5Z+TjFD+t5IRyq+XjFD+eckI5TdIRij/gmSE8hvJPEUo/6JkhPKbJCOUf0kyQvmXJSOUf0UyQvnNkhHKvyoZofwWyQjlX5OMUH4rmbuF8q9LRii/TTJC+TckI5TfLhmh/JuSEcrvkIxQ/i3JCOV3SkYo/7ZkhPK7yDxVKP+OZITyuyUjlH9XMkL5PZIRyr8nGaH8XskI5d+XjFB+n2SE8h9IRii/n8zThPIfSkYof0AyQvmPJCOUPygZofzHkhHKH5KMUP4TyQjlD0tGKP+pZITyn5FRE/XnkhHKH5GMUP4LyQjlj0pGKP+lZITyX0lGKP+1ZITyxyQjlP9GMkL5497xKBUu2ozt2txlvNRV88WZrfcPD8VZ8vy96eRA3LvZhH/99dFkx3jezuVZnJjAs+Ex4wdclO5LeSyeHX7coD/rK+6yCbaHg3hifD/FSe7sTkeC1OonsziaHE13IeEnU7w7HBRxB6e7DQnl0CEgDuVl8V5Lg2cSNTHeykwYx6dM9vuDyYMJWX8ft4WYwz4+Jl7rIJ71hyNyhZjxJuKI4L1eIiYRExsjvzSLDzSqaquWLw13OBjDxiqHTpGL7dY9AjD+if+3Xe7inU0RBvnVnanQHNMzpRPKjPFv1km6xlg33jzD+BPxZmdyOgguDZPhDoLzTIHE3VGdNsWEU0Bi9rwlaI+Tvcn0wDzTLA91xl7gmRXNdfZx1cfCOqDV/hggJ56qVAnkGgvBvcT7ZWqXzbWU89cx15kTFrI/ORoNysJfvT8GAD83TSccnWgMm2uJNCFzck9lq5huSl/smVOHMtINrcISm9PxweSZwzI9tIiTI+Nl78wlVaQXeuY6YtoXhmOOV9Lz+eFgtg9n1y9At6wnu2xu2JWecJbl6HOjCkUK+97N4hTXmbcKymr84sX4sjk03h7Q2nCcEmCmBVIZXojhNODUQsm60t9qClJwPnORCxBK0B7aMftB/6Fh0ulfgAlPsg2RIHqfrjQNs9vOr9/d78vxIp4mYHhZSTuqVmT4fiL55qV4SpA37vSZa/M23wtGGvnVQOAOGsAd1QjuE7YPr3hhdPlwP2Hf8JYG2T1Twq7hLe9wPr34LUcTWciv9bxrLJltGAAFjlf2GEwmnZd53upefzTaIca3QUViDr0T+yjllM4urk8egsorPW+NErnXBt7JWRYu5vg8dafFojnl4PEgk+/p0eSC3DEoSmdSTsfe3NtL4hmWyKx6Zw6GaTwxa3ftASXo295f5XnXDTimXYoHNWXidYF3fcUC5nI+aYfppOUtSMufS4vlvCAtFtaCtIp78JIXztKVslh2I4XGggRWHDwngdV/gQROHB/t2sAOrqb8M9qTWzkejF/YIRY7SMyAw7e1t+6kHuyneBwgioQoM8IsgnmjZM40IQzsSpoPhiygEaQwOAe27TmWzrIprjtxGn8FG2hPpUj5QV2gLCSpu49MIJls9AUplZJdSFFaxmROpnEtd8eJhdwbTpNZJhfpC4by5aVNmTw63p0cHPQZwrrdfeZhiR1jVxCDZgwygaoF9H8l8f7gkrPNS1faoWUFqZGJ4pn5+wJx20xd2MimhG+QoIcE0+5k33T6g1m45C7V1jFDSFHB9f6UaXOyzzNq40OqZ9JSCo149uAEdDdCxHXAfDyLQBX/ZOO80lLIxs7tEFLyRBUS84DnRZcPdiYjRz7RAv2y39t8SiQRAj5BHNlGIniPNxAWWxGTmZJFT9Vn8H10AwqHwHA1CRQgvc14LJsfEnJ9TfKUvaMk3kALNsUpYRyXxxqq8XAkhnt7zfHochuhX+qPFDuoWM2vHhwczWR0ujdZuv4iXQrOnvmlJIln1QFcMn50bToE582e57mKENBlCPSlKAqNHdZ8dYCD6tq34z1QLtralDhLSytB9JdFsjL6vkAE/S20ZS3NGNzk6LA6wLc1gc4Q+bezhqykKbzDw2OQ7YMhUXynZ5bSYqTU3+0RRc2T8tM1vdhd5Kg/XHXa4cPUb7tOUYT/DUYTEYiwq4P/HWbEACoPh4QjcUR3g4er7+zHB5+Hm40RmtfBqBl8SkLfeLomrK9rJM6LsFR4ORBwCjKTPMTe6y3M4ByvNcVFMP7STArbGQYO8nwoOhf+jH3FyTphKj0sYwdQWRyOen98xIZ5OYpHLNqYdW4Kw2R9Mh043+cqCMXkaEeinztsWdK5G+DSnLdF7f0Q2rtQF1IhOjyTMkzKGDVvx/QBeI6wc7LCRAWgHxPKxdD5q3v43uesXidaiYjwvy/Z8W/18d2JyIr8W/1srSccE9kc3WmgOBri004vi0HoTCI3FtAEwFHeW8I4H07G8ditr+Wj8d5Irqvl1jFPcmWYdNMqlcyqZbuctq/3OTqkVnE3hVqq3uHRzmiY7ENMOhZ2O5NO3D+ozdmTTvzjnQRVjkVi91O1jmYy7LmtElLNvehBOMX6OGQxcfjlCywsWqGr092+419EmY2jP4pyM5I2saTtSyfjn5qJ/t8gnKBbekJQ54HtIJiylR7JcaIwPyoUSbKjwlJyOI37AzCWk/3Jg8iaQ856jAQHYrtBX7E0ttmx8KJXtRNXOGEbu9LaQy5z8rLLnOrI8UP34Op4Tw6Cyuq28QZHdkegXx8FnU2kohJfGu6mLy7SOxuJrenzEK9MtFPjv77CuMaR6D1lNgVp2E5PHGw7rnG5fL6n52nvWCf4SFLgWIzOu62TsSC16oCpHO4N8QZQelpZmp9gDTcRP05ky7kVHSFgVrLre8PNXXrN50k+q/GllF72Bdw1MY4Us+CKGXLRAVL8JftMktyyY2AdT/wC24D4ZSwFdmO4oZds1HJDzs2ZvcCWS0T32Mq7goAdQ9aSuGm10kufAl6JXkJH8ZVEQX1/JwMrlb9DlHNQWdREdLHR5ySsMlQsU2yUtgnb6w2H4R6zbd8yetF5vSvwJe1xnaIIgbvQ1DcEhZDjtUQwoMx0itUCI31ZCoKJ2pt690F8uQXZXuvO3vZdAHzbMuI8jmXAwJ9Ijvb2uPrCYgzFmVPWWJS7OP0zcURmBCRNkFy6IHZGD2/MP8VqRdfNP7KKKDWPZuLAiuGnHhPHdOAoitNCeRmMjQkRjkgffWG3LiaAV3B4SjvJZHQ0i53bh5HbzY/q7z1zwrG8vem6NH51o9cIQ3cJWaqdL90XkfFqeqyR5z+pKbibTZIzp/Gx4dmqD8ZHBxH2golIDK6/sxFEKhILjWQZ4PVeOMIqTl1pWfliHlcOxVhOx+ZpZjVHyS30E5aaK60ltlZoONDJOVUHObXJfoIa6UkZVj1Lgj7TnT5oYRlBeBBbxLTpY/sVg5Vb8PJxsGQXVoc5kmxHRCCXblal5e0dCTd07eY5gfju2XoQbmzYR3QF7iGabckV3WOpJewge47Sy+2Uti9r51MHwm2P6eYqCMw0YxXNgftEIK5Jwoym1oOyL5Ntq9zFM4aX5YLAAajmywwzhHvDSu/8VsiK3qrWKr3mRs9WcyXYS385wAhZ7fe5Gmnol6a7GRec6BBiaXwBKRLNYgfIFf3hGB+9rYaeYmA3nRrnRNoeTYdw6A2GyeGof1kXw5p451pU3Yf/1uiIAIzr7VALSJJmeO5EPGhw0Q60pXXteNTnKLxvGxQOFWgbHMQ28kYTN9Vkca8qOEvWVyrUj0azofQeTzeG8WiwbaeCCdplQSF7lMHL38j75QkDlFNLvS9hOWNWUv1wD5TEYJP4zioH1giTK6R2uJhZ6CVp01t4TLCcdRCOB4dyXEQMscvKRgob+K6H6eTvcM1uOXmJb4KsMRlsxaglrRhNDt2uaJqBYnFF8hE5qcePrlYqNX3she1UXeY6LAXZ90HpkyvbtD60zNFNAlCo/LCfX4UZNmqACUOLEUtYW2+etxaIBVVyomFrbttfxsxb2WXoZ5uXXpejquS80njs9lUsHgGJ2WWLfatbrELbLlaPm059meFnLxIDrvl6KbgghayqWC/dm1Wxb947r1q2JLPalTKXtWG7x01btSuLZTUzByfEQCBG+5xgTUtccm/SUX7KT26Q622U6lV9pXdKi+4m+LQWzqedn2GhhnNerqmFHTSpJ2/iWMFArmXS2KnngOssoFWquAeW11uAe692gy0pV27zu7EpjfU++aZys95CvRV+s7KSjuaWK0VvfG8m0n8Vsz+vRS1G/Z1YgkfeocWUY8dPEgqYI9XjvoS7JRIkOh6JQTcFu5JMtoI8t6b8dCUFV6VAAEfNvifXDkKOvD+buFyQQrWT1/imMJtE/QNbZDdWA9ZU5RXbMiNIgBIvsTOm4I3hQ1gPtjRLM9LwgW4x+Nor7oBQn1yKnas6GQ3OqckimoE938hstZ/D3RoSVZ5erhLhp0miFxpCvaojseXysQMCHmg8EokqoxrFu4gNHNtm9Lc372pEnbO4Ejm72NVwXuH8cHAhZith/WLsfOJA2pYuw8GQyJ0MoDAbYkpn/YPDajJ52t3cu0Ia32MKolBmUIIcD0oSKg928eTTQkEq0iVcrITyS0bmzZzfqnbC9WapLUvd00dvsnT8Srjdk0fdTf1BYRCBJfACG+FFSyQo1Vpbcnct785kNZDz9Jcm7hdmLhDgsBtoL0ATofyYsPQlqP6uJi35EXYGFYrQJHateaP1LnskqSfLgKVmDdMCtpNQogXzFjRfxNE9HCCC7nj4UCcVHcLwOW9xmD2U1gguyERYaCB1YodjNiv/pXo+lhmQ1Eb+n3K4309is2R8zVjg3Yf4CekTqpEJckWL8NSZyOAECk5qQU8bWxUoSmpBTx8mLXvWFTVmBbzeW+Tzbf5orqY63tf55tl5oNNd83O+9yNud/4NdUlKEmGRuMYve+Z/WZ+H7WvZPNllLQfxMIkmezO3LUdSBRtv8LjsmIytKB1rvwBsYzgapTg/Rtn6xCnkJ4A0L9nDraSyQaV1/2g56CAN+OdGXIuVhcH+RuqNkf9ZD5lcxRV7rs9Cz1XN/brn+NyGy7QS2MQp2s5IfV9wzGN7uz95Jifa6IjVi0JNY7V76oMI/T9lK71Un0zGoyH3SKPLab8fwb/aJ3CJDXJSQJ4PcFPgwDlhaMVPphWZHBT80ynYnQ2yitdmFRoSmFf8TFohx4M5+HUpOMcPJxXLBvW/6iUKHAAUFAJc5r12GhRmEdOa38/VCMMCe18OZpkS6B/koMKRwN6fO0e2+hi0xLzU837TuyqH6xkqXL4DpYlYwTYkajzz17CdFlt2zyISgfvZlMgbm1fg/V2qAergzlXgw555FtQUuriu/hW5rEE+UPWt+Yq5znybBWdGP6eBf+aZH3YRtkX1fbF3lEajoJ7v5NXcSbKFdB+m+uNpwAsxiYH4kNtyanaVn9NF/T2BQ9K5/xM5QFnWbPWHEWP5Dkb6pymxOHOo1+DZXq2WFxt9bk5FJF2J9xLznMB7AQ54Dox8E/M53/se341apPB6z3zLvGhticwPO7YTpsCxX96/5nYL05LGxNpxwvExHMvEyDHgBWkIjYiNbagD/L5F1jBmXCuJg5GYZwfeCwnzEA8tTeP1ox1H6BeywFok0TnzEc/7R28BRMDuo573T2rbU5dhkhbsEA7TBjXZ3k3R/KZ/MN/S3uybf9bL5Igh4ITcmOZt4yq7QP/CtH+4LxsBvtCquekYyCKezaDpm9ZVc/NxmEU9N2MtlkYMPvc7sC8yj7kK2DboZDXbrBy5pTJfYh57BdAidwVeZlczN5nHpXlbtS3F3LXYLebxixCLdh5/Jr0JHJsvmpds9TeJhBrsd1zMf3Gat1XfrORESV7umS9JC7buAadJHQc1r/DMv1PJE3cY9seEjw4OJuOaxKRwPCX28m8WavGoHpod9Tn8zjGezSrMUCpDlm4s42CF5bG+PY9lN1eRVx7lOXkUrJI8WQD8HXlwhCvCErw/nk6oem6+qnFkXyPbl9BT851XqXQ6YGZE3a+s5bpM3SBzyXxXvrosL5UfMs/Pw7J971nmuz02ecxYSnxsfspiZnbiPWD0GY+9tr3NvMMXx4hyi2M+8lRCnvnDFFxDPpT/iGPwQzWmXmJSf8n2qdyx5pxf9leLIPVj3uqbv/Fllrps2TWNfqV8LJvf86SGDXI03GUTPlb7wmA2uUDIY9AcNzsbOLzIEcPleb/vpRXcOS7UvM/L7szNOwPzl56YEqH27sB8cK5YAkow795zlbX14WA47/aHFNaxl/8C+hrO2riEW/1Bu1PrUIcoXu3Hxy+XvytI7BWPe6izhWYg6+fn3v0suazV/q/iyuCi2rRlm7Pgr54/GVpxWVvxNbTMrgJWs4Kt/NoE+0TIYU1SC/p6gqPZe6KTWcFWfsMA9jCI6MnYrHqnckWLUDrgPABv10hqQRXJVpOmDaRSd90CwCJtCEzN6C/75tdz/kLTjoVhXX8F0DbdxOZwMMwiWzfkyxZlK1Fvxj3lWTW35csWpWFBagbNY8ztuaJFuMdCWEXmceZRWcFWtm1Zf/T7BPPoeclWR3u4OHPP54nzoq2/3zawIMH4wjzA4nxjrD5WYv7K877U5W1Nby6Ysgvl3nEMZBH3pN/NeHIQyz3iP3venXmAxblge06BgnXXIsji7cs7CNY5ajk5rMV7mNW51BHx93t5hLYI+hjGS+YY65PZbHJwFSo/cBznaoReOkea1wxlSz1E2VnK6NwPHsfpTPAlqJ2jvEyDIDjdrN6ETYJRI35daT8kR4fSzrGA/nP8nYl4NYxvSz0UYD/uYJbbDPwqB5YhZsCfcEAdUwb9SQdlcjkvoOiyZF7jgHRllZZh/7SD2a4y8GsdWLrKgD/jgNpVBn2dg0Y6vxaM/c0L5Wf9fbY460JkMpmZR5lHXg1uVaOVyG9FxciYdcMe4Aq28plalnGxQ8DDxXzZoowU1OoPZK8B5SBftih0CKjMTGB6dJGaDfOQAs8e2d/ebpnLWra1FfN+T4tbGduOIB38oa3CmKv3M6/4gK0gFIM/eNb8kS1aF4byB225xXaInxANnyWtzpq/XQBr/1WCRwksfcJW5Rm3VRXz71zV/nA0cE03pxP5bdgnbY1jS6cQ6L9fgFolAPwpC1YySj+KR3sI59MWnm74NDE1870c1gC2cWenSXy/TP1DTPr3WbD+GLhhfsuWHM9upujpnf7BcMygY/Pugvlt2eTTwrsWWigX6AhHm5lpmT/hYj4ao9ub/QPWUn8qC+zDPgrkrpHluK1e/vfIgrQ3upHcbWQVL5xXrNPPhbmdw/R9rzcnpb7ExzzzIzlYh1ZcT788B6rMb6p/1CNayfgU6148yzlWC28hnl6KI73Ggelf4hRCSFJ9F8VvE02Zg+Q3zWvmV+a8EhSUa+lPeubNHoslvdXtUGU65tdyXUlsanIks/zWPGa9T4H/1Cb9ukchrcmN4G0SJOIeSMvsskztqC93lW/PdRDpc94IJZuV9AmwGJk/mLNanZNOzJsC72PzKp0KJKSRSfO2wPx3z17tqCv+Qt97rytL6BNvyN7/vMj3/jyVjQQXoGFe6pvPzmEhB34g/2UOqTFSjQuYV/jcl2Zwbc3Wyz78X+dQ2lvYP8xhZbSOyVJWE/My3/uf8zpxybILkpf75n/lqhimeaVv/qvfz6LYCc6b95/9A9QDt1EcxART6z07IBZw7BtQJ81/9hTaRV+csVg1/4150WPLVd61vcljn33Y6m0WJxyYF/vmA/6YRXDstd0bPfMZmB/EXJfuXqyxyR3hX5pXBOY7/BE+LYp7aRg/qLjvCxCDMudcVTxgj+E7F7yMwGRo2W70o1wvD+JJCxXaYanh8xNLTCRsquTeG5h/m7alm4SYoiy5fyiYz/oPagBbHvtx6EeIsXmPb74/By7bT4oscz9mgRUrgehoZzaN0y+OvNs3P+Dqy/1dTk0lCCbMknmDj8LYmur48GiW3ay+ODA/5ipkm+cekYX4SgfZmlzCiqlavYtQI9bovMIjbP9FkTuj/ilEJAsEMTg2uPC3aNoclE86cvV41h+IKF4SmOc5WHhJZGheFHjf5SAtPAt2l8v1eHxkDf7LA++7XaUyL9rTYA5Vg344MN8fqBK0Jw+mJjshxmje5CsYY3d0MF6o+SVbQwOrcjiKPs60Ai36ednGFPwrBCvdAseeyfmDid8b6ksImaX/ckV9iyXHaeuQM2OK9Pc+ASv3Mu99HuNPBDE6jLHt08ZENGvNfGegD9Qw2+/1zP/wFaUjEKXyfs/8zxyMsBd7qnmepdSJDw6JiEkM0l2VfHcwGEoU5ABukHB1wF7wH7jlkANgezKZUfyUK6aiodWnucfWVjWtkTcGyvM/+Obv0ipHUPe/f/TNf0rhtkmrf5Rgc//JN59BXVosrspQloXoweesqDjkh+Ojgw2MB8ppXhmY/2HtMxUy1LTiVYH5dgJobIzo/QnNWI/m6/r63ZYxax6qp+clW70uq89udGEWHTtzBdAil2MNHjOnupib9q3KtVdCLXqYYFCr2L6pPv3FVt2yCLFotYMh46kNSUC5lcSVbHV9hgZ30JmLbA4gPCJftijNHVbjwiePnmiecBxmUe9llaFweecSp/MLroRa9PsIOQy4CtBPA9Gf+QrzZcdAFvEZVggRoQ5gCZuF9+WLIIuH3hET00lIxKv5KvMVixCLtjNSBZFAd2L+yfO+Mle2GLv2UbfoADF586R50dYP9lAzND+5SNBJ55CpSq4AWmTMovY92WAOPMNGlBUtwiU7lnWkbvUibQ/2gxLMZFF+zvNe4CE51U3RAupe5CXq1cy/qHC/+XH2FDkpRQcsrX1Ew6S+yuERQkmIX+yY13i2x44IJ4m2NyUDwZ93iEwU87RLiDfSLeCb2K125zC4h8gvch3Kxa36rNN4nC6uNfZFSyWz7M/zzVu8vnvy8nzf/Fa6a9rgsIBrOgPbbs8smnd6Y9oSn6Oo6/6znvltDf2Ojr3z+5Rn3pVWiPMixi9FgMvfSevm0q2KFBmJIHzaM+++EqM0f033Gc/8riKgHGrQHjB/rLLo4+dMuW8SObpLNDmPlcb4tDIBskN/xLrvZWjSJXKT+Thr/mJOQG6shMLDEPiodzG+TODuwgUk+46AKMKlCd5oKFtVa39KZBd5/40nnMrmSlBnfz3em0zxWokLygAf8P6Du9mo4VQk5gW+9x+9GdMtcT6RvHl1YP4TEwKj+03uPVinMIofM8EuEvQkDyPfiU+SzObHiOcTE9uJB0rgPQGOIiHM/XqMAVbQawr4PSgF8yyzDHtOk9iBftBPhuwRnPbS+4NWfxyPZLiv8Pu7jETjZludek2Wx3sK5vW+BPLaWBzz3oL5+RxSzb2EeIN/SVCAaPdvLZg3ZpAyVufogJGJK37IBZj5xaxOTrjrlyMcAmo+6BPBTGsERmVi3lbw3pyHsim+2zO/moHaMQEGdFmV8XUFYqNpjbCit1yJeXvB/FoG7zDL4wamAsY/mkGj3ckhmO8seH/NVsOWfBkVeYgzlvmEr+8cIr1AYtGb53I37Z5Gvsk33xvsoGNMy3ZKCSYHwuR/94/VAH5pkR2ReyXWp7UZ4UNsLAOpZQK+PZhiNlL0c6j7GrdHYpMne3sRM3iUiKQ+UTD/3ocF2qVLTcAf983vOHDqYAn4Uz7u4MGQnVkQLRXzvoL5XfjIXVTT/Xt8NIgNHWf0jb75PeTA6RAvbA9nwnywYP6YK3/RU7RJVZrxvMMzH/J3xQa1bZh7bgw/XDB/hhIq1DoJa+bP/cFkl4g7gfU87Q8VzF9Am/shJiH//CNB+byPWW+nBNlL1ufhGs8K5+OqmqXZbDrcIcqEn1Ywf6uj0PnUoXyyYP4j7vYBXlj2MY9vw5FJQe7jHc/2zH9DIugTd2QJPTGPhiuIYBDv9Y9Gs4UKRv4Aruo0D+P/uhdyGY4zjW8UCddMmP1Ng4gAMyRy/oFgx9lm9r+CeWnQviod358NZ0hnzWAfsOnZtai/DeH58cIP+uywhxSh7R0w+n5tIp/DMT6nIu0xqAtUJAgBsyqPgA3/a5W6kTwN8TrNTXlPIvBeCvTr9iNnQbfhcgWHJsVeBi3qR7o3mu3z9v3LkpbXS+VzDrCsAH1NuII7jfOu5wF7nPCX0ACiR0O8K4KSnpeoGZ4D8j/rRagbGTZyYmQFYFGuiYUWh0nTNrPlJdtvxe17C2clH03AnHHul7cc7A26W5D1c88pZSHNf2TyXt/zFitDai5D6qKq5fxxZ7qWK24xzmm8HxrHakOqIBKMsT/27QT8XMrhiGXNLJbF+IBvgu0FiHl8vRrJAyHkbY6/5vPk68ebbfmG+PxRnT8HVhsV+zwuSN8Fpo/zCvZp3bxV0QLcU7z02b58iDsHtW/elheB6Xu3lUVw9jBudbsaVddrolz2zWGl1JE3UmvpI8WT2ZPBU9kXn6UrZaJ3fMynF3G09yuQzsyRLB9Xp3XNFWhXJ3fterNdASAdZiK8zgFdywx+vYNrjxn0Bge1HWTgG/UbfY1OTz7UFLY71VD6u8mKstzsylvc3CzdXK/OX4XeIk8/08KtUpMJ8japykqP0MeR2RvOR2oxfSt5u5aUjU612ZDuHzV/ZPlorXXvPR9TO/6i83HyyG3e0RNS3ZXdPnMF5qvkQ7lVkkcJqWepZIsBKMuXTTdbL4IN6AHjl8nZ7ZyGOdp/Bu2FupAKIcqqnuHFHZh3FYSeW8odoUqkgJ2LuEB+452T/CgkHxYvBEnIDwdwNX/yfAVp8flAz5H92BVkHU4IwpxkAhAz6ZfUB2i5DkDLkfoEpK6oD6mckzl0FcKZRa3O4gP1d4zvHhma9Zr9kr0jlnc45p19OussVx9SOe9MgIQU0p5SPPaFcV9dNPsI95NgcLzGhjeYMZ3XYEbAlwM3W/xnfFO4RPBEC5/1TfHgKGFjl9Lf+2bJku5k6L43k3wtHl/gigIbaxG2Uwo+bv4Mx5WNYF5bz0iyYUxwaSrCXAJTsw7U6gmofiUfAcmCJiI1+wSzYz/F5zm8fATFS3/esSB/h2gJupCKkIOIuU9XPiqce9XTjveMXxwjI7sZwD7+C7yyDp41OdgZxhs4I+I2NKx4g91880bW8J8Raf63BcXy1fFMYW6sTd5Ye/Ibpna1wn7Si/RvJ/RgA+arja2wXcW6VGs1a1NsRbDQw/x5kvEL6RDcYnxuoLvgthbYEoNRfKG/e9nt7p14/sKlsECzIsJZtUIe2+ETiELW/ZGlBeHjLxsLhzpHrnlV2hZnMqnPC8xSXkDLh1N5NceBS2kl5vmBWclzubrAiwX7gURybB7bNYN1W3i5Z3/uY0so+0LjjjAgv5DTz3mp2Em89PdpiJjtoFEOe/KjMQCLrVvHGEWfWa5yTNHimucN3clQfnzpoC8IPL+aAy8SgcZMeHphYOTIjNw+D3JHMI0vr5BZFuptGPjFp5QPzAu/nnXXQjln42jYD7a6L78a/fEeqSfD7oUVVMn+jsMvddgEt8IKWgWKfMc2/ZMnUo1H02WLlJ6yP4UicPdoXAPK684vB9t9w5cl222US52QrH1nLRsYBd82mxushV/32Pw2YQTUSEEubt2wehec15JMB9G5LMRtRbNcKsvGSicmCsU36+i0zue3wtbvxBEosBeFNRwTrXVeOrkirIqknPeb74wLTo5pk6mEHNBzHy9bM7A+QyPxbMm6IapkOqimrHrLoY8TsRmK29PATXQfcTftajn74yduCvN9ygBZf4cO5CSR728IhnbwUhbicFf5KVjOuIkKvGKibMeDpsKoZQl27AMl1s/yPnoGcAUTx0bJnfbkgO2S6fRk9eE9LNz1mGs697XCqNyu6tf2TLklE+65j9D55UjMa3C2tF3KcAoSFiEtno10fpbUa75HQMut+zpbClzZFPO8Gin4RHS+qo7x2rmmPPAnd7LdjQRyar2kn1M8zbFLPu6scjtTldMHQcYwFxnHmNqX+2llBY1LK9nNSNQalwjdyUenH/atLxN96IDIyZpTWfG+TG+NEJMQxuCOyKK1UNs5IlJhr+heg9kdslfhLYn00/ec8vuLuHFEPGpKqbA+b2AK6sFa5eg25gUvO2awlfVq9quHgeVhbE86/okRWSXzcxiVRA6LWN+iOXEVFtiQJTiTxR440DPA1wdmdbAIegN6tQgSiWJk3hiYwmDy4JjNFocw66yIDibIIh7vXp5Dl0Q8iHk6a9qQbtEsy0v+aaL8N/dq1KNzK5X5jiQVdmDeIgPCkye1OlZTVGVAHMaJKxWPlwkwhfjqg93TbapxCrbCEtXkCtHVpGHSL6+bmn4c0WvrN0bxMBbRfFttbDWeSr7aSQvrXrcfTAfFhPdm+fnPyQUzjfL6xaHsmx6zReNfRo1sRWLeGniLv2BMmFgcW/lY1gHIzoAi4GJGOVQq/vJw3kMHsOkY9q0MtHDtj9pmFblb/4CtqjOP7uJCXhHcLRJ0RwOkgXh5OGG0WzqQaMoW9weAKC9nvG27w0dHXVVWGwN/Jxv7GONjV+ho2E/MmznGlydjwlTQ7Y9KyphsxH2XQy4EIhyCOA/zjwGUFMX4t885a0Cd1YqE57AOqGYbpzmD5AfOhTwbvuLcawpzHBmQHWNu4JFe6x579yA/6paLf+qVTFt+Ep1C7CuOFYnyjK56LbB65fXCiXmHuAvJwqORNcvvBpfvUm9WvZMsqWnfIrhFuGNOzVTs6SSoSE4vwrbF4pmfK5gzOodOmO/0zTWQc9236X1mQ2wpx1wEYjXH3emoOm7ED3IWA3TdImnz5sBcvwjSBc/s3aCdRReHh52JiBj53piB1i+XDvSosWpuQoR2zlGBgndzVpzryFsC75ZjrFop5Hi99RhCNdX+S3HmCEq8/7ZFbiMw9Qz9iEV4dpJ+5CIc/HPq692eKWcEhgQvW/pAhEiW2+OPxS8PU15xhNwCrMT6zscUz4X3pb+kY88418DNmbsZYpm8e9eb9/bwHMn7regukoBNtoPvQUiEUgGuHFWW1MX4smz9iSl6LA+Fur7ejiHagmn7htn3j/Q3hPpbBgbr15ESPFpjSlf5v+HSbN3Xq3TF7KWeoUUWsySNvQNbjgddNLk6gK6fgdYvZ8Bgj/D3ORViIbEdvSvg+JqiWsQqsjwjVsdBUwIWvhyy9dqrIP+UG0My3e1qLgshB7P0sbStKDwoDxvQueK+DYlj1mIh1EEi1C9n+FV5eO1eWK/ssW7RyjxMHLpLrBa5ezzBrfGFIeoqWx7lNQSfm/iT2sO2NeoqgFNojHsW4wdHOiqgcv5GiyIXlxUQZxQQ52MHFNSYN2xF9k7HXznSsXnpoMXZSVkjjp9npXDV8RWvMr6lRczzTm7HBZRKcWUbduROETdqtz++1E/k2i52D2DZjQ65th05tlmEvpYrsSxYDXLbRptWCwt1+TtC7KC7Nlj9Zcaz9Uq0Ntnt63h2jJ8DR+ynrHb7/brBcYqW0pY+VmpjWGm+zPGeO5CLBCHAIWZwqOsXqtEx26JPqaDi7pgz0+t3mHiWFq75JRaUXEXor5DIuX69/cmMW46ZK/oJ50KXT21A1tjOZnFiSw7r8xFgnq0BqqambjJ2dQXXbB3Df8gxd1YdyK+Uilmf0dyilbSh7V1/d4yPvYG/iS52JocHE7y+XS4ORCPhB1uXs4bAULhFmFJC9abukjKFi0XF7eaodhUmpPL/hhFIWYtyjBmhCz7sLMLBB4zZL2yzVCaReGBl7hwvWPb9okVv2OZ0N0xazAqsiPZmhUgUHEiAfknERPY5YmJeoa9jkYfZ6l4kso7RsWIotmAQD1rp3NnuVMNsR0m2/gmtsWISyCIqYRC8nX4iHoJIoSLYTluI6xKq6GQ7YObAYsLnl1SmHRKe0nsuD4nqQUIGskNkzA4eUz7B69HOPo6LPo4fzAr+FTpVEZ0KyKXaBwTdGyZbFrM6bsQPHhsCSjjImPuEhJPSkMlM5kVeEwjV5eocnM4Ms5JISXvxjnebshct0IG7JKWTAxf0N9jmM2w7YrTLah0wxsmiEXFmxy0q/d1Og4lyZT27RWkLRJekeVqjBgPc2c/bXspR2qatQ9zBRgMVrOa0PBmLN4+eVfdcG/SSYZTj0YioeFUgSxmEU79ClhfntKVDNYF8D5/LCz2LmhL3LDZLgKVer3JhIQV/sSlLSt8XIZlDpYLA5H3vBeZUfk/BRpvqNjY8kskh1i0/SGUFJ8pYKnH9TX2qdJa6+SRKdSU4ggyX9Z/l1JonX0DtMb4Z/WBnUQ/TpVDlpCxfJ/UTxc+MdZAOzf4anem6smvh6CqMRhlHjqhjIjH/wFFugUndQ4iyz/cobmVTahsiS0uSdbBEo0xeifn7wFumjtia/eINwUUUAcuFwNk22RE7tuxvy4ltHoKTM5McQeJBmRAQGkCTEoIZcXJIFVt2OMCzKTu3ewAIB/5WjOe6E/dnzDxmIpRQpEYVzToXa1nJ6+J9wJvw7T8hNVAVhDzvW8g5x5fouoSfnoElECfBnouKsvOrh/B+Fv0Bw4nNBwIzXzPmAW9lskNHlxAHJnR1EOOVxA1L8wQmAyuiG3ZiPhh4a3Ym0k2aS7NAvjXsdpam1YXEfDjwTtHVFG7XzGmd2hRny9oLFsyZBXgrNc1VmcmcheG05FBS8hWZACzvtYeU5rqVmH8MvOt2c5P5T5ySLi1M2+cCcwPW4fyU8B+yu1G+Ir7BWSVCKdA1z9yUs1ypBUzMpwLv5hl64Cb204G5RYpRJsW/C8yt2aSUdEOKmKjb9ia7R0lz3AHZteXIs5/N/7MLHHTS4UXzfbKkVCvC8UcC7/ZLw6tsln8VeI/aHQ2ZHsS0Zh6tXUFFXoJUBwjuMVejLDtzjvpHA++x/UWt/efAPC6+6n75scB7fJ+2iEs6SULFEqoZHt0+IZtAhxeOYjlOWNaxUHBpFcPrjyfjy6KU3RRkd+QKZAKMHcfHxHaN/9KgRmRwlKSULDKe7gPylENq9M7srb74krF+zvZw/56jeHo5F2tfOFo1OgTAuCzutezfMfRate6mhsSOUzDsUjgnclRo0CsMctA8xMhi8nZS6s8vmEBqLYNJpnW+tzNikWlUxllGFrGVN24xokKFfPsZvK49VogGuRvEFfweexuHuZ0Bb8cHdn+yF4FInkMQcC0GM3IizGVToKN18c6KON5yibhMOLGfzNosaiZnEAHtgM3ADg618XICqCsf6OT8VZ/fQmJN5yzQQFYXSHQuDchhfj4/ZdyTaDY55FQFiWKLyUUl5Bn6AUc4O35/wcQNk7IsQwK80iJzyZxMFnHHcyovJX5V1lWxPp30B7swxf3uAvbuotxfRIsZvE7Ni5m+w7Qf87IC+0qq16082F75mpcUzFIdwsgC+yxY6I2X78rHNmlGn9k4rZCvKugaSMvPKXjFodAWhq66Zp5bMI8RCpEquQM+r2CeoGplnu95S5Jb7ydYT7sPP0quNPsjZ8eX7TtKUzAriYSWI3xsW7OaljvC/9eZE2m5jBcEBwr+BrOm7xIZS9Gc1KxTYwJhWtzIYgunbcet/uUR8gdwJllYSXJX/4KCd42Mx45kvk5eWDDX7kFp257aGcZ1Sr2K9rH02GcvN49michnvDtiDyJOJ5s7CnK9IraYC7V9N6A+xBax8CN8glF3PBD7uXvRvLzg3aSgdpwD3byTKktifrjg3TKNd60xj+JvOYpRQ3fnsGxu1X7Wp+jmPscQoigbMGyHfpvWhYTRuC4Rub3JN484lAPU5fFuicnFnIH2yOwTH1w8x3rGFBN2Ow767LI8xq3ae+IaLDGCR++Ohoc78ju8bLtpxxf4l/2u4D0W7pCkMysYQJn+VxTM43Ac2/EhmwxCKtu5hNjjw6ug22Ofm4xjRup4TfaQwReNs7AMO6fmFpaYVxa8gnzxtyQ/gch1zfH+AgNnqtLP3UGyMtzbK+8fSYRsbU4K8+F51hFeMv7AfvOwQTUrCa9Hff2qUCrYvNPsoi1VGSRrC5Vk+Eu7Qj0p6a+zEUxnHz0REF0s7xD4FUVDUltDVuN0d/8yXXgrh1fCVq+GvMmAZCZPHF4dvibjSxeGvzRmCOkIIWn3CFnMjNHJITGvKniBFNelP0Er7EiupT00FikUD68GXWqn77VVJ43v/jJlpUeiu55J/9a7l6FWZDn6xBHJb9nYlDdNK5XOqwu4xH3rVAi2As1JeScQlmQHNRu1Zkn2WS/qyN+IJOeXatWS3nTqTTIZ+exnO4wiewVdrOs9+FL+DceyfeMlbzcorcjVZfrsY7Xa2IaiYJ1oNCthb6Ma1iryRT7tZC1lrx3bkMiczZXPz2bGneWnmOdnaYGf5Tw/K2mHpbG9B0WNH+bNxZrx91ADV+IU19fLGu5vCurGW/gzTDF+6HCK5Wa5W9Ab2HQO3EsJ86YCO7Z7Hm0h7+AmcI/VHokVt6BfLphV6VhGbyEv5wZkjJLo4i1JxxbOVdFamPWHR8gawQqb6+XRZPZKwP2xc1uUP3Asf6nWPtGz16z6cqGlj/mCSlV0i1whvKdbqsm0FBvNjvzVeP2A41KNye91tnQqlrNCr9nOUFY22yHq2tYKyqv5ch7xREmPTWs6dSfpheSUndTqhnBzmlYN+0euz8CvfsixV2s2z+lDkGsaofsk8rVVuGh3O1uCed1cIiyIOCtk4nl9wchvbBy4NL1wJDu3XqpkC6SezpjeETD79jocnPkiAgcfUOGJeWNh/hZxI51PWhN1xavnpEZLr59siA5J3m8szKf1VmkrcYCOfmtRD+tjMopl3kKboVj/5vSccqSOq9YpBbtO/IXnve4NjVx9tHolKuyHL2VSM2ZFy+hdhyF3X94AgBJ7LT0ipMWV+DpcrrRpFOvvMGg9FGvuja0dx8VceCWV4QuRbemH4XqIXF2Ld+QEN0cIqcWFl69BiRMD8Us5HBXgtgPoY35jbpI/Axpx+RLK8PTZk14NMV6KRG8W3+DKI5XO1vytabCplqMgVOTxmeAU9SvBWqS0FG2VWlnJ2hFXWEFpm/rp1VWb66U26oT9QGpWXnPl1GCdnL+Ndd9CdXbKfgw1e2R7Rovu4ew1tWr+mey1V7yjvU7eBenrkxzw+jkwe2Fxg5JlaRHwwj7IoG8sI3L8n1n/oRZXs3vy1NUE50P5RrhhwbabzAcCHTYF27ePbfqjbfZnDlRuPeBmevIaRn4kZOrp24JSu1Mt6+i8CCHQIVm/UdomCUruc+uFLfkLbsWtO/h3aetO/l3euot/V7bkr7atbt3Nvye2JOYi87WWPWw4udFsIgVyp7B+WLmI7GnBObMl0GvYtkiuXXgXcZ2+kbu+K//ewNLokt5Ykz9jeVNFYDdXOvx7S0VGfOtGdbOrNG4jVy613AAeUedISvpITCfJ7bKxPCqs8++jRRlU9o+J6igWmccKV49jxoXO4+/hnydUNqT1F5TW14XNJ7oXRl/Ylp6/qC0D+GK3XX2J/DF10i8tYwdJv4yJI/nyqKR/YfUrzq0Ln1+JwSd5UqQCerIM5g4B3CmDu8v9tc6nrOsf67x7vSIz89SopZb6acrC089r8lWtarljB/zVUbPb1i+Ofk21LuP5WqJgMsKvq5XWQxnX11cbLf1j7t+w3u10VC4l++yM3Lrw796lsEA76eRVyFsZhrKaSmwT5Dea3Y6ltYndYu/QmdyqgyNsVdVnsH/d4Gwt3LTP+87JriVDqYkutyfYXvOMVO8aWEGSu0qtll7K2j4ftV5qYBLIlcVS1kLmHx5E+BVnOKqNDSEQutFuuJneRGXla/yWzhbxQJurRmGprX/k9mz+ad6pud4/mnXfrTcypX08wQ3iGY7SEypV+QVBU3l4YmX+jf4vTCX2ZdLSLucvtzPxFU6uT5IUtRI+n4y3KFzcwZYqvT4F1c//6YentpvnSZ5GkhJ+OnmhrVx9VUeeR5L5ug5e17oqWSmbV6+8FZbPcc1O3pdPv5dDVe0AqySqVYDpruOkmOZzbZZSmNhiEe9ypgYr6YTbPldTjBNRuc0Nv4Wu6Sd0JXc6alUbGV9n4JrkWhK0WbXyOlEr2+v1nXYYSq/kb2C+15sWfqOMgPQmkZ8F3SwMkt4iqe3zVuUkFdZtdCHoZB8hZEkfKakjdbtIDYeK7HqpFupCPldrymzV6qX2PV1tUbdvTcmhZ3UdT1OxK9WSRW5luXusYln2Ttr3DOSuWbBlj5mbpMe6KXlchSXoYF8Q1ltbGFnp8Ys2Qr3G+GIMmV3hX8I6Ctv6B6W/tNqIYMO2+sp02d0p+qy7B4W7o9SwfTXGhsmxDyC/BpPDvVla/Fpairi/XsZH+g3p8aUtmoYW955MIUoLd1DopIU7KXTTwl0UttPCUyioqkrhbgr3SkF5vC/bAu6XzcRO3TfOt5pvkvXrljbFb5ZpDHtOVg/gEGyqVenVj/0e0vcGyaA8ivtj/WKqlzle1gOM8VXEk/kAnky+KgSOD5N943hP4HJqlsBbfcIhcUjg7Xi8IijLcaLlfvxofPfnOcz8z3NQ8CrEjsVrXUQOsIelsliPq/xVD0p++ao/xsSVtBbS6I+MOk37syLKnmYEIjUA/BLmNftJ5fzYVFw4NiXUuyfj+H/HDk7DscsXiXcqYmk67TtCa15xoQfx9tTvlL/wkp0AUT9mn4yX+lV+Vac0sDXpI8jCFbRwKWdC7iM4upe0xz/DlVxAS5i63Kx+jFm9oj6kkqn1+ymQYTp6H4XeVp/wVe5HuSl6qgn7+XoNf2/lIbTIMfBxGAgJUamf64KpcVqmgVz0fBqcZNw/TPa5rDGf4iATZhgOTKs9Cb1Z5DF6Wt6XkMOGaKXVPonb5BoKafhINP07GmVV0FIpfgYpjvr2Z97zhh2pyp/1ccYjnNewo9bT62JeSP0sdB9E90XWMhcw/p1eqSW+SbHZ0LdezCelJdnMo9J2SH65JPUrkVXfFmeUmPNWn1kQPYA6sRIQjHSkvwHQohcufCmSWccdCKnAP1A/wVsgaCVdIOo3kl92nDHezH0+RUvcOtpSA5kyfDm+wcBniUGXHyb8BzUb7xEVkAmQEJPP4s8FRps2tLZjAg1NViVuJKHFh4+j6jXLurvQwFYtj4ZEx55bNB43ptxbmecV5c7/Esbl+UXIMjjiuaw9vX4yLyxy2WCvCPtT+uk/ZF5U5M5VQR2ipvqtSvOSollOO1GoPdz5hZjgFmE5mfJ7jfvUV3bSXvUe5onpICYiSKZQUh7nlPX+Cz2Q6x1O+iWduM4W53uMGLNZbfS2q6F4L36TzaJ9Bdj9CZiedaWs3S+kj0xzJq9gddH9UMJ35i1Qe0emUEOKGVsyOuPLBS1NhDVSP4+BIGaC9BzEfqT3Qf4hesZEByyIcVUeeJzn9D6RR13HBm38lZkb9z+zngYZj89m4iazfW7J5XfEQgvdiRFSKlHzObRNYZEqH9FVwk9DrmjzGEsCyhCWUdrLXHDuxnCysiV6MWckN1vS0kvSVnqbk/xLEDdEq/4liJFqWKp08xb2TxvdD+phzE3SqiEGYWevM2mJTD3mWNt2hLRoZ9q448RoApmj+QH5/1CBrk6cPW7m6L+4SAw8PzHHRql/diNKR1qYybWFzRfToEV10CRkaPNN5kC+YIJdmf9mlQKxRfYUW8zhvMvDykkgSMJM21Iv/ZZEal5xxoGbrWgstgEl5JYNCQYHrGoW2yDWjxVs6z61aopXp2KrWbmW1CUtMg0ZtgttZb/BPJxwC6OvJyn5D6ZvHYMht5zcuqHwyWwaz3blYWTx0hVdcYFT9JYy6hviyegP/+O0A8YukTqcI3+vfzAcafQrES4S8/KiV8jRBPKyolc8SjQIJ8GJXfvNFNhwfSiFtiXu+ZPRwEKgKc+4soIdbyS95JEVQLXgpnmLalsqjIsc12JPgQ0p0CaRSluXmFcV5UdzNEwBKbZ5ZZHdXFDNT6Y4unelvqLxvF2Mvr6hkT3bm6NAhXt4+byxystLGLqgcP1q2ybmNUUvEOFoIwxXsrvP9fR2JmP8VEZgXkHXU8fZq9k4Ykv+tewc/z/RDwAAvZh7eFTlncffM5NMLoSA3DJowZC1YA0kiuIlZk7YbWe01doN23W7uw7P0opWRFbciWvZbQRiQDrBtWoFbbUhQUBdWlRQnEmmSGu1KOnMeEtDsRQRJhStIjdrLf1835NkeNo+fdp/yvOE3/f83t/9/b2/95xxHJ/xm7IN23teLiu/esHN02c1/ttNX2u64rqL/uHqS2696KrYVTeY0WaMccaaM8wEM8lxjONznNEFxhQUOMb4TIFT+Jn//ErTTXMXxEzAKb7dGFNiykT4Z8lI0+0zp6N9Jsqo49BMMgW+wn+cc/3cyvP+nNZoQU91hPPfBnWfVa+S+mcXxObesmDO/MovLJj/tcpPz1lw65z/MgHzlxq7S7k4o2XPIZzhhemH009klqSTmZb00+mt6SfTmzJ3ZVaAnq1M/yC9JbOYxVS6O70pnTRjW4yZWUkaZ7cac7fvUzYWM2vu9U3z59xizDnOX2OsjEhKKWWJKTLFxHjA5yw35iIsf4Zam5Zg9ALfcnNamX9eMBoraMmGW4pwf26hCYwz/nHUxIoUwJsJr/nWTCuJ+ZaaxQfyfCfQHMtMo/q+FrN4U57vE3+Ccfy+O0z7eXm+X3zkC+DvacvzCwLNkQrkC+G/93aeXxhozobXGyfgazVnzcjzA4Hm2bHzjFMEf8+1eX6R5M80TjH8l7+Z5xcHms9NVBqnBP6eVJ5fEmg2pt04peKfzPNLA80HO5Lyu8zcX5XnDxvwOwx+rC7PLxvgl8GfNSvPHx74ujGVxhkO/55onl8eaG6rOcc45fD7Ynn+iAH+CPhVp9RnpOK8WHVeZpauzfNPUz2p20j4fYk8f9RAPKfB35rN80cP2C+Gbw7m+WMG6uOnI8Kn7PtY2Z/GWXL+oBV9t8cyM/xjXm3Z+8IJ/9TrLk5fNq75o1+1+0cEPltgCts5L07J7Zzk0nHGdgzdoU7QrmuHtZtU/FrtEjTF30lVWlVVBVUtMoqpCsoYnFAmiloRqrc5hM5ix1nimKV0s2PucEyrY5Y5Zrlj7nTMCsc8QhPvcMxLjn+nY3qQ8JlVPifgcB50aEvMsMED4R1rdH9kTzbs3w33jvfpep7gm2jONJMd7PEkjl//MaQcM8WscswnTLkzfgmsM8wnzVTTilhg1EZGQH/H+Q1tNQnXL9AZb3aN+VRDbeJs1x+MTmxoyjwSasoMa4jGTgv5O+OH3USuqiuZ226pPxu+14Jg9BrXSrTVjHKlkg3/NDRgIxaSUVHrRSBScdSVBPOpwapEY59skI1IxXkN1mhtor5BXkStWwHFYSUUmFQUqbWh0GVUVF6M05SZYJFfoDN+EANjGxK5wgZ/bWI4jHEoGnTOFGMfilOsP1F/pGKNBf0drURkJb7oSoWmI11sBKNjYBwkqzGu9SLQlFkB4wJUGt0BlXLstOK6N2SNBqP3heRFFIl9FigOK+EFVo74WALDhkKXUVF5MYcLjNMZP8YOzWzwtdUECHm6kj+JzlQe3qWq56iib6IzBSM/gUFCxmxGYjJGHiTcyZJYRGQq4BcJlwybMtMIN4jKeCTKlGEBEidZ/TjU37HL9TVlCmHsctGtwvpRYpeuo/1qwU0RxtotJZFtFiRzfdCTLrkfJeb3sOxDKqvMSgCbsSN6p8cIRi9GytcwO/a+Wu0IHq6ld3qhm+sx2oV+XVc2vMpS0v6KBdlwNXF012PjbTrrJnpvPdRx/bNjjTxc5np0lesTiFRs8VbaakoasuEDrExSDufj5hK66gEZVck2UZA6euA5FmBkw6/YlWB0D/TSBmy8A6hny7wNMY58JHJLFfwmC2oT20lxizb/NTYgx+a/idUqtUeOoBvFRJkCCHTG18F4E0aX60/mXiXwDEydgp+r7ptYkdT9lpJviwVNmRvYmV+6xHwl9d7lJnMX8tcjiUmIbyfMcdjY5PoTuVICexhGKap3ymgpD9P5uxAbH+gAfxmJpVTFy8WsZUTUJlYjQc2TuS9bwIRG/KV6GHsp5CJGhM78yRBVaSTtmYSuCn/DK3VtYjOBrUfiNZfi7Kfnj6Ffja0Ctdq1DIDhNMJqS/3R2BYLIhU7ibJYDbWPPHwchg8w/L6LhMPDboz62aEfuj51pgCir5Pq6xTleUTfVu9tYQOPwFxtKRt5uwWzY/+K/gGV7QIYfaQ7EantXlGy4ceJrhSjcY/RGb+av4n8TZaN89m+d0jsS0S4VTvejL52fLWlRPioBZGKZ7DzoE73j0jqCYrSg+ruEP37Bm51ynYhWeX6lIwAug5nZy+9f4TVe0NUaD9GSmmfHlQuqEdXVuu65E7UvMMrHS1UzzAxPg+0hzizYUrdrv77lgWd8ac5zU+FyLkXxouhYPQQEf1G4RlSG4e1AD4/raqUEedCmBpi33axGgQMa7BxDgH8GVt9qAey4V+7DKd5Hpgdm4MWNeyMz8bWLGz+M04mysGVJPMqFbqE3VqpGk5GopwAi6B31dM6GYI0pjbxVUsJQYnxbx/paiDRXCkM7QkJNGW66cPPp6jOt8n0cymM0HKXpYgmATjeTZYnMO9PaVxT5RSVnep2xn/Xncy5ZNDbzZFpJLwnuxU3le0mgYUCSXIbhi5p45+UAJGKlZyzvSE4d3uAjfWWCM6rEZVndzu62YKVhPthdza8hBqMT3F05rlNmRmp/o4rXCqeIripSCgPLzGTIcvOeI2Xeza83KVMLsnUeXEoCQs4WgTf7vo646k8sEuzY/15YJewxaYBsOyFaMzlHghGR3KqcFGbuBwZnCZzNR7gbKN+s/ZTdoYAS/IFHQQs1SY2eCCRGwWwS14WZq5xgtGzKMDHIcR6vdgiFUPFKhx09wtP0QO9LpFMB8CJVDxkTVlgtWRwCMiyeYqZpWXETpHTbBeg0X5sQaTil+oC3aAf0QXvwvwIAztdy+CcwDwEfURTbDfVX8Xf82znPZoAmuh3w3iLuJikeknRFGir+S2M/9Cs1cD6e8RFxw4yXgslc79B6h4dwvdwN4HodkEfqsfoC+gak8w9ZqmNHWr4/jOVkglRiMcsoKGes6C/YydH7QWN7j765n3Ocx8LEzS2+txg9HIy2Aljjmbhc3heRK8+ZilbX5kHMmaso7aaDteWS4C+lHQH68+guU7z6Yfk/Tgh7qAGmyWRhtHNQxrJHYMMDQVdgG+rXE/x8B7lfsBS63AIyLrZWmicZO4WUmjs4hiGLOiMj8Lv7kspb48Sq9fZ1lxlRxopTTokqrlsGZ3xq9iEuxhr813O9uZQNtxK+h8wF1Yq7vHU434YDUg9qAJdx/Y8zMMyIlvjsiPtJLGWmL+PJKk2ZX5AdBuI4QUY/69t7kFc7wY9FCOhY6SZ3OWtZMNvoCuV/cr5CfT0UnqvpRi7wYJkLgLT3jxnIdqHyliYO3Ry7iShn3mxJ3OHEf+YpIxeP/6OyIp427gK36XeK5wuSTrJUnr2uxZEKp7AIG2uuywbLoXxChHy1trf8RYSBhvvYvgdlexDJH5GpT9kM7bqUAvQeEoG6gHeBUIcrpctIOgXsT+XknZTvFG6yLS3i+trEx1kk6gjz29ispHPBG83DU21WCK6Fh+wQB1ozAYN/S5AOhSNPU9NigbLOIUke7D2ucECt6l8LxH2Clb0Br1M+/kskbSQ00boEh3bNRhbzOr9SH5dWxBHfBGMO6jebWJcz0PMWu6Mz5ONaYjqjjoDG59XT5SyF3VIlPJ3+iCjj1aqRnJjiLpeKS90n5eUWcFrOSusPuRyZDeiN0+vJFfQsQNgaElAb4rHObfMJAHKrEFXkQdDSwLG0Yxi6ndxfndju45TsY2QttcT21oqvBA/97HANa5EdXZE7euXAK+gPNwH83WlsxbdY2S/jcLx+iWj6ht5EUVljAW8qEKRaMqcy/vIMSp4Ma+/2OAFj0m2BcZMAsOLgNxKwsYhFQUmGzZSGVXo8iLqZWVPclNmhAXcihjpVhJVfBGdoMMm42+qdq0acA19UY0y/jywjswkkVKaVcT7OuUdj18GjozqLU9eRMl7PwU4wka/QsmQ0DCUSlvNVhawkQ1/n4d1eBG1XjQFruFBEsQhFQUmGzZSGVXo8iJqnuHKbquZxS3G61d/xxcAlSlG6SWnArvLU04FCA9qqZU01OkA3WdDQGtYTOaBXeJtOg/skjFnW0MW2CW+uPMAp/l7xQItmRW+v8nNjI8u6lkn1j4L2Lp97FI15tPIVGlMJalykBZYbSndNd8CfgUZlDjDqojKBuW40QJWbkTkfD7s/geVaWK0sndnW2OiNMbjFujz00ooIqmIygbT6p+8TSCXU5LRHg8BVvRDS6+XuYB921WeQ4AVTx3Kj0K8kwSj35GLLmboVy3Q9DFmWz1TTx9FNzNk1vMNccK73iIV9hKku1ZoVjdyrXnfUfqcHFA5RoGrscUx/aPvqKbMRgsiFbqvSyTRi2iAU6Z3t9+qwz9i5Vf8+ZDK6EYqphBPs1pMDf9P13MxJ22Rttl+6Q0CXhC0cQKY3YeFZxkrfZT2Zc3hDA9v8rCN8PrlRyfpCGa1C5zG2sT/WpAN/wsSB3Q8p7MLuzA4EdUfi1HK/jwJQx9hfH8IcMa8lc54BGOVUDuhL8T/bm7OKMxNGiBLJUq9vmMp/jdaoBu7KfMtzfAXKc2j1DqLSlqMnxPMcTLbi9ug/b2D6eeozj5Gy/dogqNEGPUOvX5wiMZ+SnSJS9HdCqjjVzBve80h9lobz56lbAcM9M0kMhkAydxB3QzVFjBYZqB5mNjC7PjHLh8HVxNfAY5vJfBi3f9xGBrK6yxlc39igb6N+zvYfv1a099xnLIWsXVv6H2zvCGZexr9cobTNzyGekoSxtBkUtEvJsncPmi37pMdxKHfVNZbSiXbLAhGbyO45y+lQb5EyNvrtQHY0mvoDMBKUqzG/eN6UTgrD4YqIGAcfd7ar0EBmYrGZsCYosa7nPr/GjM3Uv+tim05kWu0rrGUULosCEZ7UEnq1WEPno+i0k9I56hoh1n5dx5E8SIQqXiUyPsxuk2MPbRMLw96p9ivPuwC6JpYYyl1Xm6Bvs4iFQfEuIxI9UY9g4XtXuh6fRGVF6MfUTVeVCe2Za4F+phTnUgsR/ILOaobaC6uRirBzeadbHvNCOg2lYS9XqXi3bdTCYytlVFvr1dbSuopC3TirMTs2HHcaRj4Ob/YUKPJqKj1IiC3khiI4zgxLMRTH6pEKqNe6F4uXlYqOW9JWyzw3v26Vfs+wjtBZm9RlamaAYcA1/B3CGX8eWAdLiTB9SoV3beyYS9gGVWp5UWUvG+zIJmb5Ul4v0pK5RMsYENHX0Y9ihcBufUkiEMqCkw2bKQyqtDlRdTE7RW9l277robKXjws0JwbmQdDSwIa2+poDq4Aozw/1S0YWhLw3muEOOZ/6p4YWhIw5vc=(/figma)--&gt;&quot;&gt;&lt;/span&gt;&lt;/div&gt;&lt;span style=&quot;white-space:pre-wrap;&quot;&gt;Обслуживающий персонал&lt;/span&gt;" style="edgeLabel;html=1;align=center;verticalAlign=middle;resizable=0;points=[];" vertex="1" connectable="0" parent="03a_yUvJn4LSFQJn4kzA-13">
          <mxGeometry x="0.1186" y="1" relative="1" as="geometry">
            <mxPoint as="offset" />
          </mxGeometry>
        </mxCell>
        <mxCell id="03a_yUvJn4LSFQJn4kzA-15" value="" style="endArrow=classic;html=1;rounded=0;" edge="1" parent="1" target="03a_yUvJn4LSFQJn4kzA-2">
          <mxGeometry width="50" height="50" relative="1" as="geometry">
            <mxPoint x="350" y="800" as="sourcePoint" />
            <mxPoint x="425" y="680" as="targetPoint" />
          </mxGeometry>
        </mxCell>
        <mxCell id="03a_yUvJn4LSFQJn4kzA-16" value="Авто" style="edgeLabel;html=1;align=center;verticalAlign=middle;resizable=0;points=[];" vertex="1" connectable="0" parent="03a_yUvJn4LSFQJn4kzA-15">
          <mxGeometry x="-0.3189" relative="1" as="geometry">
            <mxPoint as="offset" />
          </mxGeometry>
        </mxCell>
        <mxCell id="03a_yUvJn4LSFQJn4kzA-17" value="" style="endArrow=classic;html=1;rounded=0;entryX=0.85;entryY=0.997;entryDx=0;entryDy=0;entryPerimeter=0;" edge="1" parent="1" target="03a_yUvJn4LSFQJn4kzA-2">
          <mxGeometry width="50" height="50" relative="1" as="geometry">
            <mxPoint x="460" y="810" as="sourcePoint" />
            <mxPoint x="450" y="590" as="targetPoint" />
          </mxGeometry>
        </mxCell>
        <mxCell id="03a_yUvJn4LSFQJn4kzA-18" value="Вспомогательное оборудование" style="edgeLabel;html=1;align=center;verticalAlign=middle;resizable=0;points=[];" vertex="1" connectable="0" parent="03a_yUvJn4LSFQJn4kzA-17">
          <mxGeometry x="0.0826" y="7" relative="1" as="geometry">
            <mxPoint as="offset" />
          </mxGeometry>
        </mxCell>
      </root>
    </mxGraphModel>
  </diagram>
</mxfile>
